<?xml version="1.0" standalone="no"?>
<!DOCTYPE svg PUBLIC "-//W3C//DTD SVG 20010904//EN"
 "http://www.w3.org/TR/2001/REC-SVG-20010904/DTD/svg10.dtd">
<svg version="1.0" xmlns="http://www.w3.org/2000/svg"
 width="260.000000pt" height="260.000000pt" viewBox="0 0 260.000000 260.000000"
 preserveAspectRatio="xMidYMid meet">
<metadata>
Created by potrace 1.14, written by Peter Selinger 2001-2017
</metadata>
<g transform="translate(0.000000,260.000000) scale(0.100000,-0.100000)"
fill="#000000" stroke="none">
<path d="M0 2585 c0 -8 6 -15 14 -15 8 0 17 -7 20 -16 5 -13 9 -14 20 -5 10 8
16 9 21 1 3 -5 11 -10 16 -10 6 0 7 5 3 11 -4 8 -1 8 12 1 11 -5 38 -10 61
-10 23 -1 65 -8 94 -16 29 -9 64 -15 78 -15 20 1 22 2 7 6 -20 5 -46 27 -46
37 0 13 28 5 34 -9 3 -8 11 -15 18 -15 10 0 10 2 0 9 -10 6 -7 12 12 24 14 10
33 17 43 17 10 0 25 5 33 10 11 7 0 10 -39 10 -43 0 -52 -3 -48 -15 4 -8 2
-17 -3 -20 -5 -3 -11 4 -15 15 -6 19 -15 20 -171 20 -139 0 -164 -2 -164 -15z"/>
<path d="M920 2596 c0 -2 11 -6 25 -8 13 -3 22 -1 19 3 -5 9 -44 13 -44 5z"/>
<path d="M1581 2590 c-9 -5 -3 -9 16 -13 34 -6 37 -5 14 10 -10 6 -23 8 -30 3z"/>
<path d="M1667 2590 c12 -5 34 -5 50 -1 24 7 20 8 -22 9 -37 0 -44 -2 -28 -8z"/>
<path d="M1850 2590 c20 -13 50 -13 50 0 0 6 -15 10 -32 10 -25 0 -29 -3 -18
-10z"/>
<path d="M2210 2587 c9 -9 40 -18 73 -21 47 -5 57 -3 57 10 0 14 2 13 22 0 33
-23 45 -19 15 4 -24 19 -63 28 -54 13 8 -13 -84 -13 -107 -1 -19 9 -19 9 -6
-5z"/>
<path d="M2424 2589 c-4 -7 -3 -9 4 -5 5 3 12 2 14 -3 1 -5 17 -12 33 -15 28
-6 29 -6 6 4 -14 6 -30 15 -37 21 -8 7 -15 6 -20 -2z"/>
<path d="M2495 2590 c3 -5 11 -10 16 -10 6 0 7 5 4 10 -3 6 -11 10 -16 10 -6
0 -7 -4 -4 -10z"/>
<path d="M1226 2567 c3 -10 9 -15 12 -12 3 3 0 11 -7 18 -10 9 -11 8 -5 -6z"/>
<path d="M1705 2570 c-3 -5 3 -10 15 -10 12 0 18 5 15 10 -3 6 -10 10 -15 10
-5 0 -12 -4 -15 -10z"/>
<path d="M2051 2571 c-1 -8 -9 -20 -18 -28 -10 -8 -13 -12 -6 -9 6 4 13 1 15
-5 3 -8 7 -7 15 2 6 8 7 22 2 34 -4 11 -8 14 -8 6z"/>
<path d="M2130 2564 c0 -8 5 -12 10 -9 6 4 8 11 5 16 -9 14 -15 11 -15 -7z"/>
<path d="M2167 2573 c-4 -3 -7 -11 -7 -17 0 -6 5 -5 12 2 6 6 9 14 7 17 -3 3
-9 2 -12 -2z"/>
<path d="M2525 2569 c-4 -6 -5 -13 -2 -16 7 -7 27 6 27 18 0 12 -17 12 -25 -2z"/>
<path d="M2583 2565 c-8 -9 -9 -16 -3 -20 6 -3 13 1 16 10 9 21 2 26 -13 10z"/>
<path d="M1126 2558 c7 -11 34 -10 34 1 0 6 -9 9 -19 8 -11 0 -17 -5 -15 -9z"/>
<path d="M2186 2544 c-5 -14 -4 -15 9 -4 17 14 19 20 6 20 -5 0 -12 -7 -15
-16z"/>
<path d="M2437 2549 c7 -7 15 -10 18 -7 3 3 -2 9 -12 12 -14 6 -15 5 -6 -5z"/>
<path d="M1310 2546 c0 -2 9 -6 20 -9 11 -3 18 -1 14 4 -5 9 -34 13 -34 5z"/>
<path d="M2380 2538 c0 -14 15 -16 27 -3 10 11 9 13 -7 12 -11 -1 -20 -5 -20
-9z"/>
<path d="M1900 2535 c0 -7 30 -13 34 -7 3 4 -4 9 -15 9 -10 1 -19 0 -19 -2z"/>
<path d="M2225 2530 c-3 -5 -1 -10 4 -10 6 0 11 5 11 10 0 6 -2 10 -4 10 -3 0
-8 -4 -11 -10z"/>
<path d="M2490 2532 c0 -17 13 -22 27 -11 9 8 13 8 13 1 0 -6 12 -13 28 -15
l27 -4 -27 -2 c-32 -1 -37 -17 -9 -26 26 -8 51 4 51 26 0 12 -11 21 -37 28
-46 13 -73 14 -73 3z"/>
<path d="M1486 2523 c-3 -3 -28 -7 -56 -8 -27 -1 -53 -4 -56 -8 -3 -3 -12 -3
-20 0 -8 3 -14 0 -14 -7 0 -8 -12 -11 -35 -8 -25 3 -31 1 -24 -8 7 -8 -1 -16
-26 -28 -19 -9 -35 -21 -35 -27 0 -5 -16 -19 -35 -30 -19 -12 -35 -27 -35 -35
0 -8 -5 -14 -11 -14 -5 0 -8 -4 -4 -9 7 -12 -29 -33 -40 -23 -5 4 -5 2 -1 -5
3 -6 2 -15 -4 -18 -8 -5 -8 -11 -1 -19 8 -9 5 -18 -9 -31 -22 -20 -16 -43 6
-24 8 6 18 9 21 5 4 -4 1 -11 -7 -16 -7 -5 -15 -23 -16 -40 -1 -18 -5 -39 -9
-47 -5 -14 -3 -14 11 -2 15 12 16 11 10 -9 -5 -13 -3 -22 3 -22 19 0 12 -27
-11 -44 l-23 -17 25 7 c24 7 24 6 8 -17 -8 -13 -21 -25 -27 -25 -6 -1 -19 -2
-28 -3 -15 -1 -16 -3 -3 -10 8 -6 19 -7 25 -3 5 3 4 -2 -4 -11 -14 -18 -25
-15 -57 17 -19 19 -19 22 -5 33 14 11 13 13 -6 14 -13 1 -26 2 -31 3 -4 0 -28
18 -53 38 -97 80 -278 151 -384 151 -87 1 -135 -6 -126 -17 4 -6 8 -27 9 -46
2 -19 7 -62 12 -95 16 -99 14 -115 -15 -115 -14 0 -25 -5 -25 -11 0 -7 10 -9
25 -5 22 6 25 3 25 -19 0 -14 9 -51 20 -83 11 -31 23 -79 26 -107 6 -57 35
-95 97 -126 44 -23 53 -39 37 -68 -9 -17 -8 -21 5 -21 8 0 15 -7 15 -15 0 -9
11 -28 25 -43 39 -42 17 -86 -38 -76 -19 3 -26 1 -22 -6 4 -6 13 -9 21 -6 8 3
14 2 15 -2 0 -4 2 -16 4 -27 5 -23 -26 -97 -32 -78 -2 7 -11 9 -19 6 -8 -3
-14 1 -14 11 0 17 -9 20 -34 10 -26 -10 -18 -21 19 -28 37 -7 40 -30 4 -39
-11 -3 -17 -1 -13 5 4 6 0 14 -7 19 -19 12 -32 11 -24 -1 10 -17 -37 -11 -57
7 -10 9 -18 11 -18 5 0 -6 4 -13 9 -16 11 -7 11 -56 0 -56 -5 0 -9 5 -9 11 0
6 -6 9 -12 7 -14 -5 -21 -48 -8 -48 4 0 12 -11 18 -24 10 -23 9 -23 -23 -16
-23 5 -36 4 -39 -4 -2 -6 -5 -4 -5 4 -1 10 -11 15 -30 15 -18 0 -27 -4 -24
-12 3 -6 11 -9 19 -6 8 3 21 0 29 -7 8 -7 15 -9 15 -5 0 4 6 3 13 -1 6 -5 26
-9 42 -9 24 1 30 -4 31 -21 1 -15 -3 -21 -11 -18 -28 11 -25 -17 5 -46 36 -35
50 -38 50 -10 0 11 2 20 4 20 14 0 85 -48 79 -53 -3 -4 5 -7 18 -8 15 0 19 -3
9 -6 -8 -4 -28 -19 -45 -34 -26 -25 -27 -28 -7 -23 12 4 19 10 16 15 -3 5 -1
9 5 9 6 0 15 -8 20 -19 9 -16 7 -18 -17 -14 -15 1 -22 1 -15 -3 7 -3 9 -12 6
-20 -4 -11 -8 -12 -13 -4 -5 8 -10 2 -14 -15 -7 -27 -26 -30 -34 -5 -3 9 1 11
12 7 14 -6 15 -3 6 13 -6 11 -15 20 -20 20 -6 0 -10 7 -10 15 0 9 -6 12 -16 8
-26 -10 -11 20 17 34 13 7 20 13 15 13 -5 0 -3 7 4 15 7 8 9 15 6 15 -11 0
-81 -50 -71 -50 6 0 2 -5 -9 -11 -15 -9 -16 -13 -5 -20 10 -6 4 -9 -18 -9 -26
0 -31 3 -26 16 4 12 2 15 -8 12 -8 -3 -13 -15 -11 -28 3 -31 9 -35 25 -21 11
9 17 8 27 -4 11 -13 10 -14 -4 -9 -20 8 -21 -3 -1 -23 9 -8 13 -18 9 -22 -4
-3 -9 0 -11 7 -3 6 -9 12 -14 12 -6 0 -7 -5 -3 -12 5 -8 -5 -9 -35 -5 -50 6
-61 14 -41 27 11 7 12 10 2 10 -7 0 -10 5 -6 11 5 8 10 6 18 -7 6 -11 20 -20
31 -21 11 -1 14 0 8 3 -7 3 -13 12 -13 20 0 8 -8 17 -17 21 -34 12 -44 25 -32
39 6 7 9 19 6 26 -4 8 -8 5 -12 -9 -4 -12 -12 -20 -18 -19 -7 2 -9 1 -4 -1 11
-7 8 -18 -12 -41 -11 -14 -16 -31 -13 -47 2 -14 0 -25 -7 -25 -5 0 -8 6 -5 14
3 9 -5 22 -21 32 -20 13 -23 19 -13 26 9 7 8 8 -5 4 -10 -3 -21 -6 -23 -6 -2
0 -4 -9 -4 -20 0 -13 -5 -18 -15 -14 -8 4 -13 10 -10 14 3 5 1 11 -5 15 -27
16 -6 27 48 23 l57 -3 -1 38 c-1 20 3 37 7 37 5 0 9 -5 9 -10 0 -7 6 -7 18 -1
10 6 29 7 41 4 14 -3 26 -1 31 7 5 9 9 9 14 1 4 -6 1 -11 -6 -12 -7 0 -4 -4 7
-8 11 -5 26 -6 34 -3 11 4 10 7 -5 13 -17 6 -16 8 9 19 15 7 27 17 27 21 0 8
-50 22 -57 15 -9 -9 8 -26 20 -20 8 4 7 2 -1 -7 -11 -12 -14 -12 -21 0 -5 7
-13 11 -17 9 -5 -3 -18 -2 -29 3 -18 7 -17 8 6 8 30 1 47 29 23 38 -11 4 -14
14 -10 32 3 14 3 21 0 15 -3 -7 -14 -9 -25 -7 -16 5 -18 8 -7 14 10 7 9 9 -5
9 -10 0 -20 7 -24 16 -3 9 -12 13 -22 10 -11 -4 -10 -2 3 9 11 8 27 15 37 15
10 0 19 10 22 25 3 17 0 24 -7 22 -6 -2 -10 -11 -10 -20 2 -16 -25 -12 -27 4
-3 19 -5 24 -12 35 -4 7 0 14 8 18 10 3 15 -1 15 -12 1 -16 1 -16 11 1 6 9 14
15 18 13 4 -3 7 5 6 17 -1 12 3 25 8 29 15 10 37 -2 38 -21 0 -10 2 -11 6 -3
2 6 12 12 20 12 9 0 13 6 10 15 -4 8 -1 17 5 21 7 4 5 10 -6 16 -24 13 -38 1
-26 -23 7 -13 7 -19 0 -19 -5 0 -10 5 -10 10 0 6 -9 10 -19 10 -10 0 -22 7
-25 16 -4 12 -1 14 14 9 11 -4 20 -2 20 3 0 5 -9 12 -20 15 -20 5 -24 -2 -21
-36 2 -10 -8 -21 -21 -26 -13 -6 -18 -10 -12 -10 24 -2 21 -26 -2 -27 -15 -1
-24 4 -24 12 0 9 -8 14 -17 12 -14 -2 -17 3 -15 22 2 14 9 31 14 38 7 8 7 12
0 12 -5 0 -17 -15 -26 -32 -8 -18 -16 -27 -16 -20 0 14 -10 15 -30 2 -12 -8
-12 -12 -2 -18 14 -9 6 -42 -10 -42 -5 0 -6 5 -3 10 4 6 2 17 -4 23 -13 17 28
67 55 67 18 1 18 1 1 11 -14 9 -22 7 -32 -8 -8 -10 -14 -13 -15 -8 0 19 15 32
45 39 23 5 27 4 15 -4 -12 -9 -12 -11 -1 -8 24 7 24 28 1 28 -15 0 -20 5 -17
15 4 8 2 17 -3 20 -6 4 -10 1 -10 -4 0 -6 -5 -11 -12 -11 -6 0 1 14 18 32 16
17 23 28 17 24 -8 -4 -13 -1 -13 8 0 9 7 16 15 16 19 0 19 14 0 30 -14 11 -14
15 -1 29 27 31 24 68 -6 74 l-23 4 23 2 c12 0 25 8 28 16 4 8 11 15 18 15 6 0
12 9 12 19 0 15 -9 22 -37 26 -42 7 -87 34 -58 35 27 0 29 46 4 70 -19 17 -23
19 -28 6 -4 -9 -13 -12 -28 -9 l-23 6 22 8 c12 5 22 13 22 20 0 6 -7 9 -15 6
-8 -4 -17 -2 -20 3 -4 6 -26 10 -51 10 -27 0 -43 4 -41 11 1 6 -8 15 -21 20
-20 7 -22 5 -22 -21 0 -23 7 -33 33 -47 33 -18 38 -20 59 -22 9 -1 9 -4 0 -13
-8 -8 -15 -8 -27 2 -13 11 -19 8 -41 -15 -40 -43 -17 -57 121 -72 48 -5 75
-17 75 -34 0 -4 -12 -6 -27 -3 -23 4 -25 3 -13 -11 12 -14 11 -15 -13 -4 -17
8 -23 17 -19 27 4 11 1 14 -12 9 -9 -4 -34 -1 -55 7 -35 11 -39 11 -33 -2 4
-11 1 -13 -9 -7 -8 4 -4 -2 9 -14 12 -12 26 -20 31 -17 4 3 17 -4 27 -17 16
-19 17 -20 1 -8 -9 8 -20 11 -24 7 -4 -3 -16 2 -27 12 -12 11 -29 22 -39 25
-16 6 -17 -7 -15 -219 3 -187 6 -226 18 -234 12 -8 12 -10 -5 -11 -17 -1 -16
-2 5 -9 24 -8 24 -8 3 -9 -23 -1 -23 -2 -23 -172 l0 -171 25 6 c23 6 24 5 13
-19 -9 -19 -14 -22 -25 -14 -11 9 -13 1 -13 -49 0 -78 11 -87 86 -68 13 4 25
2 29 -4 4 -6 15 -6 31 0 34 13 37 13 31 -4 -4 -10 -1 -13 8 -9 8 3 12 9 9 14
-3 5 2 6 10 3 14 -5 14 -10 2 -39 -14 -33 -14 -33 17 -45 18 -6 47 -19 65 -27
17 -9 35 -13 39 -10 3 4 -1 7 -10 7 -11 0 -15 6 -11 18 4 13 3 14 -4 4 -8 -11
-10 -11 -15 1 -3 9 -16 13 -34 11 -16 -2 -20 -1 -8 2 11 4 26 11 32 16 7 6 19
8 27 5 8 -3 17 -3 21 1 3 4 22 7 42 9 20 1 40 8 44 15 6 9 9 7 9 -9 0 -12 -6
-24 -12 -26 -9 -4 -8 -6 2 -6 9 -1 22 5 29 12 10 10 11 9 6 -5 -4 -10 -13 -18
-21 -18 -8 0 -14 -5 -14 -11 0 -5 6 -7 12 -3 9 6 9 3 0 -9 -12 -14 -8 -16 47
-14 49 2 61 -1 64 -15 4 -14 0 -16 -27 -11 -17 3 -35 6 -41 7 -5 0 -14 6 -18
11 -5 6 -7 4 -4 -5 2 -8 9 -14 15 -13 6 2 16 -6 22 -17 6 -11 17 -20 25 -20 7
0 16 -4 19 -9 3 -5 -5 -8 -19 -8 -14 -1 -22 3 -19 8 6 10 -44 24 -53 15 -4 -3
-17 1 -30 9 -13 9 -23 12 -23 8 0 -5 -4 -1 -10 7 -5 8 -12 11 -16 8 -9 -10 22
-39 31 -30 5 4 5 -1 2 -10 -3 -9 -1 -19 6 -22 7 -2 -2 -2 -20 1 -25 4 -31 2
-29 -11 1 -8 6 -19 11 -23 4 -4 5 -2 1 4 -5 9 1 13 18 13 32 0 42 -3 39 -12
-1 -3 11 -3 27 2 19 5 28 5 25 -1 -4 -5 1 -9 10 -9 10 0 13 5 9 12 -5 8 -2 9
10 5 10 -4 20 -7 22 -7 2 0 4 -5 4 -11 0 -5 -5 -7 -12 -3 -6 4 -8 3 -4 -4 3
-6 -2 -15 -11 -21 -16 -9 -16 -10 5 -11 25 0 28 -10 10 -29 -9 -9 -9 -12 -1
-7 13 7 43 -19 43 -37 0 -8 -3 -8 -9 1 -6 11 -10 10 -15 -4 -11 -28 10 -40 34
-19 11 10 20 13 20 7 0 -15 31 -47 48 -48 28 -2 32 -5 32 -19 0 -8 -5 -15 -11
-15 -5 0 -7 -5 -4 -10 4 -6 1 -17 -5 -25 -7 -8 -9 -15 -5 -15 4 0 14 8 22 17
8 10 12 13 9 6 -8 -14 43 -55 61 -49 7 3 17 -2 22 -11 8 -15 12 -16 38 -3 15
8 31 16 36 18 4 2 4 -3 1 -11 -7 -19 14 -33 29 -18 17 17 40 14 33 -5 -5 -14
-4 -15 8 -5 8 7 12 19 9 27 -3 8 -1 14 3 15 5 0 23 2 39 4 30 4 30 4 6 -9 -14
-8 -19 -16 -13 -20 6 -3 13 0 15 6 4 10 7 10 15 0 7 -11 10 -10 16 3 3 9 3 22
0 27 -5 7 3 9 22 4 16 -4 26 -4 22 0 -12 12 12 33 29 27 11 -4 14 -2 9 5 -10
16 26 16 42 0 9 -9 12 -9 13 3 1 7 1 18 0 22 -4 20 24 -1 29 -22 5 -24 25 -25
25 -1 0 19 45 27 45 8 0 -8 4 -6 11 5 13 22 38 21 69 -3 18 -13 28 -16 37 -8
10 8 15 4 22 -13 5 -13 7 -27 4 -31 -8 -14 17 -8 44 9 32 21 123 34 141 21 8
-8 12 -6 12 5 0 9 -6 20 -14 24 -13 8 -36 45 -36 58 0 4 8 -3 18 -15 16 -19
20 -20 25 -8 6 18 -27 52 -61 63 -21 6 -22 4 -16 -22 4 -15 13 -40 20 -54 12
-24 12 -27 -4 -22 -20 5 -47 63 -30 63 6 0 5 6 -2 15 -10 11 -15 13 -20 5 -5
-7 -10 -2 -14 14 -4 17 -11 23 -21 20 -22 -9 -30 23 -11 41 9 9 16 23 16 31 0
8 5 14 12 14 6 0 8 3 5 7 -4 3 0 15 10 25 9 10 12 18 8 18 -5 0 22 16 61 35
38 19 74 35 81 35 6 0 13 5 15 11 2 6 14 1 28 -11 14 -12 26 -17 28 -11 2 5
10 7 18 4 8 -3 14 1 14 9 0 10 -10 15 -27 14 -16 -1 -36 4 -45 9 -10 7 -53 10
-100 9 l-83 -3 80 20 c44 11 124 34 179 51 81 25 100 28 107 17 5 -8 7 -20 4
-26 -2 -7 4 -17 15 -23 25 -14 27 -13 33 11 5 17 2 20 -14 16 -15 -4 -19 -1
-17 11 2 9 11 16 21 16 9 -1 15 2 12 6 -3 5 6 25 20 46 14 20 25 44 25 52 0 8
8 29 19 46 10 17 26 56 36 86 9 30 19 62 22 70 3 8 6 43 7 78 2 42 7 67 17 74
11 8 11 9 -3 4 -11 -3 -22 2 -28 14 -6 11 -8 20 -4 20 4 0 -1 9 -10 19 -10 11
-15 25 -11 30 3 6 0 14 -9 17 -17 6 -10 34 8 34 7 0 21 7 32 16 18 15 18 15
-2 5 -18 -9 -25 -7 -38 14 -23 35 -51 32 -66 -7 -26 -70 -37 -86 -118 -169
-68 -70 -98 -93 -153 -117 -38 -17 -69 -28 -69 -24 0 9 52 62 125 127 27 25
45 45 40 45 -6 0 -33 -20 -61 -44 -46 -40 -96 -63 -174 -80 -38 -8 -56 25 -28
50 47 43 61 105 29 126 -19 12 -19 12 0 39 17 24 23 27 47 18 16 -5 43 -23 61
-39 28 -27 39 -30 94 -30 38 0 71 6 83 14 11 8 31 16 44 18 19 2 29 14 44 53
31 82 37 92 62 106 13 7 24 17 24 23 0 6 4 17 9 25 8 12 15 9 39 -17 17 -18
35 -32 40 -32 27 0 25 73 -2 116 -18 26 -17 26 39 44 49 16 115 56 115 71 0 5
6 7 13 3 6 -4 9 -4 5 1 -13 14 33 89 78 129 24 21 59 65 77 97 19 33 36 56 40
53 3 -3 3 2 1 13 -7 26 13 76 28 67 6 -4 8 -3 5 3 -5 8 14 58 44 115 5 10 9
29 9 42 0 35 -58 50 -159 41 -82 -7 -241 -46 -287 -70 -16 -8 -34 -15 -40 -15
-6 0 -33 -12 -59 -26 -48 -25 -49 -25 -74 -7 -14 10 -43 27 -64 38 -51 27 -67
46 -71 86 -2 19 -8 45 -14 59 -5 14 -15 48 -22 75 -21 88 -21 86 0 75 25 -13
30 -13 24 4 -3 8 -18 16 -33 19 -15 3 -33 16 -39 29 -17 30 -121 85 -136 71z
m-126 -320 c0 -21 -36 -70 -45 -62 -5 6 32 79 41 79 2 0 4 -8 4 -17z m-730
-78 c0 -15 25 -21 33 -7 2 4 2 2 1 -5 -2 -6 4 -17 12 -23 12 -11 13 -8 8 19
-4 18 -2 31 4 31 17 0 33 -27 27 -46 -3 -11 1 -6 8 10 9 18 17 25 21 17 4 -6
12 -8 18 -5 7 4 8 -4 3 -25 -4 -20 -3 -31 4 -31 6 0 11 -13 11 -29 0 -32 30
-61 63 -61 15 0 16 3 7 20 -11 21 -46 29 -35 8 4 -7 -1 -4 -9 6 -18 22 -22 96
-6 96 6 0 11 -12 11 -27 1 -17 3 -21 6 -10 6 21 17 22 37 1 9 -8 16 -13 16
-10 0 13 44 -31 66 -66 32 -50 31 -81 -3 -108 l-27 -21 -26 30 c-30 36 -129
111 -147 111 -7 0 -10 6 -7 13 6 16 -35 37 -62 33 -11 -2 -18 -11 -18 -20 2
-13 -1 -14 -11 -6 -11 9 -36 15 -77 19 -5 1 -8 6 -8 12 0 8 5 8 15 -1 18 -15
20 1 3 19 -11 10 -9 11 5 5 16 -6 17 -3 11 22 -7 27 -6 28 11 14 11 -9 16 -10
11 -2 -4 7 -2 12 4 12 6 0 8 5 5 10 -3 6 -1 10 4 10 6 0 11 -7 11 -15z m1413
-69 c11 -12 17 -12 28 -3 11 10 11 9 1 -5 -22 -28 5 -30 27 -2 16 20 21 23 21
10 0 -11 5 -14 12 -10 8 5 9 2 5 -9 -8 -21 6 -22 22 -3 6 8 20 16 31 19 19 5
19 3 -3 -23 -13 -18 -28 -27 -37 -23 -8 3 -29 7 -45 8 -17 0 -36 5 -43 9 -7 4
-15 1 -18 -8 -3 -9 -14 -16 -23 -17 -13 0 -12 -2 3 -8 16 -6 13 -10 -23 -25
-24 -9 -57 -27 -75 -40 -17 -13 -40 -26 -51 -30 -15 -6 -16 -9 -6 -15 10 -7 4
-13 -22 -26 -22 -10 -34 -22 -31 -30 3 -7 1 -23 -6 -34 -9 -17 -8 -21 4 -21 8
0 17 -4 21 -10 3 -5 -7 -5 -25 1 -16 6 -27 15 -24 21 3 5 -6 27 -20 48 -32 48
-32 53 -3 83 12 14 32 37 45 52 13 16 39 37 59 47 l36 19 -6 -23 c-5 -21 -4
-21 17 6 13 16 29 25 35 22 6 -4 11 -3 11 3 0 5 11 8 25 6 16 -1 25 3 25 11 0
18 15 18 33 0z m-1504 -115 c11 -7 10 -11 -4 -19 -17 -9 -17 -10 4 -17 11 -3
19 -11 16 -16 -4 -5 -1 -9 4 -9 6 0 10 -10 9 -23 -1 -14 -8 -23 -20 -23 -10 0
-18 4 -18 8 0 4 -6 8 -14 8 -19 0 -28 43 -16 74 10 28 17 31 39 17z m-454
-131 c3 -5 -1 -10 -9 -10 -8 0 -18 5 -21 10 -3 6 1 10 9 10 8 0 18 -4 21 -10z
m460 -120 c3 -5 -1 -10 -9 -10 -9 0 -16 5 -16 10 0 6 4 10 9 10 6 0 13 -4 16
-10z m1596 -36 c16 -19 9 -25 -40 -31 -34 -5 -40 -3 -36 10 4 8 2 18 -4 22
-22 13 -10 20 29 17 21 -2 45 -10 51 -18z m-2101 -29 c7 -9 8 -15 2 -15 -5 0
-12 7 -16 15 -3 8 -4 15 -2 15 2 0 9 -7 16 -15z m1030 -95 c11 0 40 -29 40
-39 0 -11 -56 -22 -74 -15 -21 8 -28 34 -15 51 7 8 19 11 26 8 8 -3 18 -5 23
-5z m-1012 -40 c10 -16 10 -20 0 -20 -15 1 -48 24 -48 34 0 15 36 4 48 -14z
m1584 1 c9 -11 13 -22 10 -26 -4 -4 -7 -12 -7 -18 0 -11 -34 -24 -67 -26 -9
-1 -24 6 -32 15 -14 14 -14 18 -1 45 12 23 22 29 48 29 20 0 39 -8 49 -19z
m-898 -133 c-4 -29 -8 -55 -10 -57 -2 -2 1 -12 7 -22 6 -13 21 -19 44 -19 18
0 46 -5 62 -11 46 -18 143 -13 193 10 50 23 95 27 106 10 3 -6 0 -16 -7 -21
-11 -7 -11 -11 -2 -14 8 -4 10 -16 7 -33 -4 -17 1 -41 11 -62 12 -23 14 -34 6
-37 -6 -2 -11 -11 -11 -19 0 -10 -6 -13 -16 -9 -8 3 -12 2 -9 -4 3 -6 -1 -10
-9 -10 -21 0 -110 34 -127 49 -69 57 -103 81 -115 81 -20 0 -17 -23 6 -48 11
-12 20 -24 20 -26 0 -11 72 -100 96 -118 19 -15 28 -17 38 -9 21 18 48 -14 44
-52 -3 -26 0 -31 25 -34 15 -2 27 1 27 7 0 5 9 10 21 10 11 0 17 5 14 10 -3 6
-2 10 4 10 5 0 13 -9 16 -21 6 -19 8 -19 24 -5 10 9 32 16 49 16 17 0 33 4 36
9 4 5 24 12 45 16 26 4 45 15 56 31 23 36 35 29 35 -21 0 -53 -38 -103 -104
-138 -60 -32 -183 -31 -246 1 -42 22 -90 63 -90 77 0 3 -9 16 -21 28 -12 12
-24 29 -27 39 -4 9 -38 51 -77 94 -105 117 -155 197 -155 250 0 45 17 94 32
94 5 0 6 -24 2 -52z m-474 -142 c-4 -4 -16 -4 -26 2 -16 9 -14 10 8 9 15 -1
23 -6 18 -11z m227 -2 c-3 -3 -12 -4 -19 -1 -8 3 -5 6 6 6 11 1 17 -2 13 -5z
m-224 -31 c-3 -7 -12 -13 -20 -13 -8 0 -12 4 -9 9 4 5 0 12 -6 14 -7 3 -1 5
13 4 17 -1 25 -6 22 -14z m275 2 c3 -3 1 -10 -5 -16 -11 -11 -56 2 -67 19 -6
11 62 8 72 -3z m-97 -27 c0 -8 2 -9 5 -2 3 6 25 0 59 -15 51 -24 69 -41 45
-41 -5 0 -10 5 -10 10 0 6 -11 10 -24 10 -13 0 -26 5 -28 12 -3 7 -17 12 -33
13 -16 0 -30 6 -33 13 -2 6 1 12 7 12 6 0 11 -6 12 -12z m-167 -11 c-4 -12
-44 -22 -44 -11 0 4 30 18 47 23 1 1 0 -5 -3 -12z m-62 -15 c-7 -2 -12 -8 -12
-13 0 -6 5 -7 10 -4 6 3 21 -2 34 -12 19 -15 21 -21 10 -31 -17 -15 -32 -16
-17 -1 9 9 8 15 -3 26 -12 13 -16 12 -30 -1 -14 -15 -11 -20 9 -17 5 1 5 -3 2
-9 -5 -8 -12 -7 -23 3 -10 8 -23 12 -31 9 -9 -3 -11 0 -7 7 4 6 15 10 24 9 9
-2 17 4 18 12 3 37 5 41 16 34 9 -6 9 -9 0 -12z m278 -32 c0 -5 5 -10 11 -10
5 0 7 5 4 10 -3 6 -1 10 5 10 6 0 10 -7 8 -16 -2 -10 3 -19 11 -22 9 -3 11 0
6 8 -5 9 -4 11 4 6 6 -4 9 -12 6 -17 -4 -5 0 -9 7 -10 7 0 4 -4 -7 -9 -29 -13
-35 -12 -29 5 4 9 -3 16 -20 21 -25 6 -38 34 -16 34 6 0 10 -4 10 -10z m130
-18 c0 -4 -9 -13 -20 -20 -16 -10 -20 -10 -20 2 0 8 6 17 13 19 19 8 27 8 27
-1z m-540 -22 c0 -5 -4 -10 -9 -10 -6 0 -13 5 -16 10 -3 6 1 10 9 10 9 0 16
-4 16 -10z m420 0 c0 -5 -7 -10 -15 -10 -8 0 -15 5 -15 10 0 6 7 10 15 10 8 0
15 -4 15 -10z m-164 -26 c-3 -8 0 -14 7 -14 7 0 4 -5 -6 -11 -10 -6 -21 -9
-23 -6 -9 9 8 57 18 51 5 -3 7 -12 4 -20z m-298 2 c-2 -1 -12 -8 -22 -16 -18
-14 -19 -14 -7 8 7 12 17 20 22 16 6 -3 9 -7 7 -8z m245 -6 c-3 -11 -10 -20
-15 -20 -5 0 -6 5 -2 11 3 6 0 15 -7 20 -11 7 -9 9 8 9 16 0 20 -5 16 -20z
m327 -9 c0 -4 -8 -7 -19 -7 -11 0 -17 6 -14 13 5 12 33 7 33 -6z m-50 -11 c0
-5 -2 -10 -4 -10 -3 0 -8 5 -11 10 -3 6 -1 10 4 10 6 0 11 -4 11 -10z m-73
-22 c-3 -8 -6 -5 -6 6 -1 11 2 17 5 13 3 -3 4 -12 1 -19z m-355 -30 c-19 -19
-48 -17 -49 4 -1 9 1 17 5 17 21 -3 32 2 26 14 -4 6 1 4 12 -5 14 -14 15 -21
6 -30z m102 16 c5 -14 4 -15 -9 -4 -17 14 -19 20 -6 20 5 0 12 -7 15 -16z m11
-34 c-3 -5 -11 -10 -16 -10 -6 0 -7 5 -4 10 3 6 11 10 16 10 6 0 7 -4 4 -10z
m-51 -29 c19 -7 19 -8 1 -15 -12 -4 -24 -1 -34 9 -13 13 -13 15 -1 14 8 0 24
-4 34 -8z m-110 -36 c-4 -8 -14 -15 -23 -15 -14 1 -13 3 3 15 25 19 27 19 20
0z m26 -14 c0 -12 -20 -25 -27 -18 -7 7 6 27 18 27 5 0 9 -4 9 -9z m377 -31
c-13 -22 -23 -25 -32 -10 -3 6 1 10 9 10 9 0 15 3 15 8 -3 16 1 23 11 17 6 -4
5 -13 -3 -25z m138 3 c0 -12 4 -25 8 -29 14 -14 7 -26 -8 -14 -9 7 -14 20 -13
29 2 9 -3 22 -12 29 -13 11 -13 12 5 10 13 -2 20 -11 20 -25z m1180 -7 c-40
-53 -145 -132 -151 -114 0 2 -8 -3 -18 -11 -9 -8 -19 -11 -23 -7 -3 3 -16 0
-29 -8 -12 -8 -24 -12 -28 -9 -6 6 39 33 55 33 19 0 148 83 180 116 42 43 47
43 14 0z m-1503 2 c-6 -6 -16 -7 -22 -3 -9 6 -9 9 1 16 17 10 34 0 21 -13z
m298 -14 c0 -16 -9 -18 -30 -4 -13 9 -13 11 0 19 17 12 30 5 30 -15z m-532
-13 c-10 -13 -18 -17 -28 -11 -8 5 -12 10 -10 12 22 14 46 25 49 22 1 -1 -3
-12 -11 -23z m100 -11 c19 -30 4 -43 -21 -19 -16 15 -30 19 -52 14 -32 -6 -24
10 10 18 39 9 50 7 63 -13z m35 -6 c11 -14 16 -28 13 -31 -3 -4 -6 -1 -6 6 0
7 -4 10 -9 7 -4 -3 -13 6 -19 19 -15 32 -2 32 21 -1z m307 22 c0 -2 -7 -7 -16
-10 -8 -3 -12 -2 -9 4 6 10 25 14 25 6z m65 -16 c3 -5 -1 -10 -9 -10 -9 0 -16
5 -16 10 0 6 4 10 9 10 6 0 13 -4 16 -10z m-181 -30 c-6 -6 -10 -2 -11 12 -2
16 1 18 10 9 7 -7 8 -14 1 -21z m-24 10 c0 -5 -5 -10 -11 -10 -5 0 -7 5 -4 10
3 6 8 10 11 10 2 0 4 -4 4 -10z m-29 -12 c1 -7 1 -16 0 -20 0 -5 7 -8 17 -8
10 0 25 -9 35 -20 18 -22 33 -25 42 -10 3 5 12 7 20 3 11 -4 13 -1 9 11 -3 9
-13 16 -21 16 -8 0 -11 5 -8 10 3 6 -1 10 -9 10 -9 0 -16 4 -16 10 0 5 6 7 13
5 65 -23 71 -26 58 -34 -11 -7 -10 -11 5 -18 21 -10 29 -10 62 1 12 4 22 12
22 18 0 6 -6 6 -15 -2 -9 -7 -19 -9 -23 -5 -4 4 -1 10 6 12 6 3 12 10 12 17 0
12 17 14 69 8 7 -1 11 -8 8 -14 -7 -21 11 -58 29 -58 10 0 14 -5 10 -15 -3
-10 3 -17 20 -21 18 -5 22 -10 15 -17 -7 -7 -26 2 -61 32 -49 41 -75 45 -75
11 0 -8 -10 -19 -22 -26 -13 -6 -31 -19 -42 -28 -15 -13 -20 -14 -25 -4 -3 7
-3 3 0 -9 5 -24 -9 -32 -22 -12 -8 14 12 34 34 34 9 0 16 6 15 13 -2 6 4 12
12 12 8 0 15 5 15 11 0 6 -7 8 -16 5 -10 -4 -13 -2 -8 6 5 7 2 9 -9 5 -9 -3
-17 -1 -19 5 -3 7 -9 6 -18 -4 -17 -16 -60 -19 -60 -4 0 5 -8 2 -18 -7 -20
-19 -32 -22 -32 -9 0 5 10 14 23 19 21 10 21 11 3 19 -10 4 -27 2 -37 -4 -15
-10 -17 -9 -13 3 4 8 1 15 -5 15 -7 0 -17 5 -24 10 -7 6 -20 16 -30 23 -15 10
-11 12 28 15 31 2 45 -1 46 -10z m-206 -36 c13 -1 19 -22 6 -22 -5 0 -13 5
-16 10 -4 6 -10 8 -15 5 -4 -3 -11 2 -14 10 -4 12 -2 13 12 6 9 -5 21 -9 27
-9z m111 11 c-4 -5 -13 -8 -19 -8 -7 0 -11 -8 -11 -17 1 -10 -4 -14 -12 -11
-17 6 -17 10 -1 28 6 8 21 14 31 15 11 0 16 -3 12 -7z m274 -3 c0 -5 -4 -10
-10 -10 -5 0 -10 5 -10 10 0 6 5 10 10 10 6 0 10 -4 10 -10z m-482 -25 c-3 -3
-9 2 -12 12 -6 14 -5 15 5 6 7 -7 10 -15 7 -18z m247 15 c3 -6 -1 -7 -9 -4
-18 7 -21 14 -7 14 6 0 13 -4 16 -10z m1 -37 c-7 -7 -26 7 -26 19 0 6 6 6 15
-2 9 -7 13 -15 11 -17z m1200 -8 c-9 -10 -26 -14 -42 -11 -38 7 -39 13 -3 14
17 0 34 3 37 6 3 3 9 6 14 6 5 0 3 -7 -6 -15z m-861 -19 c8 4 15 1 15 -5 0 -6
-12 -11 -27 -11 -24 -1 -26 -2 -10 -11 9 -5 22 -7 27 -4 6 3 10 1 10 -4 0 -6
-12 -11 -26 -11 -14 0 -23 -4 -20 -8 3 -5 -4 -8 -15 -7 -11 1 -24 7 -29 14 -4
8 -13 11 -19 7 -7 -5 -9 -1 -5 8 6 16 17 20 42 17 6 -1 12 8 12 19 0 19 2 20
15 6 9 -8 22 -13 30 -10z m51 -34 c-3 -5 8 -9 25 -10 20 0 27 3 22 11 -4 7 5
4 20 -6 15 -10 33 -15 39 -11 7 5 8 3 3 -6 -6 -10 -4 -12 8 -7 10 3 17 2 17
-3 0 -6 -14 -10 -31 -10 -17 0 -28 4 -24 10 3 6 0 10 -8 10 -16 0 -30 -27 -21
-41 3 -5 13 -5 25 1 10 6 18 7 17 3 -1 -4 6 -20 16 -35 25 -38 16 -56 -28 -52
-20 1 -34 -2 -31 -7 4 -5 -2 -6 -11 -2 -11 4 -15 3 -11 -4 5 -7 -2 -10 -18 -8
-14 1 -28 -2 -31 -6 -3 -5 1 -9 8 -9 10 0 9 -3 -2 -9 -8 -6 -27 -7 -42 -4 -17
3 -28 1 -28 -5 0 -6 -11 0 -25 14 -27 27 -34 57 -11 48 8 -3 24 0 36 6 13 7
25 8 29 3 6 -8 56 -33 68 -33 3 0 0 7 -7 15 -10 12 -8 14 7 10 31 -5 47 9 30
27 -9 8 -15 30 -14 48 1 19 -3 35 -10 37 -7 3 -13 -2 -13 -11 0 -30 -25 -16
-26 14 -1 20 3 30 13 30 8 0 12 -4 9 -8z m-146 -32 c0 -5 -6 -10 -14 -10 -8 0
-18 5 -21 10 -3 6 3 10 14 10 12 0 21 -4 21 -10z m113 -19 c5 -21 -28 -37 -39
-20 -3 5 -2 9 3 8 19 -3 27 2 14 10 -7 5 -10 14 -7 20 9 15 22 6 29 -18z m386
4 c16 -8 31 -21 34 -29 4 -10 13 -13 23 -9 14 5 16 1 12 -25 -3 -20 -1 -29 6
-24 6 3 19 5 30 3 10 -1 22 3 27 10 6 10 13 7 28 -12 11 -13 20 -18 21 -11 0
19 14 14 29 -10 13 -21 13 -22 -2 -9 -14 11 -20 11 -33 1 -13 -11 -16 -10 -21
9 -4 14 -11 20 -20 17 -8 -3 -23 -6 -33 -6 -11 0 -19 -9 -22 -25 -3 -14 -1
-25 4 -25 5 0 6 -6 1 -12 -11 -19 -11 -72 1 -80 8 -5 7 -8 -1 -8 -6 0 -15 5
-18 10 -12 20 -35 10 -35 -15 0 -28 -27 -104 -45 -123 -14 -15 -45 -6 -45 14
0 8 7 14 15 14 8 0 15 5 15 10 0 16 -12 12 -38 -12 l-24 -23 7 28 c11 41 -9
33 -42 -15 -23 -34 -36 -44 -62 -46 -43 -4 -38 17 10 40 28 13 31 18 17 23
-26 10 -47 -1 -58 -30 -5 -14 -14 -25 -20 -25 -15 0 -12 8 19 48 36 47 47 77
25 68 -8 -3 -20 -6 -25 -6 -5 0 -9 -8 -9 -17 -1 -10 -11 -31 -24 -47 -20 -24
-26 -27 -45 -17 -22 12 -28 36 -11 46 6 3 10 -1 10 -9 0 -9 4 -16 9 -16 15 0
33 29 28 44 -3 8 1 20 9 27 8 6 13 17 12 24 -3 12 53 65 69 65 5 0 19 9 32 21
17 16 29 19 49 14 44 -11 72 -8 91 9 10 9 21 13 24 9 4 -3 7 -1 7 5 0 7 -11
12 -25 12 -18 0 -28 8 -36 28 -6 15 -15 35 -20 44 -16 32 -10 49 19 57 2 1 16
-6 31 -14z m-159 -45 c0 -3 -8 -6 -17 -6 -10 -1 -26 -4 -35 -9 -14 -5 -18 -2
-18 13 0 12 9 23 20 27 11 4 18 12 14 18 -3 7 4 1 15 -13 11 -14 21 -27 21
-30z m432 25 c14 -18 8 -26 -13 -20 -21 7 -21 6 -5 -16 20 -30 20 -40 -1 -32
-9 4 -14 2 -10 -3 3 -6 2 -16 -3 -24 -6 -10 -11 -4 -17 21 -5 19 -15 35 -21
35 -7 1 -16 2 -22 3 -18 2 -11 21 8 21 10 0 27 6 38 14 21 16 35 16 46 1z
m-707 -25 c3 -5 2 -10 -4 -10 -5 0 -13 5 -16 10 -3 6 -2 10 4 10 5 0 13 -4 16
-10z m58 -15 c-3 -9 -8 -14 -10 -11 -3 3 -2 9 2 15 9 16 15 13 8 -4z m194 -17
c-2 -7 3 -18 12 -25 22 -17 36 -16 22 1 -9 10 -8 15 3 19 10 4 13 -2 12 -24
-1 -29 -19 -39 -31 -18 -4 6 -13 8 -20 5 -7 -2 -18 1 -25 7 -10 9 -12 8 -7 -5
4 -10 2 -18 -3 -18 -17 0 -11 21 13 46 25 27 30 29 24 12z m-414 -29 c-6 -6
-17 -8 -24 -3 -9 5 -8 9 7 14 23 9 31 3 17 -11z m349 -42 c-2 -9 1 -17 6 -17
6 0 13 -8 16 -17 10 -26 -19 -43 -61 -36 -24 4 -34 3 -30 -4 4 -6 -3 -19 -14
-29 -20 -18 -20 -18 -14 11 7 27 6 28 -7 12 -13 -17 -14 -17 -15 2 -2 20 2 23
37 25 8 1 17 10 20 22 12 45 69 74 62 31z m-222 -12 c-7 -8 -9 -15 -5 -15 5 0
6 -2 3 -5 -3 -3 -17 1 -31 8 -32 16 -25 27 16 27 25 0 28 -2 17 -15z m640 3
c0 -7 -14 -14 -30 -15 -38 -3 -40 14 -2 20 15 2 28 5 30 6 1 0 2 -5 2 -11z
m-500 -10 c0 -7 -14 -21 -30 -30 -34 -19 -39 -42 -12 -57 14 -8 15 -12 3 -23
-11 -10 -14 -10 -18 0 -3 6 -11 12 -19 12 -8 0 -11 -6 -7 -17 6 -16 4 -16 -15
1 -12 10 -19 22 -17 26 3 4 -1 13 -9 19 -11 9 -15 9 -19 -1 -4 -9 -6 -10 -6
-1 -1 7 8 17 19 23 16 9 24 7 36 -5 8 -8 18 -15 21 -15 4 0 3 3 0 7 -4 3 1 12
11 20 14 12 14 14 1 10 -9 -3 -16 1 -16 9 0 11 8 13 29 9 17 -4 28 -2 28 4 0
6 -7 7 -17 4 -11 -4 -14 -3 -9 5 10 16 46 15 46 0z m547 -4 c-3 -3 -12 -4 -19
-1 -8 3 -5 6 6 6 11 1 17 -2 13 -5z m-62 -32 c-3 -3 -11 0 -18 7 -9 10 -8 11
6 5 10 -3 15 -9 12 -12z m35 -26 c0 -2 3 -13 7 -23 6 -16 5 -16 -10 -5 -9 8
-21 11 -27 7 -5 -3 -10 1 -10 9 0 9 9 16 20 16 11 0 20 -2 20 -4z m150 -29 c0
-18 -2 -19 -10 -7 -13 20 -13 43 0 35 6 -3 10 -16 10 -28z m-160 -27 c0 -5 -9
-10 -20 -10 -11 0 -20 5 -20 10 0 6 9 10 20 10 11 0 20 -4 20 -10z m55 -19 c7
-13 -61 -32 -83 -24 -11 5 -4 10 24 19 51 16 52 16 59 5z m-105 -21 c0 -5 -2
-10 -4 -10 -3 0 -8 5 -11 10 -3 6 -1 10 4 10 6 0 11 -4 11 -10z m224 -56 c4
-10 1 -14 -6 -12 -15 5 -23 28 -10 28 5 0 13 -7 16 -16z m-504 -33 c0 -9 -41
-23 -49 -16 -3 4 28 20 47 24 1 1 2 -3 2 -8z"/>
<path d="M640 2091 c0 -5 7 -15 17 -22 15 -13 15 -12 4 9 -12 23 -21 28 -21
13z"/>
<path d="M710 2065 c0 -2 7 -8 15 -15 12 -10 15 -10 15 2 0 8 -7 15 -15 15 -8
0 -15 -1 -15 -2z"/>
<path d="M1977 2024 c-4 -4 -7 -14 -7 -23 0 -11 3 -12 11 -4 6 6 10 16 7 23
-2 6 -7 8 -11 4z"/>
<path d="M1980 1980 c-9 -6 -10 -10 -3 -10 6 0 15 5 18 10 8 12 4 12 -15 0z"/>
<path d="M1925 1950 c-16 -11 -25 -20 -20 -20 10 0 64 39 55 40 -3 0 -18 -9
-35 -20z"/>
<path d="M2098 1643 c7 -3 16 -2 19 1 4 3 -2 6 -13 5 -11 0 -14 -3 -6 -6z"/>
<path d="M830 540 c0 -5 5 -10 10 -10 6 0 10 5 10 10 0 6 -4 10 -10 10 -5 0
-10 -4 -10 -10z"/>
<path d="M740 390 c0 -5 6 -10 14 -10 8 0 18 5 21 10 3 6 -3 10 -14 10 -12 0
-21 -4 -21 -10z"/>
<path d="M1558 2523 c7 -3 16 -2 19 1 4 3 -2 6 -13 5 -11 0 -14 -3 -6 -6z"/>
<path d="M2060 2521 c0 -5 7 -12 16 -15 14 -5 15 -4 4 9 -14 17 -20 19 -20 6z"/>
<path d="M2130 2519 c0 -11 27 -12 34 -1 2 4 -4 9 -15 9 -10 1 -19 -2 -19 -8z"/>
<path d="M1042 2504 c-7 -8 -8 -14 -3 -14 10 0 25 19 20 25 -2 1 -10 -3 -17
-11z"/>
<path d="M2305 2499 c11 -7 29 -13 40 -14 11 -1 20 -7 20 -13 0 -14 43 -38 65
-36 8 0 26 2 39 2 27 2 22 14 -6 17 -10 1 -36 10 -58 20 -22 11 -47 20 -55 21
-8 0 -26 4 -40 8 -23 6 -23 6 -5 -5z"/>
<path d="M2430 2486 c0 -2 7 -7 16 -10 8 -3 12 -2 9 4 -6 10 -25 14 -25 6z"/>
<path d="M1930 2470 c0 -5 4 -10 9 -10 6 0 13 5 16 10 3 6 -1 10 -9 10 -9 0
-16 -4 -16 -10z"/>
<path d="M2492 2466 c10 -7 15 -16 12 -19 -3 -3 4 -3 15 0 21 5 21 6 -5 19
-33 18 -44 17 -22 0z"/>
<path d="M1768 2463 c7 -3 16 -2 19 1 4 3 -2 6 -13 5 -11 0 -14 -3 -6 -6z"/>
<path d="M2155 2460 c3 -5 11 -10 16 -10 6 0 7 5 4 10 -3 6 -11 10 -16 10 -6
0 -7 -4 -4 -10z"/>
<path d="M2205 2460 c3 -5 16 -10 28 -10 18 0 19 2 7 10 -20 13 -43 13 -35 0z"/>
<path d="M2406 2414 c-17 -12 -17 -14 -4 -14 9 0 20 5 23 11 11 17 2 18 -19 3z"/>
<path d="M2540 2420 c0 -5 -21 -11 -47 -12 -41 -1 -43 -2 -13 -5 19 -3 39 -9
45 -14 15 -15 23 -10 23 16 0 14 -2 25 -4 25 -2 0 -4 -4 -4 -10z"/>
<path d="M1725 2410 c3 -5 8 -10 11 -10 2 0 4 5 4 10 0 6 -5 10 -11 10 -5 0
-7 -4 -4 -10z"/>
<path d="M2560 2409 c0 -5 5 -7 10 -4 6 3 10 8 10 11 0 2 -4 4 -10 4 -5 0 -10
-5 -10 -11z"/>
<path d="M1947 2379 c7 -7 15 -10 18 -7 3 3 -2 9 -12 12 -14 6 -15 5 -6 -5z"/>
<path d="M2555 2360 c3 -5 13 -10 21 -10 8 0 12 5 9 10 -3 6 -13 10 -21 10 -8
0 -12 -4 -9 -10z"/>
<path d="M2150 2350 c0 -5 10 -10 23 -10 18 0 19 2 7 10 -19 13 -30 13 -30 0z"/>
<path d="M2480 2356 c0 -2 7 -9 15 -16 9 -7 15 -8 15 -2 0 5 -7 12 -15 16 -8
3 -15 4 -15 2z"/>
<path d="M1029 2333 c-13 -16 -12 -17 4 -4 9 7 17 15 17 17 0 8 -8 3 -21 -13z"/>
<path d="M2388 2343 c7 -3 16 -2 19 1 4 3 -2 6 -13 5 -11 0 -14 -3 -6 -6z"/>
<path d="M95 2320 c-3 -5 -1 -10 6 -10 8 0 8 -4 -1 -15 -9 -10 -9 -15 -1 -15
6 0 11 5 11 11 0 8 4 8 14 0 11 -9 15 -7 19 10 4 14 10 18 19 14 10 -6 10 -4
-1 6 -10 11 -15 11 -18 2 -3 -7 -11 -13 -19 -13 -9 0 -12 5 -9 10 3 6 2 10 -4
10 -5 0 -13 -4 -16 -10z"/>
<path d="M2183 2302 c15 -9 27 -20 27 -24 0 -5 6 -8 12 -8 7 0 1 11 -14 25
-15 14 -33 25 -40 25 -7 0 -1 -8 15 -18z"/>
<path d="M590 2300 c0 -5 5 -10 11 -10 5 0 7 5 4 10 -3 6 -8 10 -11 10 -2 0
-4 -4 -4 -10z"/>
<path d="M2323 2282 c20 -10 35 -21 32 -23 -2 -3 5 -6 16 -6 20 -2 20 -1 -2
18 -12 10 -28 19 -35 19 -7 0 -21 2 -31 5 -10 3 -1 -3 20 -13z"/>
<path d="M2270 2282 c0 -12 19 -26 26 -19 2 2 -2 10 -11 17 -9 8 -15 8 -15 2z"/>
<path d="M2430 2286 c0 -2 7 -7 16 -10 8 -3 12 -2 9 4 -6 10 -25 14 -25 6z"/>
<path d="M2565 2280 c3 -5 14 -10 23 -10 15 0 15 2 2 10 -20 13 -33 13 -25 0z"/>
<path d="M2470 2269 c0 -5 5 -7 10 -4 6 3 10 8 10 11 0 2 -4 4 -10 4 -5 0 -10
-5 -10 -11z"/>
<path d="M2510 2246 c0 -9 12 -21 26 -26 37 -15 44 -13 43 13 0 12 -3 16 -6
10 -2 -7 -9 -13 -14 -13 -6 0 -7 5 -4 10 3 6 2 10 -4 10 -5 0 -16 3 -25 6 -11
4 -16 1 -16 -10z"/>
<path d="M1748 2243 c7 -3 16 -2 19 1 4 3 -2 6 -13 5 -11 0 -14 -3 -6 -6z"/>
<path d="M2460 2237 c0 -7 15 -18 33 -25 43 -15 58 -15 31 1 -12 6 -31 18 -43
25 -17 10 -21 10 -21 -1z"/>
<path d="M13 2213 c-14 -5 -18 -53 -5 -53 4 1 31 9 60 19 l54 18 -33 12 c-33
12 -56 13 -76 4z"/>
<path d="M345 2210 c3 -5 8 -10 11 -10 2 0 4 5 4 10 0 6 -5 10 -11 10 -5 0 -7
-4 -4 -10z"/>
<path d="M2591 2204 c0 -11 3 -14 6 -6 3 7 2 16 -1 19 -3 4 -6 -2 -5 -13z"/>
<path d="M1857 2193 c-3 -5 5 -8 18 -8 13 0 21 3 18 8 -2 4 -10 7 -18 7 -8 0
-16 -3 -18 -7z"/>
<path d="M2545 2182 c-3 -9 -3 -13 0 -10 4 4 18 3 31 -2 31 -12 31 4 0 18 -20
9 -25 8 -31 -6z"/>
<path d="M165 2181 c-2 -5 4 -11 15 -14 11 -3 20 -2 20 3 0 12 -28 21 -35 11z"/>
<path d="M1781 2154 c0 -11 3 -14 6 -6 3 7 2 16 -1 19 -3 4 -6 -2 -5 -13z"/>
<path d="M1901 2154 c0 -11 3 -14 6 -6 3 7 2 16 -1 19 -3 4 -6 -2 -5 -13z"/>
<path d="M2088 2163 c7 -3 16 -2 19 1 4 3 -2 6 -13 5 -11 0 -14 -3 -6 -6z"/>
<path d="M300 2139 c0 -5 5 -7 10 -4 6 3 10 8 10 11 0 2 -4 4 -10 4 -5 0 -10
-5 -10 -11z"/>
<path d="M173 2133 c-26 -10 -12 -19 22 -15 21 3 35 0 35 -7 0 -6 -3 -10 -7
-9 -18 5 -93 -13 -88 -21 3 -5 -1 -15 -8 -23 -14 -13 -15 -58 -2 -98 7 -22 10
-23 96 -17 76 6 149 26 149 42 0 12 -24 55 -31 55 -5 0 -13 9 -19 20 -9 16 -8
19 7 13 29 -11 -20 32 -57 51 -32 16 -72 20 -97 9z"/>
<path d="M350 2110 c0 -5 5 -10 11 -10 5 0 7 5 4 10 -3 6 -8 10 -11 10 -2 0
-4 -4 -4 -10z"/>
<path d="M998 2093 c7 -3 16 -2 19 1 4 3 -2 6 -13 5 -11 0 -14 -3 -6 -6z"/>
<path d="M2520 2036 c0 -8 -7 -19 -16 -24 -9 -5 -13 -12 -8 -15 5 -3 17 6 27
18 10 15 13 26 7 30 -5 3 -10 -1 -10 -9z"/>
<path d="M2457 2025 c2 -7 13 -11 24 -8 25 7 24 10 -5 15 -16 3 -23 1 -19 -7z"/>
<path d="M2470 1960 c20 -13 33 -13 25 0 -3 6 -14 10 -23 10 -15 0 -15 -2 -2
-10z"/>
<path d="M2554 1945 c-19 -14 -18 -14 4 -15 13 0 22 6 22 15 0 19 -1 19 -26 0z"/>
<path d="M2505 1901 c13 -13 67 -23 60 -10 -4 5 0 9 9 9 8 0 17 -5 19 -10 3
-6 4 -5 3 2 -2 8 -22 14 -52 16 -33 2 -46 0 -39 -7z"/>
<path d="M56 1891 c-9 -15 53 -36 67 -22 8 8 8 11 -1 11 -20 0 -26 2 -44 11
-10 5 -19 5 -22 0z"/>
<path d="M300 1710 c0 -12 28 -25 36 -17 3 3 -4 10 -15 17 -15 7 -21 7 -21 0z"/>
<path d="M278 1513 c7 -3 16 -2 19 1 4 3 -2 6 -13 5 -11 0 -14 -3 -6 -6z"/>
<path d="M2135 1510 c3 -5 8 -10 11 -10 2 0 4 5 4 10 0 6 -5 10 -11 10 -5 0
-7 -4 -4 -10z"/>
<path d="M525 1500 c3 -5 8 -10 11 -10 2 0 4 5 4 10 0 6 -5 10 -11 10 -5 0 -7
-4 -4 -10z"/>
<path d="M316 1451 c-3 -5 2 -15 12 -22 15 -12 16 -12 5 2 -7 9 -10 19 -6 22
3 4 4 7 0 7 -3 0 -8 -4 -11 -9z"/>
<path d="M337 1408 c-15 -5 -25 -13 -22 -18 7 -12 43 0 49 16 3 8 4 14 3 13
-1 0 -14 -5 -30 -11z"/>
<path d="M531 1404 c10 -13 10 -17 -2 -26 -11 -8 -10 -9 4 -4 10 3 23 6 28 6
5 0 0 9 -11 20 -24 24 -38 27 -19 4z"/>
<path d="M455 1401 c-10 -17 12 -21 25 -6 10 12 10 15 -3 15 -9 0 -18 -4 -22
-9z"/>
<path d="M2120 1406 c0 -2 7 -7 16 -10 8 -3 12 -2 9 4 -6 10 -25 14 -25 6z"/>
<path d="M371 1386 c2 -2 15 -9 29 -15 24 -11 24 -11 6 3 -16 13 -49 24 -35
12z"/>
<path d="M305 1372 c2 -2 0 -15 -6 -29 -6 -16 -6 -22 1 -18 6 3 10 1 10 -5 0
-6 5 -8 10 -5 6 3 10 15 10 25 0 13 5 17 14 14 8 -3 17 -1 20 4 3 6 -10 12
-29 14 -19 2 -32 2 -30 0z"/>
<path d="M455 1360 c-4 -6 3 -10 14 -10 25 0 27 6 6 13 -8 4 -17 2 -20 -3z"/>
<path d="M1890 1355 c0 -9 5 -15 11 -13 6 2 11 8 11 13 0 5 -5 11 -11 13 -6 2
-11 -4 -11 -13z"/>
<path d="M506 1335 c4 -8 8 -15 10 -15 2 0 4 7 4 15 0 8 -4 15 -10 15 -5 0 -7
-7 -4 -15z"/>
<path d="M560 1340 c0 -5 6 -10 14 -10 8 0 16 -7 20 -15 3 -8 13 -15 23 -14
10 0 13 3 7 5 -7 3 -9 15 -6 27 5 19 3 20 -10 9 -11 -9 -18 -10 -23 -2 -8 13
-25 13 -25 0z"/>
<path d="M1970 1334 c0 -14 3 -14 15 -4 8 7 15 14 15 16 0 2 -7 4 -15 4 -8 0
-15 -7 -15 -16z"/>
<path d="M2100 1320 c-32 -18 -107 -50 -119 -50 -26 0 -3 -25 25 -26 43 -2
112 -35 117 -56 3 -10 13 -18 24 -18 29 0 94 20 89 28 -2 4 14 6 36 4 28 -3
39 -1 34 7 -4 6 -15 11 -26 11 -18 0 -133 53 -158 73 -9 7 -9 13 -1 23 13 16
2 17 -21 4z m-21 -63 c0 -9 -2 -9 -5 0 -3 7 -13 9 -22 6 -14 -4 -14 -3 -2 5
16 12 30 7 29 -11z m47 -10 c6 2 14 -4 18 -13 5 -14 4 -15 -9 -4 -8 7 -15 9
-15 5 0 -4 -7 -2 -15 5 -8 7 -15 18 -15 24 0 6 6 4 13 -5 7 -9 17 -14 23 -12z
m54 -28 c0 -6 -4 -7 -10 -4 -5 3 -10 11 -10 16 0 6 5 7 10 4 6 -3 10 -11 10
-16z"/>
<path d="M518 1303 c6 -2 18 -2 25 0 6 3 1 5 -13 5 -14 0 -19 -2 -12 -5z"/>
<path d="M457 1291 c-17 -6 -17 -8 2 -25 21 -19 21 -19 21 7 0 15 -1 27 -2 26
-2 0 -11 -4 -21 -8z"/>
<path d="M370 1235 c7 -9 15 -13 17 -11 7 7 -7 26 -19 26 -6 0 -6 -6 2 -15z"/>
<path d="M380 1191 c-7 -13 -7 -22 0 -26 5 -3 10 3 10 14 0 10 6 22 13 24 9 4
9 6 0 6 -7 1 -17 -8 -23 -18z"/>
<path d="M2027 1139 c7 -7 15 -10 18 -7 3 3 -2 9 -12 12 -14 6 -15 5 -6 -5z"/>
<path d="M2298 1093 c7 -3 16 -2 19 1 4 3 -2 6 -13 5 -11 0 -14 -3 -6 -6z"/>
<path d="M393 1050 c-2 -27 23 -25 38 3 11 19 10 20 -3 10 -9 -8 -18 -9 -24
-3 -6 6 -10 3 -11 -10z"/>
<path d="M2090 1046 c0 -2 7 -9 15 -16 13 -11 14 -10 9 4 -5 14 -24 23 -24 12z"/>
<path d="M2033 953 c0 -7 4 -13 7 -13 4 0 12 6 18 13 8 10 6 13 -7 13 -10 0
-18 -6 -18 -13z"/>
<path d="M2378 953 c7 -3 16 -2 19 1 4 3 -2 6 -13 5 -11 0 -14 -3 -6 -6z"/>
<path d="M2440 956 c0 -2 7 -7 16 -10 8 -3 12 -2 9 4 -6 10 -25 14 -25 6z"/>
<path d="M352 910 c-8 -13 -8 -20 -2 -20 6 0 13 7 17 15 9 24 -1 27 -15 5z"/>
<path d="M533 923 c-15 -5 -17 -33 -3 -33 6 0 9 5 8 12 -2 7 2 12 9 13 6 0 14
3 17 6 7 7 -13 8 -31 2z"/>
<path d="M2390 890 c-13 -8 -12 -10 3 -10 9 0 17 5 17 10 0 12 -1 12 -20 0z"/>
<path d="M2293 840 c1 -11 7 -20 14 -20 15 0 15 2 7 24 -9 23 -23 20 -21 -4z"/>
<path d="M2360 821 c0 -7 -5 -9 -12 -5 -7 5 -8 3 -3 -5 5 -9 10 -10 18 -2 6 6
8 14 4 18 -4 3 -7 1 -7 -6z"/>
<path d="M2060 806 c0 -2 7 -7 16 -10 8 -3 12 -2 9 4 -6 10 -25 14 -25 6z"/>
<path d="M2285 790 c3 -5 8 -10 11 -10 2 0 4 5 4 10 0 6 -5 10 -11 10 -5 0 -7
-4 -4 -10z"/>
<path d="M2230 751 c0 -5 5 -13 10 -16 6 -3 10 -2 10 4 0 5 -4 13 -10 16 -5 3
-10 2 -10 -4z"/>
<path d="M2176 739 c8 -13 44 -31 44 -22 0 4 -11 13 -25 20 -14 6 -23 7 -19 2z"/>
<path d="M2147 679 c-9 -5 -22 -7 -27 -4 -6 3 -10 2 -10 -4 0 -19 17 -20 46 0
30 19 23 27 -9 8z"/>
<path d="M2 653 c2 -23 8 -28 30 -28 18 1 28 -4 28 -13 0 -12 3 -12 17 -1 15
12 16 12 10 -3 -6 -18 3 -24 16 -11 4 3 21 8 39 10 42 4 69 42 31 44 -10 0
-35 2 -55 4 -21 1 -35 -1 -32 -6 9 -16 -20 -10 -54 11 l-33 21 3 -28z"/>
<path d="M1988 664 c7 -13 24 -24 41 -26 17 -2 28 -1 25 4 -3 4 -12 8 -21 8
-9 0 -25 8 -36 18 -19 16 -20 16 -9 -4z"/>
<path d="M1937 630 c3 -11 9 -17 15 -14 5 3 4 12 -3 20 -16 19 -18 18 -12 -6z"/>
<path d="M1900 626 c0 -2 7 -9 15 -16 9 -7 15 -8 15 -2 0 5 -7 12 -15 16 -8 3
-15 4 -15 2z"/>
<path d="M2017 604 c6 -16 19 -18 27 -5 3 5 -3 11 -13 14 -14 3 -18 1 -14 -9z"/>
<path d="M320 599 c0 -5 9 -9 20 -9 11 0 20 2 20 4 0 2 -9 6 -20 9 -11 3 -20
1 -20 -4z"/>
<path d="M1785 599 c-4 -6 -5 -12 -2 -15 2 -3 7 2 10 11 7 17 1 20 -8 4z"/>
<path d="M0 586 c0 -8 4 -17 8 -20 4 -2 8 4 8 15 0 10 -4 19 -8 19 -4 0 -8 -6
-8 -14z"/>
<path d="M40 591 c0 -6 5 -11 10 -11 6 0 10 -5 10 -11 0 -6 -7 -9 -15 -5 -12
4 -13 2 -5 -13 5 -11 15 -21 22 -23 19 -7 58 3 58 14 0 5 -5 6 -12 2 -8 -5 -9
0 -6 14 4 15 1 22 -8 23 -23 2 -28 4 -41 12 -8 5 -13 4 -13 -2z"/>
<path d="M370 570 c-9 -16 -8 -18 5 -14 8 4 15 12 15 20 0 20 -7 17 -20 -6z"/>
<path d="M1972 580 c4 -17 -39 -22 -65 -8 -10 5 -21 7 -24 4 -3 -2 11 -12 32
-20 31 -13 41 -14 62 -3 22 12 23 15 8 27 -14 11 -16 11 -13 0z"/>
<path d="M182 536 c-7 -16 -8 -26 -2 -26 6 0 10 5 10 12 0 6 6 3 14 -7 13 -18
14 -18 26 6 12 22 12 23 -3 10 -15 -12 -18 -10 -25 9 -8 22 -8 22 -20 -4z"/>
<path d="M1705 550 c3 -5 8 -10 11 -10 2 0 4 5 4 10 0 6 -5 10 -11 10 -5 0 -7
-4 -4 -10z"/>
<path d="M140 546 c0 -2 7 -6 15 -10 8 -3 15 -1 15 4 0 6 -7 10 -15 10 -8 0
-15 -2 -15 -4z"/>
<path d="M260 530 c0 -5 5 -10 11 -10 5 0 7 5 4 10 -3 6 -8 10 -11 10 -2 0 -4
-4 -4 -10z"/>
<path d="M1591 524 c0 -11 3 -14 6 -6 3 7 2 16 -1 19 -3 4 -6 -2 -5 -13z"/>
<path d="M1895 530 c-3 -6 1 -7 9 -4 18 7 21 14 7 14 -6 0 -13 -4 -16 -10z"/>
<path d="M415 520 c4 -6 11 -8 16 -5 14 9 11 15 -7 15 -8 0 -12 -5 -9 -10z"/>
<path d="M1560 515 c0 -8 2 -15 4 -15 2 0 6 7 10 15 3 8 1 15 -4 15 -6 0 -10
-7 -10 -15z"/>
<path d="M1737 523 c-12 -12 -7 -23 11 -23 13 0 14 2 3 9 -11 7 -11 9 0 14 8
3 9 6 3 6 -6 1 -14 -2 -17 -6z"/>
<path d="M1860 506 c0 -2 7 -7 16 -10 8 -3 12 -2 9 4 -6 10 -25 14 -25 6z"/>
<path d="M2124 494 c-18 -14 -18 -15 4 -4 12 6 22 13 22 15 0 8 -5 6 -26 -11z"/>
<path d="M100 469 c12 -22 33 -25 49 -6 8 10 7 14 -2 15 -6 0 -22 3 -35 6 -19
4 -21 2 -12 -15z"/>
<path d="M1560 480 c0 -5 7 -7 15 -4 8 4 15 8 15 10 0 2 -7 4 -15 4 -8 0 -15
-4 -15 -10z"/>
<path d="M1764 474 c3 -9 6 -18 6 -20 0 -2 4 -4 9 -4 5 0 7 9 4 20 -3 11 -10
20 -15 20 -6 0 -7 -7 -4 -16z"/>
<path d="M179 475 c-1 -3 -2 -10 -3 -15 0 -6 -8 -15 -16 -20 -8 -5 -10 -10 -5
-10 18 0 32 15 32 33 0 16 -5 24 -8 12z"/>
<path d="M1620 465 c0 -8 4 -15 10 -15 5 0 7 7 4 15 -4 8 -8 15 -10 15 -2 0
-4 -7 -4 -15z"/>
<path d="M37 463 c-14 -13 -6 -18 29 -20 30 -1 33 1 23 13 -12 15 -41 19 -52
7z"/>
<path d="M247 463 c-14 -13 -7 -43 11 -43 14 0 14 2 3 9 -8 5 -11 16 -8 25 7
17 5 20 -6 9z"/>
<path d="M1684 449 c0 -12 10 -20 28 -24 15 -4 30 -10 33 -15 8 -13 35 0 35
17 0 8 -5 11 -10 8 -6 -4 -21 0 -33 7 -39 25 -53 27 -53 7z"/>
<path d="M1825 460 c-3 -6 1 -7 9 -4 18 7 21 14 7 14 -6 0 -13 -4 -16 -10z"/>
<path d="M295 441 c-3 -5 -2 -12 3 -15 5 -3 9 1 9 9 0 17 -3 19 -12 6z"/>
<path d="M2525 440 c3 -5 8 -10 11 -10 2 0 4 5 4 10 0 6 -5 10 -11 10 -5 0 -7
-4 -4 -10z"/>
<path d="M326 425 c4 -8 10 -12 15 -9 11 6 2 24 -11 24 -5 0 -7 -7 -4 -15z"/>
<path d="M1580 424 c0 -17 27 -37 42 -31 9 3 6 7 -7 13 -11 4 -23 12 -27 18
-5 8 -8 8 -8 0z"/>
<path d="M66 406 c8 -20 -14 -30 -32 -15 -12 9 -17 10 -27 0 -9 -10 -9 -11 4
-6 9 3 21 0 27 -8 18 -22 62 -10 62 17 0 17 -2 18 -10 6 -8 -13 -10 -12 -10 3
0 9 -4 17 -10 17 -5 0 -7 -6 -4 -14z"/>
<path d="M117 407 c-8 -21 28 -44 39 -25 4 7 3 8 -5 4 -7 -4 -14 2 -19 15 -7
19 -10 20 -15 6z"/>
<path d="M178 414 c-4 -4 3 -14 15 -24 26 -19 60 -34 53 -21 -3 4 7 14 22 21
24 12 25 14 8 18 -11 2 -25 -3 -32 -13 -10 -13 -17 -14 -32 -6 -11 6 -22 16
-24 22 -2 5 -7 7 -10 3z"/>
<path d="M210 409 c0 -5 5 -7 10 -4 6 3 10 8 10 11 0 2 -4 4 -10 4 -5 0 -10
-5 -10 -11z"/>
<path d="M1675 395 c0 -14 4 -24 9 -22 13 4 15 47 2 47 -6 0 -11 -11 -11 -25z"/>
<path d="M1715 400 c3 -5 11 -10 16 -10 6 0 7 5 4 10 -3 6 -11 10 -16 10 -6 0
-7 -4 -4 -10z"/>
<path d="M2105 400 c3 -5 11 -10 16 -10 6 0 7 5 4 10 -3 6 -11 10 -16 10 -6 0
-7 -4 -4 -10z"/>
<path d="M2235 400 c-3 -5 -1 -10 4 -10 6 0 11 5 11 10 0 6 -2 10 -4 10 -3 0
-8 -4 -11 -10z"/>
<path d="M377 393 c-4 -3 -7 -17 -7 -31 0 -21 2 -22 15 -12 18 15 20 34 3 24
-8 -5 -9 -2 -5 9 7 18 5 21 -6 10z"/>
<path d="M458 371 c13 -12 20 -25 16 -35 -8 -20 9 -21 25 -2 9 10 8 15 -4 20
-8 3 -15 12 -15 21 0 9 -9 15 -22 15 l-23 -1 23 -18z"/>
<path d="M1645 380 c-3 -5 -1 -10 4 -10 6 0 11 5 11 10 0 6 -2 10 -4 10 -3 0
-8 -4 -11 -10z"/>
<path d="M176 353 c-4 -9 -3 -19 0 -22 4 -3 9 0 11 7 3 6 9 12 14 12 6 0 7 -4
4 -10 -3 -5 1 -10 9 -10 24 0 19 15 -8 28 -20 9 -25 8 -30 -5z"/>
<path d="M280 355 c9 -10 9 -15 1 -15 -6 0 -11 -4 -11 -10 0 -5 8 -10 18 -10
10 0 22 -4 28 -10 5 -5 15 -6 24 0 12 7 11 10 -5 16 -11 4 -26 16 -33 26 -7
10 -18 18 -24 18 -7 0 -6 -6 2 -15z"/>
<path d="M97 353 c-11 -10 13 -32 29 -26 11 4 12 9 3 19 -13 15 -22 18 -32 7z"/>
<path d="M0 334 c0 -7 8 -10 20 -7 26 7 26 19 0 19 -11 0 -20 -6 -20 -12z"/>
<path d="M251 334 c0 -11 3 -14 6 -6 3 7 2 16 -1 19 -3 4 -6 -2 -5 -13z"/>
<path d="M405 340 c-3 -5 3 -10 14 -10 12 0 21 5 21 10 0 6 -6 10 -14 10 -8 0
-18 -4 -21 -10z"/>
<path d="M1570 340 c0 -5 4 -10 10 -10 5 0 7 -6 4 -14 -3 -8 5 -21 18 -30 31
-22 48 -20 21 3 -13 11 -23 29 -23 40 0 12 -6 21 -15 21 -8 0 -15 -4 -15 -10z"/>
<path d="M1860 325 c-14 -8 -20 -14 -14 -15 5 0 19 7 30 15 24 18 16 19 -16 0z"/>
<path d="M2227 309 c7 -7 15 -10 18 -7 3 3 -2 9 -12 12 -14 6 -15 5 -6 -5z"/>
<path d="M2467 309 c7 -7 15 -10 18 -7 3 3 -2 9 -12 12 -14 6 -15 5 -6 -5z"/>
<path d="M186 297 c3 -10 9 -15 12 -12 3 3 0 11 -7 18 -10 9 -11 8 -5 -6z"/>
<path d="M2544 291 c20 -22 26 -25 26 -13 0 4 -10 13 -22 21 -23 14 -23 14 -4
-8z"/>
<path d="M105 289 c-4 -6 -4 -13 0 -17 3 -3 10 0 14 7 5 8 14 10 21 6 9 -5 11
-4 6 3 -9 15 -33 15 -41 1z"/>
<path d="M360 289 c0 -5 5 -7 10 -4 6 3 10 8 10 11 0 2 -4 4 -10 4 -5 0 -10
-5 -10 -11z"/>
<path d="M511 294 c1 -23 15 -43 25 -36 8 5 5 13 -7 26 -11 11 -19 15 -18 10z"/>
<path d="M1940 298 c0 -2 11 -14 25 -26 25 -22 25 -22 25 -1 0 11 -4 17 -10
14 -6 -4 -17 -1 -25 5 -8 7 -15 10 -15 8z"/>
<path d="M15 279 c-4 -6 -4 -13 -1 -16 3 -4 6 -1 6 6 0 7 5 9 12 5 7 -4 8 -3
4 4 -9 15 -13 15 -21 1z"/>
<path d="M335 280 c-3 -5 -1 -10 4 -10 6 0 11 5 11 10 0 6 -2 10 -4 10 -3 0
-8 -4 -11 -10z"/>
<path d="M70 265 c-7 -9 -8 -15 -2 -15 5 0 12 7 16 15 3 8 4 15 2 15 -2 0 -9
-7 -16 -15z"/>
<path d="M1755 261 c-3 -5 -1 -12 4 -15 5 -3 11 1 15 9 6 16 -9 21 -19 6z"/>
<path d="M273 233 c9 -2 17 -8 17 -13 0 -5 7 -7 15 -4 25 10 17 19 -18 20 -17
1 -24 -1 -14 -3z"/>
<path d="M475 229 c-11 -17 1 -21 15 -4 8 9 8 15 2 15 -6 0 -14 -5 -17 -11z"/>
<path d="M170 220 c0 -5 5 -10 11 -10 5 0 7 5 4 10 -3 6 -8 10 -11 10 -2 0 -4
-4 -4 -10z"/>
<path d="M1780 220 c0 -5 5 -10 11 -10 5 0 7 5 4 10 -3 6 -8 10 -11 10 -2 0
-4 -4 -4 -10z"/>
<path d="M2460 220 c0 -5 7 -7 15 -4 8 4 15 8 15 10 0 2 -7 4 -15 4 -8 0 -15
-4 -15 -10z"/>
<path d="M438 213 c7 -3 16 -2 19 1 4 3 -2 6 -13 5 -11 0 -14 -3 -6 -6z"/>
<path d="M30 194 c0 -8 5 -12 10 -9 6 3 10 10 10 16 0 5 -4 9 -10 9 -5 0 -10
-7 -10 -16z"/>
<path d="M310 200 c0 -5 5 -10 11 -10 5 0 7 5 4 10 -3 6 -8 10 -11 10 -2 0 -4
-4 -4 -10z"/>
<path d="M378 198 c5 -5 16 -8 23 -6 8 3 3 7 -10 11 -17 4 -21 3 -13 -5z"/>
<path d="M60 193 c0 -19 21 -27 33 -13 9 10 9 11 -2 5 -8 -4 -17 -2 -22 6 -6
9 -9 10 -9 2z"/>
<path d="M1244 181 c0 -11 4 -17 8 -15 4 3 8 12 8 20 0 8 -4 14 -8 14 -4 0 -8
-9 -8 -19z"/>
<path d="M205 180 c3 -5 8 -10 11 -10 2 0 4 5 4 10 0 6 -5 10 -11 10 -5 0 -7
-4 -4 -10z"/>
<path d="M240 180 c-8 -5 -10 -10 -5 -10 6 0 17 5 25 10 8 5 11 10 5 10 -5 0
-17 -5 -25 -10z"/>
<path d="M1061 181 c-12 -8 -12 -12 2 -25 8 -9 20 -16 25 -16 16 0 24 33 10
42 -16 10 -20 10 -37 -1z"/>
<path d="M1200 180 c0 -5 5 -10 10 -10 6 0 10 5 10 10 0 6 -4 10 -10 10 -5 0
-10 -4 -10 -10z"/>
<path d="M1640 183 c0 -15 18 -35 23 -27 3 5 -1 15 -9 22 -8 7 -14 9 -14 5z"/>
<path d="M1900 180 c0 -5 5 -10 10 -10 6 0 10 5 10 10 0 6 -4 10 -10 10 -5 0
-10 -4 -10 -10z"/>
<path d="M2060 180 c0 -5 5 -10 11 -10 5 0 7 5 4 10 -3 6 -8 10 -11 10 -2 0
-4 -4 -4 -10z"/>
<path d="M1590 157 c-16 -13 -24 -51 -8 -41 5 3 18 -2 29 -12 27 -24 24 0 -3
27 -17 16 -18 20 -6 16 12 -4 15 -2 11 9 -6 17 -4 16 -23 1z"/>
<path d="M90 150 c-13 -8 -13 -10 2 -10 9 0 20 5 23 10 8 13 -5 13 -25 0z"/>
<path d="M278 153 c7 -3 16 -2 19 1 4 3 -2 6 -13 5 -11 0 -14 -3 -6 -6z"/>
<path d="M1960 151 c0 -5 7 -15 17 -22 15 -13 15 -12 4 9 -12 23 -21 28 -21
13z"/>
<path d="M412 141 c-13 -3 -23 -9 -23 -13 1 -5 1 -12 1 -17 0 -15 38 -1 45 16
7 20 5 21 -23 14z"/>
<path d="M220 125 c-7 -8 -17 -12 -23 -8 -6 3 -7 1 -3 -6 5 -8 12 -9 19 -3 7
5 19 11 27 14 9 3 10 7 3 11 -6 4 -16 0 -23 -8z"/>
<path d="M1245 130 c3 -5 8 -10 11 -10 2 0 4 5 4 10 0 6 -5 10 -11 10 -5 0 -7
-4 -4 -10z"/>
<path d="M1314 124 c-18 -14 -18 -15 4 -4 12 6 22 13 22 15 0 8 -5 6 -26 -11z"/>
<path d="M1753 133 c-15 -5 -18 -33 -4 -33 5 0 11 9 14 20 3 11 4 20 4 19 -1
0 -8 -3 -14 -6z"/>
<path d="M2357 125 c-4 -8 -2 -17 3 -20 6 -4 10 3 10 14 0 25 -6 27 -13 6z"/>
<path d="M510 119 c0 -5 5 -7 10 -4 6 3 10 8 10 11 0 2 -4 4 -10 4 -5 0 -10
-5 -10 -11z"/>
<path d="M655 120 c4 -6 11 -8 16 -5 14 9 11 15 -7 15 -8 0 -12 -5 -9 -10z"/>
<path d="M1086 121 c-3 -5 1 -12 10 -15 22 -8 25 -4 9 11 -8 7 -16 9 -19 4z"/>
<path d="M1707 123 c-4 -3 -7 -11 -7 -17 0 -6 5 -5 12 2 6 6 9 14 7 17 -3 3
-9 2 -12 -2z"/>
<path d="M599 113 c-22 -5 -13 -43 10 -42 10 0 11 2 4 6 -9 3 -10 10 -3 24 6
10 9 18 8 18 -2 -1 -10 -3 -19 -6z"/>
<path d="M915 110 c-3 -5 -1 -10 4 -10 6 0 11 5 11 10 0 6 -2 10 -4 10 -3 0
-8 -4 -11 -10z"/>
<path d="M482 98 c3 -7 15 -14 29 -16 24 -4 24 -3 4 12 -24 19 -38 20 -33 4z"/>
<path d="M847 99 c7 -7 15 -10 18 -7 3 3 -2 9 -12 12 -14 6 -15 5 -6 -5z"/>
<path d="M985 100 c-15 -6 -9 -8 22 -7 23 1 39 5 37 9 -6 10 -33 9 -59 -2z"/>
<path d="M120 91 c0 -17 18 -21 24 -6 3 9 0 15 -9 15 -8 0 -15 -4 -15 -9z"/>
<path d="M437 80 c3 -11 9 -20 14 -20 4 0 7 9 6 20 -1 11 -7 20 -13 20 -7 0
-10 -8 -7 -20z"/>
<path d="M1170 89 c0 -5 5 -7 10 -4 6 3 10 8 10 11 0 2 -4 4 -10 4 -5 0 -10
-5 -10 -11z"/>
<path d="M1880 96 c0 -2 9 -6 20 -9 11 -3 20 -1 20 4 0 5 -9 9 -20 9 -11 0
-20 -2 -20 -4z"/>
<path d="M2532 91 c-11 -7 -11 -9 0 -14 9 -3 15 1 15 9 0 8 -1 14 -1 14 -1 0
-7 -4 -14 -9z"/>
<path d="M907 79 c7 -7 15 -10 18 -7 3 3 -2 9 -12 12 -14 6 -15 5 -6 -5z"/>
<path d="M1473 75 c0 -8 4 -12 9 -9 5 3 6 10 3 15 -9 13 -12 11 -12 -6z"/>
<path d="M947 60 c3 -11 9 -20 14 -20 5 0 9 9 9 20 0 11 -6 20 -14 20 -9 0
-12 -7 -9 -20z"/>
<path d="M1428 64 c-16 -8 -28 -19 -28 -24 0 -16 17 -11 24 6 3 8 10 13 15 10
5 -3 11 1 15 9 6 18 8 18 -26 -1z"/>
<path d="M1170 61 c0 -6 4 -13 10 -16 6 -3 7 1 4 9 -7 18 -14 21 -14 7z"/>
<path d="M378 48 c9 -9 15 -9 24 0 9 9 7 12 -12 12 -19 0 -21 -3 -12 -12z"/>
<path d="M530 48 c0 -8 2 -9 37 -13 13 -1 20 2 16 10 -5 13 -53 15 -53 3z"/>
<path d="M1898 53 c7 -3 16 -2 19 1 4 3 -2 6 -13 5 -11 0 -14 -3 -6 -6z"/>
<path d="M1705 40 c-3 -5 1 -10 10 -10 9 0 13 5 10 10 -3 6 -8 10 -10 10 -2 0
-7 -4 -10 -10z"/>
<path d="M438 33 c6 -2 18 -2 25 0 6 3 1 5 -13 5 -14 0 -19 -2 -12 -5z"/>
<path d="M480 31 c0 -5 5 -13 10 -16 6 -3 10 -2 10 4 0 5 -4 13 -10 16 -5 3
-10 2 -10 -4z"/>
<path d="M989 23 c-13 -16 -12 -17 4 -4 9 7 17 15 17 17 0 8 -8 3 -21 -13z"/>
<path d="M1114 25 c10 -8 23 -12 28 -9 14 9 -2 24 -25 24 -21 -1 -21 -1 -3
-15z"/>
<path d="M1523 20 c-1 -12 4 -20 13 -20 12 0 12 4 4 20 -6 11 -12 20 -13 20
-2 0 -3 -9 -4 -20z"/>
<path d="M1005 10 c-3 -5 1 -10 9 -10 9 0 16 5 16 10 0 6 -4 10 -9 10 -6 0
-13 -4 -16 -10z"/>
<path d="M1708 3 c7 -3 16 -2 19 1 4 3 -2 6 -13 5 -11 0 -14 -3 -6 -6z"/>
</g>
</svg>
