<?xml version="1.0" standalone="no"?>
<!DOCTYPE svg PUBLIC "-//W3C//DTD SVG 20010904//EN"
 "http://www.w3.org/TR/2001/REC-SVG-20010904/DTD/svg10.dtd">
<svg version="1.0" xmlns="http://www.w3.org/2000/svg"
 width="1024.000000pt" height="1024.000000pt" viewBox="0 0 1024.000000 1024.000000"
 preserveAspectRatio="xMidYMid meet">
<metadata>
Created by potrace 1.14, written by Peter Selinger 2001-2017
</metadata>
<g transform="translate(0.000000,1024.000000) scale(0.100000,-0.100000)"
fill="#000000" stroke="none">
<path d="M5076 7598 c-8 -13 -20 -36 -28 -53 -7 -16 -15 -32 -18 -35 -3 -3
-33 -61 -66 -130 -34 -69 -133 -268 -219 -442 -86 -174 -157 -321 -158 -325 0
-4 -9 -17 -19 -27 -9 -10 -15 -23 -12 -28 3 -4 0 -8 -5 -8 -6 0 -10 -3 -9 -7
4 -15 -47 -113 -59 -113 -7 0 -10 -7 -7 -15 4 -8 1 -15 -5 -15 -6 0 -8 -7 -5
-15 4 -8 -1 -17 -9 -21 -9 -3 -13 -12 -11 -19 3 -7 0 -16 -7 -21 -8 -5 -10 -3
-4 7 8 12 6 12 -8 0 -11 -9 -17 -10 -17 -2 0 6 -7 11 -16 11 -9 0 -12 5 -8 12
5 7 3 8 -6 3 -10 -6 -10 -11 3 -20 9 -7 13 -15 9 -19 -4 -4 -2 -7 3 -6 29 6
35 0 23 -20 -7 -11 -17 -20 -22 -20 -4 0 -3 7 4 15 7 8 9 15 5 15 -4 0 -14 -8
-22 -17 -14 -17 -14 -17 -9 0 7 22 -10 57 -27 57 -8 0 -6 -4 3 -10 13 -9 13
-11 0 -21 -12 -9 -12 -10 4 -5 14 5 17 2 12 -10 -3 -8 -6 -19 -6 -22 0 -4 -5
0 -11 8 -9 13 -10 12 -5 -2 3 -10 1 -20 -4 -23 -11 -6 -13 3 -12 47 1 26 0 26
-19 7 -13 -13 -18 -27 -14 -42 6 -21 6 -22 -9 -3 -9 11 -16 15 -16 10 0 -6 5
-15 11 -21 7 -7 7 -13 1 -17 -6 -3 -13 3 -17 14 -5 16 -9 17 -20 7 -7 -6 -10
-16 -7 -21 3 -5 -2 -7 -11 -3 -12 4 -14 2 -10 -10 4 -11 3 -14 -6 -9 -7 5 -18
1 -25 -10 -13 -17 -14 -17 -27 4 -8 12 -18 22 -23 22 -5 0 -1 -9 9 -20 22 -25
9 -26 -19 -2 -21 17 -21 17 -3 -4 21 -25 23 -41 3 -25 -11 10 -16 8 -21 -9 -4
-12 -11 -17 -18 -13 -7 4 -6 -1 2 -10 7 -9 9 -17 3 -17 -16 0 -31 25 -23 39 5
7 12 11 17 9 5 -1 10 6 11 17 2 16 1 17 -5 4 -4 -9 -15 -15 -24 -13 -10 1 -21
-3 -25 -8 -4 -7 -1 -8 7 -3 9 5 10 2 5 -14 -4 -12 -2 -21 4 -21 6 0 8 -7 4
-16 -4 -11 -8 -12 -13 -4 -6 9 -9 9 -14 -1 -3 -8 -4 -4 -2 9 2 12 0 20 -5 16
-13 -8 -11 -25 7 -45 14 -16 21 -36 23 -66 1 -7 8 -10 19 -7 14 5 14 4 2 -4
-17 -13 -30 -6 -30 14 0 8 -4 14 -10 14 -13 0 -13 -6 1 -33 10 -21 10 -21 -5
-3 -9 11 -16 24 -16 29 0 4 -5 5 -11 2 -7 -5 -5 -15 6 -31 8 -13 11 -24 5 -24
-5 0 -10 4 -10 9 0 4 -10 8 -22 7 -24 -1 -45 -23 -33 -34 4 -4 10 -1 12 6 3 6
9 12 15 12 6 0 6 -6 -2 -15 -8 -9 -9 -15 -2 -15 6 0 14 5 17 10 3 6 11 10 18
10 6 0 2 -7 -11 -15 -17 -13 -26 -13 -43 -5 -11 7 -24 8 -27 4 -4 -4 -1 -9 6
-11 6 -3 12 -9 12 -15 0 -6 -6 -6 -15 2 -18 15 -20 0 -2 -20 10 -12 9 -12 -3
-3 -13 10 -21 6 -43 -23 -23 -28 -25 -34 -11 -34 10 0 15 -3 11 -6 -3 -4 -13
-4 -22 0 -14 5 -12 12 14 43 52 64 34 57 -34 -13 -61 -62 -85 -93 -50 -64 11
9 19 10 26 3 8 -8 7 -13 -2 -18 -8 -5 -10 -4 -5 3 4 7 3 12 -3 12 -5 0 -12 -4
-16 -9 -3 -5 -17 -8 -31 -5 -16 3 -23 1 -19 -6 3 -5 2 -10 -4 -10 -5 0 -9 9
-8 20 1 23 8 25 25 8 9 -9 12 -9 12 0 0 7 -4 12 -8 12 -5 0 -9 7 -9 15 0 8 5
11 10 8 6 -4 7 -1 2 7 -5 8 -4 11 3 6 6 -4 8 -14 5 -22 -5 -14 -3 -14 16 -3
20 13 29 30 14 28 -21 -3 -33 2 -27 12 5 8 9 8 14 -1 5 -9 9 -9 14 -1 6 10 -6
15 -27 12 -4 -1 -5 10 -1 23 3 13 1 27 -5 31 -6 3 -9 10 -7 14 3 4 -1 8 -9 8
-13 0 -13 -3 0 -17 8 -9 15 -23 15 -31 0 -9 -7 -5 -19 10 -14 19 -20 21 -26
10 -5 -8 -4 -11 0 -7 5 5 16 -4 25 -20 17 -27 17 -42 -1 -42 -5 0 -8 3 -8 8 5
28 -5 28 -32 0 -29 -32 -30 -32 -24 -8 l6 25 -15 -25 c-8 -14 -13 -33 -10 -43
3 -11 -1 -19 -13 -24 -10 -3 -26 -13 -35 -21 -10 -8 -24 -12 -33 -9 -8 4 -15
3 -15 -2 0 -4 -14 -7 -30 -6 -17 1 -33 -1 -35 -6 -3 -4 -23 -6 -44 -5 -22 0
-37 -2 -34 -6 2 -5 -8 -9 -24 -9 -29 -2 -41 -3 -108 -13 -22 -3 -58 -8 -80
-11 -22 -3 -65 -9 -95 -15 -30 -5 -79 -12 -109 -15 -30 -4 -63 -9 -75 -11 -11
-2 -38 -6 -61 -9 -22 -3 -51 -8 -65 -10 -14 -2 -50 -7 -80 -11 -30 -3 -57 -7
-60 -9 -3 -2 -30 -6 -60 -9 -30 -3 -66 -8 -80 -11 -26 -5 -71 -11 -155 -21
-89 -11 -120 -25 -123 -57 -3 -25 13 -45 126 -155 71 -70 249 -244 395 -387
146 -142 263 -264 260 -270 -4 -5 -3 -7 2 -3 12 11 98 -80 88 -94 -10 -16 -14
-42 -5 -33 4 4 7 12 7 18 0 7 7 12 15 12 8 0 15 -7 15 -15 0 -8 16 -24 35 -35
19 -11 35 -27 35 -35 1 -8 7 -14 15 -12 11 3 11 0 1 -12 -11 -13 -10 -17 3
-22 9 -3 13 -10 10 -15 -3 -5 -1 -9 5 -9 5 0 12 6 14 13 4 7 6 8 6 1 1 -6 -6
-17 -14 -24 -18 -15 -21 -37 -2 -23 19 15 49 24 42 13 -3 -6 -13 -10 -20 -10
-8 0 -19 -9 -25 -20 -8 -16 -7 -22 10 -32 25 -16 26 -30 3 -21 -16 6 -16 5 -4
-10 12 -16 12 -17 -5 -10 -17 6 -18 5 -4 -13 8 -10 10 -16 6 -12 -5 4 -16 2
-25 -4 -9 -7 -13 -8 -9 -4 4 5 2 16 -4 24 -14 16 -20 42 -10 41 20 -3 25 2 12
11 -13 8 -13 11 -1 22 11 11 13 11 6 -1 -5 -9 -4 -12 3 -7 18 11 14 29 -4 22
-14 -5 -15 -4 -5 8 8 10 9 16 1 21 -5 3 -10 -1 -10 -9 0 -10 -6 -13 -15 -10
-14 6 -13 8 2 20 17 13 17 14 1 8 -10 -3 -18 -1 -18 5 0 6 3 10 8 8 4 -1 7 2
7 8 0 5 -3 9 -7 8 -5 -2 -8 2 -8 7 0 6 4 10 8 10 4 0 8 11 8 24 0 14 -3 23 -7
20 -4 -2 -10 2 -13 8 -3 7 -3 -2 0 -21 4 -29 3 -32 -10 -22 -7 6 -12 22 -9 34
4 20 3 20 -7 4 -9 -15 -8 -22 4 -36 20 -22 21 -38 1 -21 -9 7 -15 8 -15 2 0
-5 7 -13 16 -16 16 -6 16 -8 0 -24 -21 -24 -20 -34 2 -31 30 3 46 -1 38 -8 -7
-8 -11 -9 -37 -12 -6 0 -9 -7 -6 -15 3 -7 0 -19 -6 -26 -8 -9 -9 -11 -1 -7 7
4 17 0 24 -8 9 -11 7 -20 -10 -43 -18 -24 -20 -33 -11 -48 11 -18 12 -17 6 2
-3 13 2 30 15 45 l20 24 19 -22 c12 -15 21 -19 28 -12 7 7 17 7 31 -2 18 -11
19 -14 5 -24 -11 -9 -13 -14 -5 -19 7 -4 12 -2 12 3 0 6 6 11 13 11 6 -1 1
-10 -12 -20 -17 -15 -19 -20 -8 -20 9 0 19 -5 23 -12 5 -8 2 -9 -12 -4 -52 21
-50 21 -36 3 16 -19 8 -39 -13 -31 -8 4 -12 11 -8 18 4 6 9 20 10 31 3 16 1
17 -7 5 -8 -11 -9 -8 -6 13 3 18 1 25 -6 21 -6 -4 -8 -3 -5 3 9 14 -19 37 -33
28 -7 -4 -9 -18 -6 -31 4 -16 1 -26 -11 -33 -10 -6 -13 -10 -8 -10 6 0 19 6
29 14 26 20 32 19 32 -5 0 -11 -7 -22 -14 -25 -10 -4 -12 0 -8 12 5 15 4 15
-9 -1 -11 -15 -12 -23 -4 -30 8 -8 13 -7 16 2 3 6 9 12 14 12 11 0 8 -22 -4
-31 -12 -8 14 -49 30 -49 7 0 13 -4 13 -10 0 -13 -33 0 -43 17 -10 16 -27 17
-27 2 0 -5 5 -7 10 -4 13 8 13 -7 0 -23 -7 -8 -7 -9 1 -3 13 10 49 3 49 -11 0
-5 -4 -6 -10 -3 -5 3 -7 0 -4 -8 3 -8 1 -18 -5 -22 -7 -3 -11 3 -12 17 0 13
-3 17 -6 10 -3 -7 -2 -20 1 -28 5 -13 9 -14 21 -4 10 8 15 9 15 2 0 -6 -8 -16
-17 -21 -15 -9 -16 -10 -2 -11 9 0 22 -11 29 -25 15 -27 25 -31 36 -14 3 6 0
15 -7 20 -8 5 -12 9 -9 10 3 0 13 2 24 4 27 5 62 -14 75 -41 13 -28 26 -31 40
-6 6 9 11 12 11 6 0 -6 -7 -18 -16 -25 -14 -11 -20 -9 -43 19 -14 18 -30 32
-35 32 -5 0 -3 -7 4 -15 10 -12 10 -18 -1 -31 -12 -15 -11 -16 8 -10 18 6 26
1 40 -22 10 -16 22 -31 28 -33 13 -6 16 -31 4 -45 -7 -9 -3 -17 13 -28 19 -14
20 -16 5 -16 -10 0 -15 -5 -12 -10 4 -6 11 -8 16 -5 5 4 9 1 9 -5 0 -7 -8 -9
-22 -4 -23 7 -23 6 -4 -15 18 -19 20 -20 31 -4 11 15 15 15 29 4 9 -7 16 -10
16 -6 0 4 7 2 15 -5 8 -7 15 -18 15 -24 0 -6 -5 -3 -11 7 -6 9 -14 15 -19 12
-5 -3 -11 -1 -15 5 -3 5 -11 10 -17 10 -6 0 -3 -9 7 -20 10 -11 22 -17 26 -14
5 3 4 -6 -3 -20 -6 -14 -15 -26 -20 -26 -10 0 -6 -23 6 -32 6 -4 18 -2 29 4
10 5 21 7 25 4 9 -9 10 -46 1 -40 -4 2 -10 0 -14 -6 -5 -9 6 -14 26 -12 3 1 6
-5 6 -13 0 -7 -5 -11 -12 -9 -6 3 -11 -5 -12 -16 -1 -13 2 -18 10 -13 9 5 8 2
0 -9 -7 -8 -10 -17 -7 -21 3 -3 -2 -4 -12 -3 -10 2 -20 8 -22 14 -2 8 3 10 15
6 10 -3 14 -2 8 3 -12 10 -19 36 -7 29 5 -3 9 1 9 9 0 7 -8 12 -19 10 -10 -2
-18 0 -18 6 0 19 -3 24 -20 36 -19 13 -20 28 -7 51 11 17 -8 15 -23 -3 -9 -11
-9 -15 -1 -15 7 0 9 -5 6 -10 -4 -6 -10 -8 -14 -6 -4 3 -13 1 -21 -5 -11 -6
-12 -9 -2 -9 7 0 11 -4 8 -9 -9 -14 25 -23 39 -11 9 8 14 6 18 -5 4 -8 3 -14
-1 -14 -30 5 -35 -3 -12 -19 14 -9 27 -26 28 -36 3 -17 2 -18 -12 -7 -9 8 -18
12 -21 9 -2 -2 4 -12 15 -21 11 -9 20 -12 20 -6 0 5 5 7 10 4 8 -5 7 -12 -2
-23 -10 -12 -10 -14 0 -8 7 4 12 2 12 -4 0 -6 5 -8 10 -5 14 8 9 -67 -4 -77
-6 -4 -5 -12 3 -21 9 -11 9 -17 1 -22 -6 -4 -9 -13 -6 -21 3 -8 2 -14 -3 -14
-5 0 -9 -12 -8 -27 0 -16 -4 -44 -8 -63 -4 -19 -7 -43 -7 -53 0 -9 -2 -16 -6
-13 -4 2 -8 -12 -9 -32 -3 -67 -8 -102 -13 -102 -3 0 -5 -10 -6 -22 -2 -38
-24 -180 -30 -190 -2 -3 -6 -28 -9 -55 -6 -52 -12 -88 -15 -88 -1 0 -3 -11 -5
-25 -2 -14 -6 -41 -10 -60 -10 -55 -17 -104 -18 -122 -1 -10 -4 -18 -8 -18 -3
0 -5 -10 -4 -23 2 -13 -3 -40 -10 -60 -8 -22 -9 -40 -3 -43 5 -4 5 -10 0 -17
-13 -16 -23 -94 -16 -122 9 -37 42 -37 114 -1 73 36 339 176 580 303 287 152
291 154 309 141 14 -11 14 -11 3 3 -11 15 -9 18 15 28 15 6 47 22 71 36 48 28
58 31 46 12 -5 -7 -2 -6 6 3 8 8 32 25 52 37 35 20 38 21 48 5 9 -14 10 -13 4
7 -4 14 -2 21 4 17 5 -3 15 1 22 9 7 8 18 15 24 15 6 0 4 -5 -4 -11 -12 -8
-11 -9 5 -6 11 2 19 8 18 14 -2 7 10 10 32 8 23 -2 40 3 56 18 18 17 21 18 16
4 -4 -11 1 -22 16 -32 14 -10 16 -16 7 -14 -26 3 -41 -1 -36 -9 9 -16 66 -6
81 13 15 20 15 20 30 1 8 -10 12 -22 10 -27 -3 -4 -1 -10 5 -14 5 -3 11 0 11
7 1 7 2 18 4 23 1 6 3 14 3 19 1 5 9 3 17 -4 12 -10 19 -10 27 -2 7 7 17 12
22 12 6 0 4 -5 -6 -10 -10 -7 -14 -17 -10 -32 4 -17 2 -20 -12 -15 -12 5 -15
3 -11 -6 4 -6 -1 -3 -11 8 -14 16 -16 17 -11 3 4 -10 3 -17 -1 -17 -4 1 -9 0
-12 -1 -17 -6 -39 -7 -35 -1 2 4 -2 8 -10 8 -8 0 -11 -5 -7 -11 3 -6 -5 -4
-19 5 -19 13 -30 14 -43 7 -15 -8 -17 -8 -11 2 6 9 4 11 -5 5 -9 -6 -11 -4 -5
5 5 9 4 11 -3 6 -6 -4 -21 -2 -33 5 -24 12 -20 1 9 -33 8 -10 11 -18 6 -18
-16 0 -39 33 -40 58 -1 18 1 20 13 11 11 -10 12 -8 7 5 -8 20 -39 17 -39 -4 0
-8 -9 -15 -20 -16 -41 -2 -45 -5 -43 -28 1 -14 5 -23 9 -20 4 2 9 -2 12 -8 2
-7 8 -9 13 -5 5 5 1 13 -9 18 -9 6 -17 15 -17 21 0 6 10 4 24 -5 18 -12 26
-13 36 -4 10 10 12 8 6 -6 -3 -10 -6 -23 -6 -28 0 -6 -4 -8 -9 -4 -5 3 -12 2
-15 -3 -3 -5 2 -9 11 -9 9 0 18 9 21 19 2 10 9 18 14 18 5 0 7 -4 4 -9 -4 -5
5 -8 19 -6 14 1 28 -2 31 -6 3 -5 -3 -9 -13 -10 -11 0 -13 -3 -5 -6 18 -7 44
17 37 34 -3 9 0 13 7 10 7 -2 12 -14 11 -26 -2 -13 1 -20 7 -16 6 3 10 13 10
21 0 20 17 17 34 -7 l14 -21 12 22 c6 12 14 19 17 17 2 -3 0 -15 -6 -26 -11
-19 -10 -20 13 -11 17 6 26 5 30 -3 3 -9 5 -8 5 1 1 7 5 11 11 7 5 -3 7 -13 4
-23 -5 -14 -4 -14 4 -3 6 8 8 21 5 29 -5 11 -1 11 20 -3 15 -9 27 -22 27 -27
0 -6 -6 -5 -15 2 -9 7 -15 8 -15 2 0 -5 7 -13 16 -16 11 -4 18 1 21 14 7 25 9
25 40 0 28 -22 44 -18 42 8 -1 16 -2 16 -6 0 -5 -18 -33 -14 -33 5 0 6 3 7 7
4 3 -4 12 1 19 11 12 16 13 15 23 -8 8 -20 10 -21 10 -6 1 11 4 16 8 13 3 -4
12 -2 20 4 21 18 15 -6 -6 -25 -18 -17 -26 -60 -9 -50 4 3 4 12 1 21 -5 12 -3
14 7 8 9 -5 11 -4 6 3 -4 7 -3 12 3 12 5 0 13 9 16 20 4 11 11 18 16 14 6 -3
4 -15 -6 -30 -8 -13 -11 -24 -6 -24 5 0 11 5 13 12 5 15 91 15 96 0 2 -7 8
-12 14 -12 7 0 6 5 -1 14 -9 11 -6 17 15 31 25 16 26 16 19 -4 -4 -13 -2 -21
5 -21 6 0 9 3 6 8 -2 4 7 12 20 19 29 14 31 3 4 -22 -11 -10 -20 -23 -19 -29
0 -6 3 -6 6 2 2 6 10 9 16 5 7 -3 9 -3 5 2 -9 9 9 35 23 35 5 0 9 -6 9 -14 0
-20 12 -25 35 -15 18 9 18 9 -2 5 -13 -2 -23 0 -23 4 0 5 -3 17 -6 27 -7 17
-6 17 12 1 17 -17 19 -17 45 8 17 16 29 22 33 15 4 -6 2 -11 -4 -11 -6 0 -8
-5 -5 -10 11 -18 24 -11 20 10 -3 15 1 20 13 18 9 -2 16 3 15 10 -2 6 4 12 12
12 8 0 15 5 15 10 0 13 -17 13 -26 -1 -4 -8 -9 -7 -16 2 -8 11 -9 10 -4 -3 3
-10 1 -18 -4 -18 -6 0 -10 6 -10 14 0 8 -7 13 -15 12 -22 -3 -31 -16 -11 -16
9 0 14 -5 11 -10 -4 -7 -11 -7 -18 -2 -7 5 -20 8 -29 7 -12 -2 -15 2 -11 13 4
13 1 12 -11 -3 -10 -11 -14 -13 -10 -5 7 12 5 13 -8 3 -8 -7 -17 -12 -19 -10
-2 1 -3 0 -2 -2 5 -8 -18 -41 -29 -41 -7 0 -6 5 2 15 7 9 10 19 6 22 -10 11
-36 12 -36 2 0 -5 8 -9 17 -9 19 0 9 -13 -12 -16 -8 -1 -13 2 -9 7 3 5 0 9 -6
9 -7 0 -10 -7 -6 -17 5 -15 4 -15 -9 1 -11 14 -15 16 -15 5 0 -12 -2 -12 -10
1 -9 13 -10 13 -10 0 -1 -9 -6 -5 -15 10 l-15 25 6 -29 c5 -21 4 -27 -5 -22
-6 4 -8 12 -5 18 4 6 3 8 -3 5 -13 -8 -9 35 6 60 8 13 11 14 10 3 -3 -29 1
-41 11 -35 5 3 7 0 4 -9 -4 -9 0 -14 10 -12 20 3 33 16 16 16 -10 0 -8 4 4 13
9 7 16 17 14 22 -3 9 4 15 17 15 3 0 1 -9 -5 -19 -7 -13 -7 -22 0 -26 5 -3 10
1 10 9 0 8 5 18 11 22 8 4 9 -1 4 -17 -7 -23 -7 -23 11 -6 18 17 18 19 -6 38
-21 17 -22 19 -3 10 30 -15 37 -29 23 -46 -12 -15 0 -22 14 -8 3 4 12 8 19 9
7 1 20 5 30 9 12 5 17 2 17 -10 0 -9 4 -14 10 -10 5 3 7 12 4 19 -3 8 0 17 6
21 8 5 6 11 -6 19 -14 11 -15 14 -3 21 8 5 11 5 7 0 -4 -4 0 -14 10 -22 12
-10 14 -16 5 -19 -7 -3 -13 -10 -13 -15 0 -13 23 -6 37 11 6 8 15 12 19 7 4
-4 2 -7 -4 -7 -20 0 -13 -16 7 -17 28 -2 19 30 -10 37 -17 5 -23 12 -21 26 2
10 6 21 9 24 3 3 3 -5 0 -17 -3 -16 -1 -23 9 -23 8 0 26 -8 40 -17 24 -15 25
-15 22 2 -2 10 3 19 10 21 7 1 8 0 3 -2 -12 -6 -3 -34 11 -34 5 0 7 4 3 9 -11
19 17 22 43 5 15 -10 30 -17 35 -16 4 1 7 -3 7 -8 0 -5 3 -9 8 -9 20 3 32 -2
27 -12 -4 -6 0 -9 11 -7 13 2 19 -3 17 -16 -1 -12 2 -15 9 -8 11 11 48 4 48
-8 0 -6 20 -14 50 -20 3 -1 12 -7 20 -14 8 -7 30 -18 47 -26 18 -7 30 -17 26
-23 -3 -6 -1 -7 5 -3 7 4 31 -4 54 -17 24 -14 106 -57 183 -97 171 -89 277
-145 507 -266 97 -52 183 -94 192 -94 19 0 59 37 52 48 -2 4 -7 28 -10 52 -3
25 -17 110 -31 190 -15 80 -28 159 -30 175 -8 58 -37 220 -40 225 -1 3 -6 28
-9 55 -8 56 -12 84 -22 135 -7 41 -15 92 -19 135 -1 17 -6 37 -9 45 -3 8 -8
32 -9 52 -2 21 -6 41 -10 44 -4 4 -1 14 6 22 9 13 9 14 0 8 -7 -4 -13 -3 -13
1 0 5 6 15 13 22 10 11 10 13 0 7 -8 -4 -14 -2 -14 6 -1 7 -3 23 -4 36 -2 16
2 22 12 18 8 -3 11 -1 8 4 -3 6 -14 10 -23 10 -15 0 -15 2 -2 10 8 5 10 10 4
10 -21 0 -23 27 -4 43 17 14 20 14 32 -1 11 -13 11 -15 -3 -10 -28 11 -40 -6
-16 -21 12 -8 19 -10 15 -6 -4 5 7 19 25 32 22 17 26 24 13 21 -10 -2 -21 3
-24 11 -3 8 0 11 6 7 6 -4 20 2 32 14 11 11 20 17 20 13 0 -5 5 0 11 10 10 18
11 18 32 0 l21 -18 -19 26 c-18 24 -20 24 -37 7 -10 -10 -24 -18 -30 -18 -7 0
-2 9 12 20 14 11 18 18 10 15 -11 -4 -16 1 -17 16 -2 17 1 18 13 8 12 -10 18
-8 30 7 12 14 14 15 11 3 -3 -9 -2 -22 3 -28 5 -9 8 -3 8 14 0 14 -7 29 -14
32 -8 3 -11 9 -8 14 3 5 16 1 29 -8 12 -10 20 -22 17 -27 -3 -5 0 -6 6 -2 16
10 15 26 -2 26 -7 0 -19 7 -26 15 -7 8 -16 12 -21 9 -5 -3 -12 2 -15 10 -3 9
-11 13 -16 10 -6 -4 -5 -10 3 -16 11 -8 10 -9 -3 -5 -12 4 -16 1 -13 -14 3
-12 0 -17 -7 -13 -7 4 -8 3 -4 -4 4 -8 2 -10 -7 -6 -24 9 -32 -17 -11 -34 10
-8 12 -12 4 -8 -8 3 -23 9 -33 12 -19 7 -18 28 1 30 25 3 27 5 12 14 -20 13
-41 12 -37 -1 1 -6 -5 -14 -13 -16 -10 -3 -11 -2 -4 4 6 4 10 16 9 25 -3 14 1
15 22 7 33 -12 37 -11 23 6 -9 10 -9 15 -1 15 6 0 11 -5 11 -12 0 -15 15 0 15
15 1 7 -4 15 -9 19 -6 4 -7 10 -3 15 10 9 28 -18 20 -30 -3 -5 0 -7 8 -5 14 6
15 11 5 38 -7 19 10 48 21 36 4 -5 2 -11 -4 -13 -7 -3 -13 -9 -13 -15 0 -7 5
-6 14 1 10 9 15 8 19 -3 4 -10 1 -13 -9 -9 -18 7 -18 -4 1 -23 13 -14 15 -14
15 0 0 9 5 16 11 16 5 0 7 -5 4 -10 -9 -14 13 -40 34 -39 11 0 10 3 -6 11 -13
6 -23 15 -23 20 0 12 7 10 38 -8 l27 -16 -24 19 c-16 14 -20 22 -12 27 6 4 11
2 11 -3 0 -6 5 -11 11 -11 8 0 7 6 -2 16 -12 15 -11 16 9 10 15 -5 22 -3 22 5
0 7 -3 10 -6 6 -9 -9 -64 21 -64 36 0 7 3 8 8 2 9 -13 35 -19 28 -6 -3 5 1 15
10 22 13 11 15 9 9 -17 -5 -25 -4 -26 4 -6 13 28 3 55 -17 47 -12 -4 -13 -3
-2 10 7 8 15 13 19 11 4 -3 13 -1 20 3 10 7 11 13 1 31 -15 29 -6 57 15 40 8
-6 19 -9 24 -6 14 9 2 36 -15 36 -8 0 -14 5 -14 11 0 5 5 7 12 3 6 -4 8 -3 4
4 -3 6 -2 13 3 16 5 3 11 -3 14 -14 3 -11 11 -20 19 -19 10 0 10 2 1 6 -7 2
-13 9 -13 14 0 6 6 7 13 4 6 -4 3 0 -7 9 -10 8 -22 13 -27 11 -4 -3 -10 -1
-14 5 -6 10 4 13 40 11 16 -1 15 1 -5 10 -24 10 -24 11 -6 25 11 8 17 14 13
14 -4 0 3 10 15 22 13 13 27 22 31 20 5 -1 6 2 2 8 -3 6 -10 8 -15 5 -5 -3
-11 -1 -14 4 -4 5 6 14 21 20 l28 11 -30 -6 -30 -6 23 24 c12 14 22 28 22 32
0 5 -9 -2 -20 -15 -10 -13 -19 -19 -19 -14 0 14 20 39 44 54 20 12 9 11 -30
-5 -8 -3 -15 -1 -15 4 0 6 9 14 20 17 15 5 19 13 16 30 -5 27 15 39 35 22 11
-10 11 -9 0 6 -11 14 -11 17 -1 17 8 0 10 3 7 6 -4 4 -18 -1 -32 -10 -30 -20
-34 -3 -4 18 17 11 19 18 11 33 -6 10 -14 17 -19 15 -4 -2 -9 1 -11 6 -5 16
28 8 39 -9 5 -8 9 -9 9 -4 0 18 -18 38 -28 31 -6 -3 -13 -2 -17 4 -3 5 -1 10
6 10 6 0 18 8 26 18 12 14 14 14 10 1 -3 -9 -1 -22 4 -30 5 -10 8 -5 6 14 -1
15 -9 32 -17 38 -12 8 -12 12 -2 16 14 5 47 64 35 62 -20 -3 -27 2 -13 11 9 6
10 10 3 10 -16 0 -26 -17 -13 -25 5 -3 10 -11 10 -17 0 -7 -4 -7 -12 -1 -20
16 -46 12 -65 -10 -13 -15 -14 -18 -3 -13 8 4 6 0 -5 -10 -16 -14 -17 -16 -3
-11 10 4 17 3 17 -1 -1 -4 0 -9 1 -12 5 -13 6 -59 1 -55 -4 2 -7 -5 -7 -15 0
-10 3 -18 6 -18 13 2 39 -15 34 -23 -3 -5 -16 -2 -29 7 -23 15 -26 15 -54 -14
-28 -27 -31 -42 -9 -42 5 0 6 5 3 10 -3 6 -1 11 4 11 6 1 16 3 21 4 6 1 13 3
18 4 4 1 1 5 -7 10 -7 5 -9 11 -4 14 5 3 15 -3 22 -15 7 -11 8 -18 3 -14 -5 3
-9 -1 -9 -9 0 -8 3 -15 7 -15 4 0 7 -7 7 -15 0 -18 -9 -19 -26 -2 -10 8 -12 8
-7 0 3 -6 2 -14 -3 -18 -5 -3 -14 3 -20 12 -6 10 -11 14 -11 9 0 -6 -6 -1 -14
9 -16 22 -11 45 10 45 16 0 19 16 4 25 -5 3 -10 11 -10 18 0 6 6 3 13 -8 10
-12 16 -14 21 -7 4 7 2 12 -4 12 -6 0 -9 4 -6 9 4 5 0 12 -6 15 -9 4 -8 5 2 5
29 -2 41 1 36 10 -3 4 -17 7 -31 6 -14 -2 -25 1 -25 7 0 6 9 8 20 5 11 -3 25
2 32 10 11 14 10 15 -9 9 -12 -4 -24 -2 -28 3 -3 6 0 8 8 5 10 -3 14 2 12 18
-1 24 81 121 96 112 4 -2 11 1 15 7 4 8 3 9 -4 5 -17 -10 -15 3 3 20 8 9 20
12 26 8 8 -4 9 -3 5 4 -4 7 -2 12 5 12 7 0 10 3 6 6 -9 9 21 36 32 30 5 -3 8
2 7 11 0 9 5 18 13 21 10 3 12 0 8 -12 -4 -10 -3 -15 3 -11 6 4 9 12 8 20 -2
7 16 34 40 59 23 26 42 46 42 44 0 -2 78 74 174 167 95 94 247 242 337 329 90
88 170 167 177 177 8 12 9 25 3 42 -10 25 -30 31 -176 52 -23 3 -50 7 -60 9
-11 2 -45 7 -75 11 -30 3 -68 9 -85 11 -39 6 -70 11 -125 19 -25 4 -56 8 -70
10 -14 2 -74 11 -135 20 -60 9 -121 18 -135 21 -14 2 -50 7 -80 10 -30 4 -57
9 -60 13 -3 3 -27 7 -55 9 -27 2 -55 8 -61 13 -8 7 -14 6 -19 -1 -3 -6 -11 -8
-16 -4 -6 3 -25 8 -42 11 -18 3 -38 10 -46 16 -12 9 -13 9 -7 0 11 -20 -15
-16 -31 5 -8 9 -12 12 -8 5 4 -9 -6 -11 -37 -7 -24 3 -45 10 -46 15 -3 6 -9 5
-18 -2 -9 -7 -14 -8 -14 -1 0 11 -18 11 -36 -1 -15 -9 -24 2 -16 21 5 15 4 15
-11 3 -22 -17 -34 -7 -17 14 11 13 16 12 44 -8 34 -24 35 -24 46 -7 5 8 12 7
24 -5 15 -15 16 -15 13 4 -2 11 -7 24 -12 28 -4 5 -5 3 -2 -3 5 -8 -5 -11 -28
-11 -19 1 -37 7 -39 13 -3 9 3 11 20 8 17 -3 23 -1 19 6 -4 6 -12 10 -18 9
-25 -3 -38 1 -32 11 4 6 12 7 18 3 8 -4 7 -1 -1 9 -11 14 -10 18 5 27 10 6 14
10 8 11 -18 0 -38 -18 -31 -28 3 -6 2 -13 -3 -16 -13 -8 -23 26 -11 38 13 13
13 26 -1 26 -5 0 -8 -4 -4 -9 3 -6 -3 -15 -14 -21 -13 -7 -22 -7 -26 0 -4 6
-11 8 -16 5 -5 -4 -9 0 -9 9 0 8 4 16 10 18 5 2 0 14 -11 28 -12 14 -18 19
-14 13 3 -7 2 -13 -4 -13 -12 0 -33 35 -25 42 2 3 -20 16 -50 28 -53 23 -54
24 -39 47 14 21 14 23 -1 17 -9 -3 -14 -10 -11 -14 3 -4 -3 -14 -12 -21 -14
-12 -15 -11 -9 9 6 17 4 23 -6 21 -28 -3 -39 1 -32 14 5 7 0 6 -11 -3 -17 -14
-18 -13 -12 3 4 10 7 21 7 23 0 3 5 2 10 -1 6 -3 10 -1 10 4 0 14 -6 14 -40
-4 -35 -18 -41 -4 -8 17 17 11 19 16 8 23 -8 5 -11 4 -7 -2 4 -6 0 -13 -8 -17
-10 -4 -14 1 -12 16 1 13 -4 22 -15 23 -16 3 -23 -6 -19 -27 0 -5 -3 -8 -7 -8
-19 0 -20 14 -4 38 9 15 12 23 5 19 -6 -4 -13 -2 -15 5 -3 7 -7 5 -11 -6 -4
-11 -3 -15 4 -10 7 4 10 1 7 -7 -5 -14 -25 -19 -41 -12 -4 3 0 11 9 20 21 21
3 39 -24 24 -15 -8 -23 -7 -31 3 -6 7 -8 15 -6 18 3 3 -7 13 -22 22 l-28 17
24 -20 c13 -12 20 -21 16 -21 -4 0 -2 -7 5 -15 7 -8 9 -15 4 -15 -11 1 -51 30
-44 33 12 5 -30 49 -43 44 -18 -7 -60 21 -52 34 4 5 1 9 -5 9 -7 0 -9 -8 -5
-20 9 -28 -9 -25 -25 5 -7 14 -20 25 -29 25 -11 0 -9 -4 7 -16 12 -8 22 -20
22 -26 0 -6 -7 -5 -17 3 -9 8 -26 13 -37 11 -17 -2 -18 -1 -6 7 13 9 12 11 -3
11 -10 0 -16 4 -13 9 3 5 -1 14 -8 21 -8 6 -18 25 -21 41 -4 16 -11 29 -16 29
-6 0 -8 4 -4 9 3 5 -3 17 -12 27 -10 10 -16 18 -15 18 5 1 -21 59 -28 66 -14
12 -38 75 -33 84 3 5 1 6 -5 2 -7 -4 -14 4 -18 21 -4 15 -11 32 -16 38 -8 9
-100 193 -103 205 0 3 -81 166 -178 363 -173 348 -179 357 -207 357 -20 0 -34
-8 -44 -22z m803 -1314 c14 -1 31 -2 37 -3 17 -2 25 -29 12 -37 -7 -5 -8 -2
-3 6 6 9 4 11 -5 5 -8 -5 -11 -4 -6 3 3 6 2 14 -4 17 -6 4 -10 3 -9 -2 3 -20
-2 -27 -11 -13 -8 13 -11 13 -22 1 -11 -11 -11 -13 1 -6 9 5 12 4 8 -2 -4 -6
3 -10 16 -9 13 1 21 -4 19 -12 -1 -8 2 -11 9 -6 7 4 9 3 5 -4 -3 -6 -1 -14 5
-18 7 -4 9 -3 5 4 -3 6 -1 14 5 18 8 5 9 3 4 -7 -7 -12 -6 -12 7 -1 13 10 17
10 22 0 3 -7 3 -3 0 10 -3 12 -1 22 5 22 6 0 10 -3 10 -7 -3 -20 2 -34 11 -28
5 3 15 -6 23 -21 9 -17 17 -23 21 -15 4 6 2 11 -4 11 -6 0 -8 5 -4 11 4 8 9 7
15 -2 4 -7 5 -17 2 -23 -4 -5 1 -7 10 -3 9 3 19 2 22 -4 4 -5 10 -7 15 -4 5 3
15 -4 23 -15 12 -17 16 -18 26 -7 6 8 8 16 5 19 -2 3 2 8 10 11 12 5 14 -1 11
-25 -5 -40 2 -51 24 -38 15 7 18 6 17 -8 0 -9 5 -16 12 -14 6 1 12 -2 12 -7 0
-6 8 -8 19 -6 12 2 18 -2 17 -13 0 -9 5 -16 12 -14 6 1 12 -2 12 -8 0 -5 6 -7
14 -4 20 8 30 -14 16 -31 -7 -8 -9 -15 -5 -15 4 0 2 -6 -4 -13 -6 -8 -8 -17
-4 -20 3 -4 12 1 20 11 8 9 12 11 8 5 -3 -7 -1 -21 5 -30 9 -16 10 -15 5 5 -4
13 -2 22 5 22 6 0 8 -5 4 -12 -5 -7 -3 -8 5 -3 10 6 11 3 2 -12 -10 -20 -6
-33 10 -33 4 0 6 9 4 19 -3 15 1 19 16 16 11 -2 17 0 14 6 -4 5 -10 7 -15 4
-4 -3 -13 1 -19 9 -7 8 -8 16 -2 18 5 1 2 10 -7 18 -14 13 -15 12 -9 -3 7 -18
0 -21 -21 -8 -10 6 -10 10 1 20 24 19 53 1 48 -31 0 -3 13 -12 29 -20 17 -7
28 -18 25 -25 -3 -7 -8 -19 -11 -27 -4 -10 0 -14 13 -12 10 2 23 1 28 -3 6 -3
14 -6 18 -6 4 0 16 -14 25 -30 9 -17 13 -25 8 -18 -7 8 -17 3 -34 -20 -14 -18
-22 -25 -19 -15 3 9 3 18 0 21 -8 8 -32 -17 -26 -26 3 -5 -5 -4 -17 3 -20 11
-20 13 -6 29 14 15 14 19 -2 41 -9 14 -26 27 -36 28 -17 3 -18 2 -6 -13 17
-20 2 -36 -25 -24 -18 9 -18 9 3 5 30 -6 28 12 -3 24 -31 12 -33 24 -3 14 20
-6 21 -5 9 9 -7 9 -17 14 -22 11 -5 -3 -6 3 -2 13 6 16 5 17 -12 3 -11 -9 -16
-10 -11 -2 4 6 2 12 -4 12 -6 0 -8 12 -5 32 5 26 3 29 -8 20 -18 -15 -15 -48
6 -72 27 -32 8 -23 -24 11 -16 17 -22 28 -13 25 10 -4 14 -1 11 6 -4 13 -16
14 -47 7 -8 -2 -16 3 -16 11 -1 8 -2 21 -3 28 0 6 -7 11 -13 10 -7 -2 -12 5
-11 15 0 11 -4 16 -11 14 -9 -3 -11 4 -8 25 3 21 1 29 -6 24 -6 -4 -10 -12 -8
-19 1 -7 1 -9 -1 -4 -3 4 -9 7 -14 7 -6 0 -7 -4 -4 -10 3 -5 1 -10 -5 -10 -7
0 -9 8 -4 22 6 20 5 21 -9 9 -9 -7 -14 -17 -11 -22 3 -5 0 -9 -5 -9 -15 0 -14
13 1 28 10 10 7 12 -12 8 -14 -2 -25 -5 -25 -7 0 -1 -10 -3 -22 -4 -16 -2 -20
2 -15 13 4 11 7 12 10 4 6 -20 20 -13 15 8 -3 11 -9 17 -14 14 -5 -3 -9 0 -9
6 0 6 -4 9 -10 5 -5 -3 -6 -13 -3 -23 6 -16 6 -16 -11 1 -22 21 -30 22 -22 1
3 -8 2 -12 -4 -9 -15 9 -12 19 10 43 12 12 19 23 18 23 -2 1 -23 2 -48 3 -29
2 -44 7 -42 14 2 13 -11 16 -21 5 -4 -3 0 -14 9 -24 12 -14 13 -18 2 -25 -7
-4 -10 -4 -6 1 8 8 -15 35 -31 35 -5 0 -12 4 -15 8 -3 5 4 8 16 8 12 -1 23 6
26 14 4 13 3 13 -11 2 -13 -11 -19 -10 -36 7 -19 19 -25 34 -22 54 0 4 -4 7
-10 7 -5 0 -7 5 -4 10 5 8 12 7 22 -2 9 -7 28 -14 42 -14z m-1562 4 c-2 -7 0
-21 5 -31 8 -16 12 -17 26 -5 9 8 23 13 30 12 6 -1 17 -2 23 -3 6 0 3 -8 -5
-17 -9 -8 -13 -20 -10 -26 4 -5 -5 -3 -19 7 -15 10 -28 12 -31 6 -4 -5 3 -12
14 -16 11 -3 20 -11 20 -16 0 -6 -4 -8 -8 -5 -11 7 -42 -30 -34 -41 4 -4 -4 2
-18 14 -24 21 -51 25 -66 10 -7 -7 10 -11 35 -8 7 2 10 -3 6 -9 -4 -6 -13 -9
-20 -6 -16 6 -31 -10 -38 -39 -4 -19 -5 -18 -6 2 0 12 4 25 9 28 6 3 10 12 10
18 -1 7 -12 -1 -26 -18 -14 -16 -24 -24 -22 -16 2 7 -2 15 -8 18 -6 2 -11 -4
-11 -13 0 -9 9 -19 19 -22 10 -2 18 -9 18 -14 0 -6 -11 -3 -24 5 -21 14 -25
14 -45 -6 -15 -15 -20 -17 -16 -6 4 10 0 16 -9 16 -8 0 -14 -9 -13 -19 1 -10
9 -18 19 -18 22 0 29 -12 16 -30 -8 -12 -9 -12 -4 3 4 12 0 17 -14 17 -10 0
-22 5 -25 10 -4 6 -10 8 -14 5 -5 -2 -17 5 -27 17 -11 12 -13 18 -6 14 7 -4
15 -1 18 9 5 12 9 13 20 4 10 -8 14 -8 15 0 1 6 3 16 4 21 1 6 3 15 4 21 0 6
7 9 15 6 8 -3 20 1 26 8 7 8 16 13 20 10 4 -3 13 2 20 10 7 8 16 13 20 10 5
-3 17 6 28 20 17 21 21 23 26 9 6 -15 8 -15 27 2 11 10 17 24 14 32 -3 7 -3
18 1 23 8 13 16 11 11 -3z m1647 -17 c9 -14 -3 -38 -19 -38 -11 0 -12 4 -4 13
6 7 8 18 4 24 -3 5 -2 10 4 10 5 0 12 -4 15 -9z m123 -68 c-9 -9 -20 -13 -24
-9 -4 4 -1 11 7 16 25 16 35 11 17 -7z m-137 -48 c0 -8 -2 -15 -4 -15 -2 0 -6
7 -10 15 -3 8 -1 15 4 15 6 0 10 -7 10 -15z m30 11 c0 -3 -4 -8 -10 -11 -5 -3
-10 -1 -10 4 0 6 5 11 10 11 6 0 10 -2 10 -4z m-59 -39 c-10 -9 -11 -8 -5 6 3
10 9 15 12 12 3 -3 0 -11 -7 -18z m-1670 -10 c-10 -9 -11 -8 -5 6 3 10 9 15
12 12 3 -3 0 -11 -7 -18z m1717 -8 c9 -12 9 -16 -1 -16 -7 0 -14 9 -14 20 -1
11 -1 18 0 16 2 -2 8 -11 15 -20z m-1806 -31 c-7 -7 -12 -8 -12 -2 0 14 12 26
19 19 2 -3 -1 -11 -7 -17z m123 10 c5 4 5 1 1 -6 -6 -10 -11 -10 -22 -1 -8 6
-14 14 -14 16 0 3 6 0 13 -6 8 -6 18 -7 22 -3z m1719 -18 c-6 -6 -10 -3 -10
10 0 13 4 16 10 10 7 -7 7 -13 0 -20z m-1759 10 c3 -5 1 -10 -4 -10 -6 0 -11
5 -11 10 0 6 2 10 4 10 3 0 8 -4 11 -10z m-44 -37 c-12 -20 -14 -14 -5 12 4 9
9 14 11 11 3 -2 0 -13 -6 -23z m1886 3 c0 -15 -21 -15 -34 -1 -5 4 -2 5 6 0
11 -6 13 -4 8 8 -4 10 -2 14 7 11 7 -3 13 -11 13 -18z m-1981 -2 c18 -15 18
-15 -2 -5 -12 6 -24 7 -28 4 -3 -3 -6 -1 -6 5 0 16 12 15 36 -4z m2021 10 c-3
-3 -12 -4 -19 -1 -8 3 -5 6 6 6 11 1 17 -2 13 -5z m20 -26 c-3 -7 -5 -2 -5 12
0 14 2 19 5 13 2 -7 2 -19 0 -25z m-17 -8 c0 -5 -5 -10 -11 -10 -5 0 -7 5 -4
10 3 6 8 10 11 10 2 0 4 -4 4 -10z m-2030 -15 c-7 -9 -15 -13 -19 -10 -3 3 1
10 9 15 21 14 24 12 10 -5z m48 -10 c-3 -3 -9 2 -12 12 -6 14 -5 15 5 6 7 -7
10 -15 7 -18z m2052 5 c0 -5 -2 -10 -4 -10 -3 0 -8 5 -11 10 -3 6 -1 10 4 10
6 0 11 -4 11 -10z m-2070 -14 c0 -3 -4 -8 -10 -11 -5 -3 -10 -1 -10 4 0 6 5
11 10 11 6 0 10 -2 10 -4z m1997 -11 c0 -8 -4 -12 -9 -9 -5 3 -6 10 -3 15 9
13 12 11 12 -6z m-2057 1 c0 -2 -8 -10 -17 -17 -16 -13 -17 -12 -4 4 13 16 21
21 21 13z m2120 0 c0 -2 -6 -9 -14 -15 -11 -9 -16 -9 -22 0 -4 7 -3 9 4 5 6
-3 13 -2 17 4 6 10 15 14 15 6z m17 -13 c-4 -3 -2 -11 3 -18 7 -8 5 -12 -4
-12 -8 0 -12 7 -11 16 5 22 4 21 12 21 3 0 3 -3 0 -7z m-2166 -30 c13 -16 12
-17 -3 -4 -10 7 -18 15 -18 17 0 8 8 3 21 -13z m2226 -13 c-2 -24 0 -25 -23 2
-19 22 -19 22 0 8 18 -14 19 -13 13 3 -4 10 -3 16 2 12 6 -3 9 -14 8 -25z
m-2287 -5 c11 -16 11 -17 0 -8 -11 10 -16 9 -27 -5 -11 -15 -12 -13 -2 11 7
15 13 26 13 25 1 -2 8 -12 16 -23z m-54 -30 c1 -8 -5 -20 -14 -27 -16 -12 -16
-11 -2 6 14 18 13 19 -5 13 -18 -7 -19 -6 -3 6 10 8 16 17 13 20 -3 4 -2 5 2
2 4 -3 8 -12 9 -20z m-189 -1 c-3 -4 -2 -16 4 -27 8 -14 8 -18 0 -13 -10 6
-15 -6 -12 -26 0 -5 -4 -8 -10 -8 -5 0 -7 -4 -4 -10 6 -10 3 -11 -34 -14 -11
0 -23 -4 -27 -8 -10 -10 -24 -10 -24 0 0 4 14 13 31 21 22 10 28 16 20 24 -14
14 -14 30 -1 22 5 -3 19 6 32 20 12 14 24 25 26 25 3 0 2 -3 -1 -6z m2544 -17
c-10 -9 -11 -8 -5 6 3 10 9 15 12 12 3 -3 0 -11 -7 -18z m128 -33 c-14 -13
-16 -13 -16 0 0 8 5 12 10 9 7 -4 8 1 3 13 -6 15 -5 17 5 6 11 -10 10 -15 -2
-28z m-2549 6 c12 -7 10 -9 -8 -7 -12 0 -22 5 -22 9 0 11 12 10 30 -2z m2470
6 c0 -2 -7 -7 -16 -10 -8 -3 -12 -2 -9 4 6 10 25 14 25 6z m746 -1328 c4 -6 0
-14 -7 -19 -8 -5 -14 -18 -14 -30 0 -12 -7 -24 -15 -26 -12 -4 -12 -3 -2 5 11
8 11 10 -1 15 -8 3 -13 16 -11 34 1 15 2 28 3 28 14 5 42 1 47 -7z m-126 -54
c0 -8 -19 -13 -24 -6 -3 5 1 9 9 9 8 0 15 -2 15 -3z m-3765 -14 c-3 -5 -11
-10 -16 -10 -6 0 -7 5 -4 10 3 6 11 10 16 10 6 0 7 -4 4 -10z m142 -19 c0 -11
-5 -18 -9 -15 -4 3 -5 11 -1 19 7 21 12 19 10 -4z m3620 -16 c4 -4 2 -5 -4 -1
-12 7 -18 -5 -14 -27 1 -4 -8 -3 -19 3 -24 13 -27 22 -3 13 12 -5 15 -2 10 9
-6 17 16 19 30 3z m-3734 -15 c-3 -11 -9 -20 -15 -20 -5 0 -4 9 2 20 6 11 12
20 14 20 2 0 2 -9 -1 -20z m90 7 c4 3 7 1 7 -5 0 -14 -2 -14 -24 -6 -9 3 -16
11 -16 16 0 7 5 6 13 -1 8 -6 17 -8 20 -4z m-113 -7 c0 -5 -5 -10 -11 -10 -5
0 -7 5 -4 10 3 6 8 10 11 10 2 0 4 -4 4 -10z m3674 -18 c3 -5 -1 -9 -9 -9 -8
0 -12 4 -9 9 3 4 7 8 9 8 2 0 6 -4 9 -8z m-3664 -12 c8 -5 11 -10 6 -10 -5 0
-1 -10 10 -22 10 -13 4 -10 -14 6 -17 17 -32 31 -32 33 0 6 15 3 30 -7z m127
-15 c0 -8 -4 -12 -9 -9 -5 3 -6 10 -3 15 9 13 12 11 12 -6z m56 0 c4 -8 3 -16
-1 -19 -4 -3 -9 4 -9 15 -2 23 3 25 10 4z m-80 -30 c-6 -17 -23 -20 -23 -5 0
6 5 10 11 10 5 0 7 5 3 12 -4 7 -3 8 4 4 6 -4 9 -13 5 -21z m3627 21 c0 -2 -7
-7 -16 -10 -8 -3 -12 -2 -9 4 6 10 25 14 25 6z m-3546 -52 c3 -8 2 -12 -4 -9
-6 3 -10 10 -10 16 0 14 7 11 14 -7z m3486 6 c0 -5 -2 -10 -4 -10 -3 0 -8 5
-11 10 -3 6 -1 10 4 10 6 0 11 -4 11 -10z m-3657 -6 c9 -9 -4 -35 -14 -28 -5
3 -9 12 -9 20 0 14 12 19 23 8z m122 -14 c3 -6 -1 -7 -9 -4 -18 7 -21 14 -7
14 6 0 13 -4 16 -10z m3602 4 c-3 -3 -12 -4 -19 -1 -8 3 -5 6 6 6 11 1 17 -2
13 -5z m55 -18 c7 5 21 9 31 9 17 2 16 0 -4 -16 -13 -10 -28 -15 -34 -12 -5 2
0 -4 13 -14 21 -17 22 -21 8 -32 -9 -8 -16 -9 -16 -3 0 6 6 13 13 15 9 4 9 6
0 6 -7 1 -17 -8 -23 -19 -6 -11 -7 -20 -3 -19 4 1 15 1 23 0 13 -1 13 -2 0
-11 -13 -8 -13 -10 -1 -10 11 0 10 -4 -4 -14 -10 -7 -20 -24 -22 -37 -3 -23
-2 -23 12 -5 8 10 12 23 9 27 -3 5 -1 9 5 9 22 0 19 -19 -9 -50 -16 -18 -27
-37 -23 -43 3 -6 1 -7 -4 -4 -6 4 -13 0 -17 -8 -3 -8 0 -17 6 -21 7 -5 5 -11
-6 -20 -16 -11 -16 -14 8 -30 15 -9 24 -19 22 -22 -3 -3 -12 1 -20 7 -10 8
-16 9 -21 1 -3 -6 -11 -7 -17 -4 -8 5 -9 1 -4 -12 5 -10 9 -25 9 -31 0 -7 5
-13 10 -13 6 0 8 -3 5 -6 -4 -3 -8 -4 -11 -2 -7 4 -47 -33 -47 -45 0 -5 7 -6
16 -3 14 5 15 4 4 -9 -7 -9 -19 -14 -26 -11 -7 3 -16 1 -19 -4 -8 -14 20 -52
31 -43 5 4 2 0 -7 -10 -19 -22 -43 -14 -58 19 -16 35 -14 46 7 40 12 -4 19 -1
19 8 0 8 -6 12 -14 9 -7 -3 -13 1 -13 8 0 11 -3 11 -10 -1 -5 -8 -10 -10 -10
-4 0 15 29 39 37 30 3 -3 1 -6 -6 -6 -7 0 -10 -4 -6 -10 3 -5 12 -7 21 -3 8 3
12 8 10 11 -3 3 -1 11 6 19 9 12 6 13 -16 9 -15 -3 -33 -9 -40 -13 -6 -4 -1 2
13 14 13 11 29 19 36 17 7 -3 11 9 11 38 -1 31 3 42 12 40 10 -2 12 4 7 20 -7
22 -7 23 8 3 15 -19 15 -19 16 10 1 57 2 65 12 60 5 -4 9 1 9 10 0 9 -4 14 -9
11 -4 -3 -13 6 -19 19 -13 29 1 43 23 25 8 -7 15 -9 15 -4 0 14 -14 30 -30 38
-8 3 -2 4 14 0 26 -5 28 -3 16 11 -8 9 -21 13 -34 10 -19 -5 -19 -5 -3 5 15 9
22 8 36 -4 10 -9 21 -13 24 -9 4 3 -2 12 -13 20 -11 8 -20 20 -20 26 0 8 3 8
9 -2 6 -9 11 -10 15 -2 4 6 0 14 -8 17 -9 3 -16 11 -16 17 0 5 9 2 20 -8 22
-20 28 -8 8 15 -11 12 -10 12 4 1 10 -7 23 -9 30 -5z m-3602 0 c0 -3 -4 -8
-10 -11 -5 -3 -10 -1 -10 4 0 6 5 11 10 11 6 0 10 -2 10 -4z m-67 -21 c-3 -9
-8 -14 -10 -11 -3 3 -2 9 2 15 9 16 15 13 8 -4z m3582 -14 c3 -5 0 -13 -6 -17
-7 -4 -9 -3 -5 4 3 5 0 13 -6 15 -9 4 -10 6 -1 6 6 1 14 -3 18 -8z m-3597 -51
c-12 -11 -19 -19 -15 -20 4 0 3 -9 -3 -20 -8 -15 -6 -21 10 -30 16 -9 20 -8
20 5 0 9 -4 13 -10 10 -6 -3 -7 1 -4 10 9 23 17 10 21 -32 2 -32 1 -34 -11
-18 -10 15 -16 16 -32 6 -18 -11 -17 -12 4 -6 23 7 31 -8 10 -21 -6 -4 -8 -3
-5 2 3 5 -3 10 -14 10 -19 0 -19 -1 -3 -13 10 -7 26 -11 36 -7 10 3 18 0 18
-6 0 -6 -4 -8 -10 -5 -5 3 -10 1 -10 -6 0 -7 -3 -9 -7 -6 -3 4 -12 2 -20 -4
-10 -9 -11 -15 -1 -28 10 -14 9 -14 -6 1 -18 16 -32 88 -17 88 7 0 8 19 2 53
0 5 -5 6 -10 3 -5 -3 -14 1 -20 8 -15 18 -4 25 32 21 21 -3 27 0 23 10 -3 9 0
12 9 8 9 -3 18 3 22 13 4 11 8 13 11 6 2 -7 -7 -21 -20 -32z m3562 20 c0 -5
-5 -10 -11 -10 -5 0 -7 5 -4 10 3 6 8 10 11 10 2 0 4 -4 4 -10z m-3525 -39 c0
-16 -3 -27 -7 -24 -13 7 -7 53 6 53 1 0 1 -13 1 -29z m25 14 c-6 -8 -8 -20 -4
-27 5 -10 4 -10 -6 -1 -11 10 -11 15 0 28 7 8 15 15 17 15 3 0 0 -7 -7 -15z
m3520 -15 c0 -5 -2 -10 -4 -10 -3 0 -8 5 -11 10 -3 6 -1 10 4 10 6 0 11 -4 11
-10z m-25 -48 c-17 -15 -18 -15 -6 0 7 9 9 23 5 30 -6 10 -4 11 7 0 11 -10 10
-15 -6 -30z m-40 19 c3 -5 2 -12 -3 -15 -5 -3 -9 1 -9 9 0 17 3 19 12 6z
m-3439 -13 c4 -7 3 -10 -1 -5 -5 4 -17 0 -27 -10 -22 -20 -24 -11 -2 11 19 19
21 19 30 4z m44 -14 c0 -8 -19 -13 -24 -6 -3 5 1 9 9 9 8 0 15 -2 15 -3z m-42
-29 c-3 -3 -9 2 -12 12 -6 14 -5 15 5 6 7 -7 10 -15 7 -18z m3509 9 c-3 -3
-12 -4 -19 -1 -8 3 -5 6 6 6 11 1 17 -2 13 -5z m-3539 -18 c-7 -8 -15 -12 -17
-11 -5 6 10 25 20 25 5 0 4 -6 -3 -14z m3536 -20 c-6 -15 -24 -23 -24 -11 0 8
24 34 28 30 1 -1 0 -10 -4 -19z m-3518 -1 c-11 -8 -25 -15 -30 -15 -6 1 0 7
14 15 32 19 40 18 16 0z m32 -18 c8 -10 6 -13 -8 -14 -11 -1 -22 2 -25 8 -4 5
2 6 11 2 12 -4 15 -3 10 5 -10 16 -1 15 12 -1z m3458 -9 c5 -7 3 -8 -6 -3 -10
6 -12 4 -7 -8 3 -10 2 -17 -4 -17 -6 0 -7 -5 -3 -12 4 -7 3 -8 -5 -4 -6 4 -10
10 -8 14 2 4 7 15 10 25 7 20 13 21 23 5z m-41 -7 c3 -5 2 -12 -3 -15 -5 -3
-9 1 -9 9 0 17 3 19 12 6z m-3360 -71 c3 -5 1 -10 -4 -10 -6 0 -11 5 -11 10 0
6 2 10 4 10 3 0 8 -4 11 -10z m3344 -12 c-12 -23 -21 -24 -12 -1 5 12 3 14 -7
8 -8 -5 -11 -4 -7 2 3 5 13 10 21 10 11 0 13 -5 5 -19z m41 12 c0 -5 -2 -10
-4 -10 -3 0 -8 5 -11 10 -3 6 -1 10 4 10 6 0 11 -4 11 -10z m-3406 -26 c3 -8
2 -12 -4 -9 -6 3 -10 10 -10 16 0 14 7 11 14 -7z m3377 -7 c-10 -9 -11 -8 -5
6 3 10 9 15 12 12 3 -3 0 -11 -7 -18z m-3331 -1 c0 -2 -7 -7 -16 -10 -8 -3
-12 -2 -9 4 6 10 25 14 25 6z m3293 -21 c-3 -9 -8 -14 -10 -11 -3 3 -2 9 2 15
9 16 15 13 8 -4z m-3336 -34 c0 -11 -5 -18 -9 -15 -4 3 -5 11 -1 19 7 21 12
19 10 -4z m3343 -16 c0 -19 -17 -28 -26 -14 -5 8 -3 9 6 4 10 -6 12 -3 8 13
-4 12 -2 20 3 16 5 -3 9 -11 9 -19z m-3323 -7 c-3 -8 -6 -5 -6 6 -1 11 2 17 5
13 3 -3 4 -12 1 -19z m57 -6 c3 -5 -1 -9 -9 -9 -8 0 -12 4 -9 9 3 4 7 8 9 8 2
0 6 -4 9 -8z m-34 -18 c0 -8 -19 -13 -24 -6 -3 5 1 9 9 9 8 0 15 -2 15 -3z
m3282 -11 c-6 -2 -9 -10 -6 -15 4 -7 2 -8 -5 -4 -13 9 -5 26 12 25 9 0 8 -2
-1 -6z m-37 -13 c-3 -5 -12 -10 -18 -10 -7 0 -6 4 3 10 19 12 23 12 15 0z m10
-20 c-3 -5 -14 -10 -23 -9 -14 0 -13 2 3 9 27 11 27 11 20 0z m-42 -35 c-3 -9
-8 -14 -10 -11 -3 3 -2 9 2 15 9 16 15 13 8 -4z m-3179 -31 c3 -8 2 -12 -4 -9
-6 3 -10 1 -10 -4 0 -6 -5 -11 -10 -11 -6 0 -5 8 2 20 15 24 14 24 22 4z m36
10 c0 -8 -19 -13 -24 -6 -3 5 1 9 9 9 8 0 15 -2 15 -3z m3255 -36 c-3 -30 -3
-30 -16 -22 -8 4 -7 9 2 15 11 7 11 9 -1 9 -13 0 -13 1 0 10 8 5 16 10 16 10
1 0 0 -10 -1 -22z m-3362 -34 c-3 -15 -20 -15 -26 0 -4 9 0 13 11 12 9 -2 16
-7 15 -12z m3320 2 c4 -10 1 -13 -8 -9 -8 3 -12 9 -9 14 7 12 11 11 17 -5z
m-73 -10 c0 -2 -7 -6 -15 -10 -8 -3 -15 -1 -15 4 0 6 7 10 15 10 8 0 15 -2 15
-4z m48 -19 c6 -5 18 -5 25 -2 6 4 1 -3 -13 -14 -14 -12 -18 -19 -9 -15 10 3
20 1 24 -5 3 -6 1 -12 -4 -12 -26 -3 -30 -4 -37 -11 -4 -4 -1 -16 7 -25 13
-17 13 -17 -7 -1 -16 14 -23 15 -32 6 -7 -7 -12 -10 -13 -7 0 2 -2 14 -5 27
-2 14 2 25 11 28 8 4 12 10 9 16 -3 5 -13 4 -22 -4 -15 -12 -16 -11 -3 4 7 10
17 15 22 12 5 -3 9 -1 9 5 0 10 19 9 38 -2z m-3245 -21 c3 3 4 -1 3 -10 -1 -8
-6 -19 -10 -23 -4 -4 -6 -3 -4 4 2 6 -6 19 -17 28 -20 16 -20 16 1 6 12 -6 24
-8 27 -5z m47 -82 c0 -2 -9 -4 -21 -4 -11 0 -18 4 -14 10 5 8 35 3 35 -6z
m1504 -622 c3 -5 -1 -9 -9 -9 -8 0 -12 4 -9 9 3 4 7 8 9 8 2 0 6 -4 9 -8z
m120 0 c3 -5 -1 -9 -9 -9 -8 0 -12 4 -9 9 3 4 7 8 9 8 2 0 6 -4 9 -8z m236 -2
c0 -5 -5 -10 -11 -10 -5 0 -7 5 -4 10 3 6 8 10 11 10 2 0 4 -4 4 -10z m-162
-22 c-2 -7 2 -12 8 -11 6 1 11 -5 11 -12 0 -10 -4 -12 -12 -5 -7 5 -14 7 -18
4 -4 -5 -3 16 2 34 3 9 11 0 9 -10z m58 -3 c-1 -8 -5 -17 -8 -21 -5 -4 -4 16
1 34 3 9 9 -1 7 -13z m-381 -4 c3 -5 2 -12 -3 -15 -5 -3 -9 1 -9 9 0 17 3 19
12 6z m245 5 c0 -2 -8 -10 -17 -17 -16 -13 -17 -12 -4 4 13 16 21 21 21 13z
m230 -11 c-7 -8 -17 -15 -23 -15 -6 0 -2 7 9 15 25 19 30 19 14 0z m123 2 c4
3 7 1 7 -5 0 -6 -4 -14 -10 -17 -5 -3 -10 -1 -10 5 0 6 -4 9 -8 6 -5 -3 -9 1
-9 9 0 10 4 12 12 5 7 -5 15 -7 18 -3z m-733 -17 c-12 -23 -16 -24 -26 -8 -4
6 -3 8 3 5 6 -4 13 0 17 8 3 8 8 15 11 15 3 0 1 -9 -5 -20z m84 11 c-7 -8 -54
-9 -59 -2 -2 4 12 7 30 7 19 0 32 -3 29 -5z m147 -8 c12 -16 12 -17 -2 -6 -9
7 -19 10 -22 6 -4 -3 -7 -1 -7 5 0 17 16 15 31 -5z m83 9 c3 -5 -1 -9 -9 -9
-8 0 -12 4 -9 9 3 4 7 8 9 8 2 0 6 -4 9 -8z m-303 -39 c-12 -20 -14 -14 -5 12
4 9 9 14 11 11 3 -2 0 -13 -6 -23z m172 12 c-3 -9 -8 -14 -10 -11 -3 3 -2 9 2
15 9 16 15 13 8 -4z m130 -15 c-3 -12 -8 -19 -11 -16 -5 6 5 36 12 36 2 0 2
-9 -1 -20z m302 9 c11 -16 1 -19 -13 -3 -7 8 -8 14 -3 14 5 0 13 -5 16 -11z
m-337 -24 c-3 -3 -9 2 -12 12 -6 14 -5 15 5 6 7 -7 10 -15 7 -18z m72 21 c0
-2 -8 -10 -17 -17 -16 -13 -17 -12 -4 4 13 16 21 21 21 13z m50 -8 c0 -11 -12
-10 -30 2 -12 7 -10 9 8 7 12 0 22 -5 22 -9z m185 -10 c-19 -11 -30 -5 -21 11
4 6 14 7 22 4 15 -5 14 -7 -1 -15z m-318 -22 c35 1 70 7 78 14 15 13 35 6 35
-13 0 -7 -4 -6 -10 3 -5 8 -12 12 -15 8 -3 -3 2 -14 12 -24 10 -9 18 -20 19
-23 4 -25 19 -41 33 -36 33 13 52 14 48 2 -2 -7 -24 -13 -50 -13 -26 -1 -44 2
-42 6 9 15 -33 33 -47 20 -12 -9 -40 -6 -45 6 -4 12 -7 12 -18 -2 -14 -20 -72
-26 -100 -11 -11 6 -24 10 -30 8 -38 -12 -51 -10 -51 8 0 11 6 18 16 16 23 -3
60 17 53 29 -4 6 5 3 20 -7 15 -9 27 -13 27 -8 0 5 -4 13 -10 16 -5 3 -10 12
-10 18 1 8 5 7 13 -3 9 -11 30 -15 74 -14z m193 12 c0 -4 -7 -8 -15 -8 -8 0
-15 4 -15 8 0 5 7 9 15 9 8 0 15 -4 15 -9z m-591 -25 c-9 -11 -15 -11 -28 -1
-9 7 -17 13 -18 14 -2 0 10 1 27 1 24 0 27 -3 19 -14z m71 -13 c13 -11 21 -22
18 -25 -2 -3 -15 6 -28 20 -28 30 -22 33 10 5z m698 -13 c1 -4 -4 -14 -12 -22
-12 -12 -16 -12 -26 0 -6 7 -18 11 -26 8 -13 -5 -20 8 -9 19 8 7 70 3 73 -5z
m-578 -3 c0 -8 -19 -13 -24 -6 -3 5 1 9 9 9 8 0 15 -2 15 -3z"/>
<path d="M5838 6271 c8 -5 13 -11 13 -15 -3 -18 0 -24 14 -29 8 -4 17 -1 21 6
4 7 4 9 -1 5 -13 -12 -37 13 -26 26 7 8 3 12 -12 13 -15 2 -18 0 -9 -6z"/>
<path d="M5950 6200 c0 -5 5 -10 10 -10 6 0 10 5 10 10 0 6 -4 10 -10 10 -5 0
-10 -4 -10 -10z"/>
<path d="M6000 6201 c0 -6 4 -13 10 -16 6 -3 7 1 4 9 -7 18 -14 21 -14 7z"/>
<path d="M5999 6154 c-7 -9 -8 -14 -1 -14 6 0 14 5 17 10 4 7 12 7 24 0 10 -5
22 -6 26 -2 4 4 4 -3 1 -15 -7 -22 6 -26 32 -10 7 5 12 3 12 -3 0 -6 4 -9 9
-5 5 3 12 1 16 -5 4 -6 11 -8 16 -4 5 3 7 10 4 15 -4 5 -1 9 6 9 7 0 9 3 6 6
-4 4 -12 2 -20 -4 -13 -11 -39 -2 -38 14 1 5 -3 9 -8 9 -5 0 -13 3 -17 7 -4 4
-13 3 -21 -3 -7 -6 -13 -7 -13 -2 0 15 -38 13 -51 -3z m104 -7 c4 3 7 4 7 1 0
-3 -8 -12 -17 -19 -10 -7 -15 -9 -11 -5 4 5 2 16 -5 25 -10 14 -10 14 4 4 9
-7 19 -10 22 -6z"/>
<path d="M6185 6089 c-4 -6 -3 -15 3 -21 6 -6 8 -18 5 -27 -4 -13 -3 -14 5 -1
6 8 8 18 5 24 -3 5 -1 6 6 2 6 -4 9 -11 6 -16 -8 -13 5 -37 21 -37 8 0 13 5
11 11 -3 6 -10 10 -17 8 -10 -2 -11 0 -2 10 8 10 5 19 -13 36 -16 15 -26 19
-30 11z"/>
<path d="M6247 6056 c-4 -9 -2 -18 4 -22 14 -8 6 -29 -11 -29 -7 0 -16 -7 -18
-15 -4 -11 0 -11 21 3 17 11 27 13 27 6 0 -8 4 -8 15 1 20 17 19 31 -2 23 -9
-4 -14 -2 -11 3 4 5 0 17 -7 27 -11 15 -13 15 -18 3z"/>
<path d="M6421 5923 c-6 -10 -11 -12 -11 -5 0 17 -17 15 -17 -2 0 -19 27 -14
39 7 5 9 7 17 4 17 -3 0 -10 -8 -15 -17z"/>
<path d="M6435 5866 c13 -17 13 -22 -2 -38 -9 -10 -11 -18 -6 -18 6 0 16 7 23
15 9 11 16 12 26 4 9 -8 15 -5 23 9 12 22 5 33 -15 25 -9 -3 -14 0 -12 7 2 8
-8 14 -24 15 -25 2 -26 1 -13 -19z m32 0 c-1 -6 6 -10 15 -10 10 1 14 -4 11
-12 -4 -10 -9 -11 -24 -1 -24 15 -31 34 -14 34 8 0 13 -5 12 -11z"/>
<path d="M4353 6247 c-3 -6 -1 -7 5 -3 5 3 12 1 14 -6 3 -8 6 -7 10 3 7 17
-19 22 -29 6z"/>
<path d="M4295 6230 c-13 -14 -22 -17 -29 -10 -7 7 -17 3 -33 -12 -13 -12 -23
-18 -23 -13 0 4 -9 0 -20 -10 -11 -10 -20 -14 -20 -10 0 4 -8 1 -17 -8 -10 -8
-22 -15 -27 -14 -5 1 -11 -9 -13 -23 -3 -24 -3 -24 12 -5 12 16 14 17 9 3 -8
-22 9 -24 26 -3 7 8 9 15 5 15 -4 0 -2 7 5 15 11 13 15 13 21 3 6 -9 16 -5 39
17 16 16 30 25 30 21 0 -5 6 -4 13 2 10 8 16 6 26 -9 12 -20 13 -20 32 -3 17
16 18 19 4 27 -8 4 -13 12 -10 17 12 19 -13 18 -30 0z m22 3 c-4 -3 -2 -12 4
-19 7 -8 6 -14 -2 -19 -16 -10 -30 16 -17 32 6 7 13 13 16 13 3 0 2 -3 -1 -7z
m-51 -25 c4 -6 3 -8 -3 -5 -6 4 -20 -5 -33 -18 -21 -23 -48 -26 -34 -4 3 5 9
7 13 4 5 -2 16 4 26 15 21 23 22 24 31 8z m-105 -51 c-6 -8 -8 -16 -5 -19 3
-3 1 -9 -4 -12 -6 -3 -9 0 -8 6 2 16 15 38 23 38 3 0 0 -6 -6 -13z"/>
<path d="M4065 6100 c-3 -5 -5 -10 -3 -11 29 -7 36 -5 31 7 -6 16 -19 18 -28
4z"/>
<path d="M3710 5841 c0 -7 -4 -10 -9 -7 -5 3 -8 -6 -8 -21 l0 -27 14 28 c8 15
12 30 9 34 -3 3 -6 0 -6 -7z"/>
<path d="M6960 4225 c-10 -12 -10 -15 3 -15 19 0 31 16 18 24 -5 3 -14 -1 -21
-9z"/>
<path d="M6949 4163 c-9 -10 -8 -13 5 -13 14 0 14 -2 -1 -18 -14 -14 -20 -15
-26 -5 -11 18 -28 17 -21 -2 3 -8 14 -17 25 -20 17 -6 18 -9 4 -34 -8 -16 -11
-31 -8 -35 4 -3 1 -6 -6 -6 -8 0 -10 -7 -6 -20 4 -13 1 -22 -9 -26 -9 -3 -12
-13 -9 -22 4 -13 2 -12 -10 3 -15 18 -16 18 -17 3 0 -10 5 -18 11 -18 8 0 8
-4 2 -12 -15 -19 -12 -50 3 -44 8 3 11 0 8 -9 -3 -8 -9 -13 -12 -12 -4 1 -9
-2 -10 -8 -2 -5 -8 -17 -12 -26 -6 -11 -5 -16 5 -16 8 0 12 4 9 9 -3 5 2 18
11 28 10 11 19 31 21 45 2 23 0 25 -14 13 -16 -12 -16 -11 -1 12 9 14 22 26
28 26 23 3 25 4 14 15 -14 14 -5 41 11 32 7 -4 6 -1 -2 9 -10 12 -8 20 9 42
16 20 18 30 10 40 -9 11 -9 15 1 19 10 4 9 6 -1 6 -11 1 -10 4 4 15 10 7 19
20 21 28 2 18 -23 19 -37 1z m2 -96 c-10 -9 -11 -8 -5 6 3 10 9 15 12 12 3 -3
0 -11 -7 -18z"/>
<path d="M6820 3803 c0 -17 27 -46 33 -36 4 6 -2 18 -13 28 -11 10 -20 14 -20
8z"/>
<path d="M3266 4162 c-2 -4 -1 -14 3 -21 6 -10 10 -9 14 3 6 16 -8 32 -17 18z"/>
<path d="M3266 4038 c3 -5 10 -6 15 -3 13 9 11 12 -6 12 -8 0 -12 -4 -9 -9z"/>
<path d="M6720 3599 c-13 -7 -13 -9 0 -10 10 0 7 -4 -7 -11 -12 -6 -21 -18
-20 -28 1 -16 3 -16 24 -3 13 9 21 18 18 21 -2 3 0 11 6 18 13 16 -2 26 -21
13z m10 -33 c0 -2 -7 -7 -16 -10 -8 -3 -12 -2 -9 4 6 10 25 14 25 6z"/>
<path d="M5122 2761 c-8 -4 -38 -7 -67 -6 -30 1 -52 -2 -50 -6 8 -12 -22 -18
-34 -6 -8 8 -14 8 -19 2 -7 -10 -27 -17 -49 -18 -7 0 -10 -4 -7 -9 3 -4 13 -4
23 2 12 6 22 5 30 -3 9 -9 14 -8 21 3 9 14 14 7 11 -13 -1 -4 8 -3 19 3 11 6
18 15 16 19 -3 4 9 7 27 6 48 -4 49 -4 43 -14 -5 -8 22 -8 32 -1 9 8 30 4 47
-9 18 -15 19 -15 7 0 -6 9 -10 19 -7 22 3 4 2 5 -2 2 -4 -3 -12 3 -18 14 -7
13 -15 17 -23 12z m-27 -21 c4 -6 11 -7 17 -4 7 4 8 2 4 -5 -6 -9 -12 -9 -24
1 -10 7 -19 14 -21 15 -2 2 1 3 7 3 6 0 14 -5 17 -10z"/>
<path d="M5027 2716 c-4 -10 -1 -13 9 -9 15 6 19 23 5 23 -5 0 -11 -7 -14 -14z"/>
<path d="M5787 6459 c7 -7 15 -10 18 -7 3 3 -2 9 -12 12 -14 6 -15 5 -6 -5z"/>
<path d="M4427 6440 c5 -8 9 -25 8 -37 -1 -12 2 -20 7 -17 11 7 4 42 -12 57
-12 10 -12 9 -3 -3z"/>
<path d="M5774 6395 c0 -13 3 -22 7 -19 8 4 6 30 -2 38 -3 3 -5 -5 -5 -19z"/>
<path d="M4355 6400 c-3 -5 -1 -10 4 -10 6 0 11 5 11 10 0 6 -2 10 -4 10 -3 0
-8 -4 -11 -10z"/>
<path d="M5813 6395 c0 -8 4 -12 9 -9 5 3 6 10 3 15 -9 13 -12 11 -12 -6z"/>
<path d="M5873 6403 c4 -3 2 -11 -3 -18 -7 -8 -6 -12 3 -12 7 0 14 9 14 19 1
10 -3 18 -9 18 -6 0 -8 -3 -5 -7z"/>
<path d="M5910 6400 c0 -5 5 -10 11 -10 5 0 7 5 4 10 -3 6 -8 10 -11 10 -2 0
-4 -4 -4 -10z"/>
<path d="M4353 6365 c0 -8 4 -12 9 -9 5 3 6 10 3 15 -9 13 -12 11 -12 -6z"/>
<path d="M4193 6355 c0 -8 4 -12 9 -9 5 3 6 10 3 15 -9 13 -12 11 -12 -6z"/>
<path d="M4240 6360 c-9 -6 -10 -10 -3 -10 6 0 15 5 18 10 8 12 4 12 -15 0z"/>
<path d="M4410 6360 c0 -5 5 -10 10 -10 6 0 10 5 10 10 0 6 -4 10 -10 10 -5 0
-10 -4 -10 -10z"/>
<path d="M5798 6352 c4 -10 7 -12 10 -4 2 7 9 9 15 5 7 -3 8 -2 4 2 -14 16
-36 14 -29 -3z"/>
<path d="M5939 6353 c-13 -16 -12 -17 4 -4 16 13 21 21 13 21 -2 0 -10 -8 -17
-17z"/>
<path d="M4293 6325 c0 -8 4 -12 9 -9 5 3 6 10 3 15 -9 13 -12 11 -12 -6z"/>
<path d="M4196 6322 c-3 -5 1 -9 9 -9 8 0 12 4 9 9 -3 4 -7 8 -9 8 -2 0 -6 -4
-9 -8z"/>
<path d="M4230 6319 c0 -5 5 -7 10 -4 6 3 10 8 10 11 0 2 -4 4 -10 4 -5 0 -10
-5 -10 -11z"/>
<path d="M5931 6314 c0 -11 3 -14 6 -6 3 7 2 16 -1 19 -3 4 -6 -2 -5 -13z"/>
<path d="M5995 6310 c6 -10 4 -12 -11 -6 -15 6 -17 5 -6 -5 9 -9 15 -10 23 -2
8 8 7 13 -2 18 -8 6 -10 4 -4 -5z"/>
<path d="M6028 6297 c7 -8 10 -16 7 -19 -3 -2 1 -5 9 -5 18 0 10 24 -11 31
-12 5 -13 4 -5 -7z"/>
<path d="M4213 6285 c0 -7 10 -10 24 -7 13 2 23 6 23 7 0 1 -10 5 -23 7 -14 3
-24 0 -24 -7z"/>
<path d="M4139 6273 c-13 -16 -12 -17 4 -4 9 7 17 15 17 17 0 8 -8 3 -21 -13z"/>
<path d="M6130 6280 c0 -5 5 -10 11 -10 5 0 7 5 4 10 -3 6 -8 10 -11 10 -2 0
-4 -4 -4 -10z"/>
<path d="M6070 6261 c0 -6 4 -13 10 -16 6 -3 7 1 4 9 -7 18 -14 21 -14 7z"/>
<path d="M4188 6253 c6 -2 18 -2 25 0 6 3 1 5 -13 5 -14 0 -19 -2 -12 -5z"/>
<path d="M6050 6245 c0 -8 4 -15 10 -15 5 0 7 7 4 15 -4 8 -8 15 -10 15 -2 0
-4 -7 -4 -15z"/>
<path d="M4100 6235 c-11 -13 -10 -14 4 -9 9 3 16 10 16 15 0 13 -6 11 -20 -6z"/>
<path d="M6105 6239 c3 -4 13 -6 23 -4 9 1 24 -2 32 -8 12 -9 13 -9 2 3 -13
15 -65 23 -57 9z"/>
<path d="M4165 6220 c3 -5 8 -10 11 -10 2 0 4 5 4 10 0 6 -5 10 -11 10 -5 0
-7 -4 -4 -10z"/>
<path d="M6188 6216 c4 -6 7 -14 7 -18 0 -19 11 -14 11 6 0 12 -6 23 -13 23
-6 0 -9 -5 -5 -11z"/>
<path d="M4033 6205 c0 -8 4 -12 9 -9 5 3 6 10 3 15 -9 13 -12 11 -12 -6z"/>
<path d="M3935 6180 c-3 -5 -1 -10 4 -10 6 0 11 5 11 10 0 6 -2 10 -4 10 -3 0
-8 -4 -11 -10z"/>
<path d="M4014 6172 c3 -5 0 -13 -6 -15 -9 -4 -10 -6 -1 -6 17 -1 25 16 12 25
-7 4 -9 3 -5 -4z"/>
<path d="M3965 6160 c-3 -6 1 -7 9 -4 18 7 21 14 7 14 -6 0 -13 -4 -16 -10z"/>
<path d="M3913 6133 c0 -10 4 -10 16 -1 9 7 18 13 20 15 2 1 -5 1 -16 0 -11 0
-20 -7 -20 -14z"/>
<path d="M6309 6137 c6 -8 9 -16 6 -19 -3 -2 2 -5 10 -5 13 0 13 3 -2 19 -19
21 -31 25 -14 5z"/>
<path d="M3956 6132 c-2 -4 -1 -14 4 -22 7 -11 9 -9 7 8 -1 24 -3 26 -11 14z"/>
<path d="M3993 6133 c-10 -3 -9 -8 3 -20 8 -8 12 -18 9 -21 -3 -4 -10 0 -14 7
-7 10 -10 9 -16 -8 -3 -11 -13 -21 -21 -21 -11 0 -13 -6 -9 -20 4 -11 3 -20
-2 -19 -26 5 -34 -2 -27 -23 6 -21 5 -21 -10 -9 -9 8 -15 20 -12 26 2 7 0 18
-6 26 -8 11 -9 11 -4 -3 3 -11 -2 -19 -14 -23 -11 -4 -17 -12 -13 -21 4 -10 0
-12 -11 -8 -9 3 -16 1 -16 -6 0 -6 5 -8 10 -5 17 11 11 -7 -7 -21 -24 -18 -38
-17 -23 1 19 22 8 25 -12 3 -10 -10 -14 -18 -9 -18 6 0 8 -9 6 -19 -2 -11 3
-25 11 -31 7 -7 11 -16 8 -21 -3 -5 -1 -9 5 -9 17 0 83 88 76 102 -4 7 0 6 7
-4 13 -15 16 -13 37 17 15 23 29 32 42 30 10 -2 19 0 19 6 0 5 -4 9 -10 9 -5
0 -10 5 -10 10 0 6 3 9 8 9 4 -1 10 0 15 1 12 4 26 7 37 9 6 0 2 11 -10 23
-19 20 -24 33 -21 51 0 4 0 7 -1 6 -2 0 -9 -3 -15 -6z m19 -51 c3 7 7 5 12 -7
4 -11 4 -16 0 -12 -4 4 -14 1 -22 -6 -13 -9 -14 -9 -8 1 4 6 3 12 -2 12 -13 0
-24 -29 -15 -42 3 -6 1 -8 -5 -4 -6 3 -20 -8 -32 -25 -15 -20 -26 -27 -32 -21
-6 6 -17 8 -25 5 -12 -5 -12 -7 -1 -14 10 -7 11 -9 0 -9 -7 0 -11 -4 -8 -8 3
-5 -7 -21 -21 -38 -14 -16 -23 -21 -20 -12 3 10 2 20 -3 23 -6 4 -10 -2 -10
-11 0 -20 -13 -11 -16 12 -1 9 0 13 3 11 8 -9 63 52 63 70 0 13 5 12 25 -7 24
-23 27 -22 29 10 1 8 8 15 16 15 8 0 15 7 15 15 0 23 28 48 42 38 7 -5 13 -4
15 4z"/>
<path d="M3846 5951 c-10 -11 -13 -21 -7 -25 10 -7 24 10 27 32 3 16 0 15 -20
-7z"/>
<path d="M6286 6117 c3 -10 9 -15 12 -12 3 3 0 11 -7 18 -10 9 -11 8 -5 -6z"/>
<path d="M6350 6120 c0 -5 5 -10 11 -10 5 0 7 5 4 10 -3 6 -8 10 -11 10 -2 0
-4 -4 -4 -10z"/>
<path d="M3932 6115 c4 -4 3 -14 -4 -22 -6 -7 -9 -15 -7 -18 3 -2 10 4 17 15
9 15 9 21 -1 26 -6 4 -9 4 -5 -1z"/>
<path d="M6415 6100 c-3 -5 -1 -10 4 -10 6 0 11 5 11 10 0 6 -2 10 -4 10 -3 0
-8 -4 -11 -10z"/>
<path d="M3846 6081 c8 -8 64 -10 64 -2 0 4 -16 7 -35 7 -19 0 -32 -2 -29 -5z"/>
<path d="M6337 6076 c-10 -24 33 -50 47 -28 3 5 -5 8 -17 8 -16 -1 -21 4 -19
17 3 20 -4 23 -11 3z"/>
<path d="M3794 6048 l-19 -23 23 19 c21 18 27 26 19 26 -2 0 -12 -10 -23 -22z"/>
<path d="M3910 6050 c0 -5 5 -10 10 -10 6 0 10 5 10 10 0 6 -4 10 -10 10 -5 0
-10 -4 -10 -10z"/>
<path d="M6415 6040 c1 -11 5 -23 10 -27 4 -5 4 -2 0 6 -6 10 -4 13 7 9 9 -4
15 0 15 8 0 8 -3 12 -5 9 -3 -3 -10 0 -17 5 -8 7 -11 4 -10 -10z"/>
<path d="M3815 6031 c-3 -5 0 -13 6 -17 7 -4 9 -3 5 4 -3 6 3 12 16 15 23 4
23 4 1 6 -12 0 -24 -3 -28 -8z"/>
<path d="M6466 6019 c4 -8 30 -6 38 2 3 3 -5 5 -19 5 -13 0 -22 -3 -19 -7z"/>
<path d="M3779 6018 c-7 -23 -5 -39 4 -45 7 -3 9 -3 5 2 -4 4 0 14 10 22 16
12 16 13 -2 6 -13 -4 -17 -3 -12 5 4 7 5 12 2 12 -3 0 -6 -1 -7 -2z"/>
<path d="M3695 6000 c-3 -5 3 -7 12 -5 10 1 25 -2 33 -8 12 -9 13 -9 3 3 -15
16 -41 22 -48 10z"/>
<path d="M6430 6000 c-9 -6 -10 -10 -3 -10 6 0 15 5 18 10 8 12 4 12 -15 0z"/>
<path d="M6458 5978 c5 -5 16 -8 23 -6 8 3 3 7 -10 11 -17 4 -21 3 -13 -5z"/>
<path d="M6513 5975 c0 -8 4 -12 9 -9 5 3 6 10 3 15 -9 13 -12 11 -12 -6z"/>
<path d="M3710 5959 c0 -5 5 -7 10 -4 6 3 10 8 10 11 0 2 -4 4 -10 4 -5 0 -10
-5 -10 -11z"/>
<path d="M6478 5953 c7 -3 16 -2 19 1 4 3 -2 6 -13 5 -11 0 -14 -3 -6 -6z"/>
<path d="M3630 5940 c0 -5 5 -10 11 -10 5 0 7 5 4 10 -3 6 -8 10 -11 10 -2 0
-4 -4 -4 -10z"/>
<path d="M3695 5931 c-6 -11 13 -26 22 -17 4 3 1 6 -6 6 -7 0 -9 5 -6 10 3 6
4 10 1 10 -3 0 -7 -4 -11 -9z"/>
<path d="M6480 5920 c0 -5 5 -10 10 -10 6 0 10 5 10 10 0 6 -4 10 -10 10 -5 0
-10 -4 -10 -10z"/>
<path d="M6590 5895 c5 -7 6 -16 2 -21 -4 -5 -3 -5 2 -1 15 12 15 34 0 34 -9
0 -11 -4 -4 -12z"/>
<path d="M6624 5878 l-19 -23 23 19 c21 18 27 26 19 26 -2 0 -12 -10 -23 -22z"/>
<path d="M3617 5853 c-2 -5 -3 -15 -3 -23 1 -16 36 -27 36 -11 0 6 -7 8 -15 5
-10 -4 -13 0 -10 15 4 21 0 28 -8 14z"/>
<path d="M3535 5820 c-3 -5 -1 -10 4 -10 6 0 11 5 11 10 0 6 -2 10 -4 10 -3 0
-8 -4 -11 -10z"/>
<path d="M6653 5797 c0 -12 1 -17 4 -10 2 7 11 9 19 6 8 -3 14 1 14 8 0 7 -3
9 -7 6 -3 -4 -11 -3 -17 3 -8 6 -12 2 -13 -13z"/>
<path d="M3570 5799 c0 -5 5 -7 10 -4 6 3 10 8 10 11 0 2 -4 4 -10 4 -5 0 -10
-5 -10 -11z"/>
<path d="M3596 5793 c-6 -14 -5 -15 5 -6 7 7 10 15 7 18 -3 3 -9 -2 -12 -12z"/>
<path d="M6710 5801 c0 -6 4 -13 10 -16 6 -3 7 1 4 9 -7 18 -14 21 -14 7z"/>
<path d="M3055 4660 c3 -5 8 -10 11 -10 2 0 4 5 4 10 0 6 -5 10 -11 10 -5 0
-7 -4 -4 -10z"/>
<path d="M3096 4638 c3 -5 10 -6 15 -3 13 9 11 12 -6 12 -8 0 -12 -4 -9 -9z"/>
<path d="M7175 4631 c-3 -5 -2 -12 3 -15 5 -3 9 1 9 9 0 17 -3 19 -12 6z"/>
<path d="M7110 4623 c1 -13 30 -48 30 -36 0 7 -5 15 -10 18 -6 4 -8 11 -5 16
4 5 1 9 -4 9 -6 0 -11 -3 -11 -7z"/>
<path d="M3050 4580 c0 -5 5 -10 11 -10 5 0 7 5 4 10 -3 6 -8 10 -11 10 -2 0
-4 -4 -4 -10z"/>
<path d="M3125 4579 c-6 -8 -4 -10 5 -4 10 6 12 4 6 -11 -6 -15 -5 -17 5 -6 9
9 10 15 2 23 -8 8 -13 7 -18 -2z"/>
<path d="M7030 4552 c-20 -21 -26 -29 -15 -19 12 9 26 17 31 17 5 0 15 9 22
20 19 31 1 22 -38 -18z"/>
<path d="M7175 4539 c-3 -4 2 -6 10 -5 21 3 28 13 10 13 -9 0 -18 -4 -20 -8z"/>
<path d="M3101 4524 c0 -11 3 -14 6 -6 3 7 2 16 -1 19 -3 4 -6 -2 -5 -13z"/>
<path d="M3132 4520 c0 -14 2 -19 5 -12 2 6 2 18 0 25 -3 6 -5 1 -5 -13z"/>
<path d="M3215 4513 c2 -10 4 -20 5 -23 1 -3 2 -8 2 -12 -1 -3 5 -12 13 -18
19 -16 19 0 0 26 -8 12 -12 24 -9 27 3 3 1 8 -4 11 -6 3 -9 -2 -7 -11z"/>
<path d="M3056 4501 c-3 -5 2 -15 12 -22 15 -12 16 -12 5 2 -7 9 -10 19 -6 22
3 4 4 7 0 7 -3 0 -8 -4 -11 -9z"/>
<path d="M3099 4498 c-5 -18 -6 -38 -1 -34 7 8 12 36 6 36 -2 0 -4 -1 -5 -2z"/>
<path d="M7154 4489 c-3 -6 -2 -15 3 -20 5 -5 9 -1 9 11 0 23 -2 24 -12 9z"/>
<path d="M3124 4479 c-12 -20 12 -31 27 -12 13 17 13 17 -5 3 -18 -14 -19 -13
-13 3 7 19 2 23 -9 6z"/>
<path d="M7090 4479 c0 -4 11 -6 24 -5 13 0 22 4 20 8 -6 9 -44 6 -44 -3z"/>
<path d="M7005 4451 c-3 -5 -2 -12 3 -15 5 -3 9 1 9 9 0 17 -3 19 -12 6z"/>
<path d="M3055 4440 c-3 -5 -1 -10 4 -10 6 0 11 5 11 10 0 6 -2 10 -4 10 -3 0
-8 -4 -11 -10z"/>
<path d="M7100 4436 c0 -2 7 -7 16 -10 8 -3 12 -2 9 4 -6 10 -25 14 -25 6z"/>
<path d="M3125 4422 c-13 -8 -13 -27 -2 -39 5 -4 8 -3 7 2 -5 22 1 36 12 29 7
-4 8 -3 4 4 -8 14 -8 14 -21 4z"/>
<path d="M7176 4418 c3 -5 10 -6 15 -3 13 9 11 12 -6 12 -8 0 -12 -4 -9 -9z"/>
<path d="M6990 4400 c0 -5 5 -10 10 -10 6 0 10 5 10 10 0 6 -4 10 -10 10 -5 0
-10 -4 -10 -10z"/>
<path d="M7119 4408 c-7 -24 -4 -40 9 -50 15 -11 15 -11 6 2 -6 8 -10 23 -9
33 3 13 -2 26 -6 15z"/>
<path d="M3247 4392 c1 -3 -4 -13 -12 -22 -14 -15 -14 -18 2 -31 10 -7 15 -10
11 -5 -4 5 -3 18 3 28 7 13 7 23 1 28 -5 4 -7 5 -5 2z"/>
<path d="M7153 4375 c0 -8 4 -12 9 -9 5 3 6 10 3 15 -9 13 -12 11 -12 -6z"/>
<path d="M7085 4360 c3 -5 8 -10 11 -10 2 0 4 5 4 10 0 6 -5 10 -11 10 -5 0
-7 -4 -4 -10z"/>
<path d="M3140 4346 c0 -2 7 -6 15 -10 8 -3 15 -1 15 4 0 6 -7 10 -15 10 -8 0
-15 -2 -15 -4z"/>
<path d="M3118 4312 c-3 -11 0 -19 7 -19 7 0 10 8 7 19 -2 10 -6 18 -7 18 -1
0 -5 -8 -7 -18z"/>
<path d="M6976 4314 c-3 -8 2 -12 13 -11 10 0 18 6 18 12 0 16 -25 15 -31 -1z"/>
<path d="M7106 4322 c-3 -5 1 -9 9 -9 8 0 12 4 9 9 -3 4 -7 8 -9 8 -2 0 -6 -4
-9 -8z"/>
<path d="M3249 4298 c-7 -24 -4 -40 9 -50 13 -11 15 -10 9 4 -3 10 -2 20 4 23
11 7 3 25 -12 25 -5 0 -9 -1 -10 -2z"/>
<path d="M7061 4295 c0 -5 3 -16 8 -23 7 -11 9 -10 14 3 4 9 3 14 -2 10 -5 -3
-12 1 -14 7 -3 7 -6 9 -6 3z"/>
<path d="M3096 4258 c3 -5 10 -6 15 -3 13 9 11 12 -6 12 -8 0 -12 -4 -9 -9z"/>
<path d="M7074 4233 c-10 -7 -13 -13 -7 -13 7 0 15 5 18 10 4 6 10 8 15 5 5
-3 11 -2 14 3 8 13 -19 10 -40 -5z"/>
<path d="M3115 4200 c-5 -8 42 -7 49 1 3 3 -6 5 -20 5 -14 0 -27 -3 -29 -6z"/>
<path d="M7067 4200 c5 -8 9 -25 8 -38 -1 -13 1 -25 5 -27 14 -8 5 54 -10 67
-12 11 -12 11 -3 -2z"/>
<path d="M3164 4178 c-4 -7 -4 -10 1 -6 4 4 15 2 24 -5 14 -11 14 -10 2 6 -16
20 -18 21 -27 5z"/>
<path d="M7107 4179 c7 -7 15 -10 18 -7 3 3 -2 9 -12 12 -14 6 -15 5 -6 -5z"/>
<path d="M7136 4142 c-3 -5 1 -9 9 -9 8 0 12 4 9 9 -3 4 -7 8 -9 8 -2 0 -6 -4
-9 -8z"/>
<path d="M3165 4120 c-3 -5 -1 -10 4 -10 6 0 11 5 11 10 0 6 -2 10 -4 10 -3 0
-8 -4 -11 -10z"/>
<path d="M7038 4103 c7 -3 16 -2 19 1 4 3 -2 6 -13 5 -11 0 -14 -3 -6 -6z"/>
<path d="M7090 4099 c0 -5 5 -7 10 -4 6 3 10 8 10 11 0 2 -4 4 -10 4 -5 0 -10
-5 -10 -11z"/>
<path d="M3185 4079 c-4 -6 -5 -12 -2 -15 2 -3 7 2 10 11 7 17 1 20 -8 4z"/>
<path d="M7028 4083 c7 -3 16 -2 19 1 4 3 -2 6 -13 5 -11 0 -14 -3 -6 -6z"/>
<path d="M7000 4060 c-13 -8 -13 -10 2 -10 9 0 20 5 23 10 8 13 -5 13 -25 0z"/>
<path d="M7039 4053 c-13 -16 -12 -17 4 -4 9 7 17 15 17 17 0 8 -8 3 -21 -13z"/>
<path d="M3153 4045 c0 -8 3 -13 5 -10 3 3 10 0 17 -5 8 -7 12 -5 12 5 0 8 -3
13 -5 10 -3 -3 -10 0 -17 5 -8 7 -12 5 -12 -5z"/>
<path d="M7015 4021 c-3 -5 0 -13 6 -17 7 -4 9 -3 5 4 -3 5 0 13 6 15 9 4 10
6 1 6 -6 1 -14 -3 -18 -8z"/>
<path d="M3310 4005 c0 -8 -13 -23 -30 -33 l-30 -19 25 -13 c19 -10 22 -16 14
-27 -16 -19 -29 -16 -23 5 5 14 4 15 -5 2 -14 -20 4 -39 21 -22 17 17 33 15
19 -2 -9 -10 -9 -16 -1 -21 6 -4 8 -14 5 -24 -15 -36 -14 -50 2 -44 9 4 14 2
10 -3 -3 -6 -1 -16 5 -24 8 -12 9 -12 4 3 -5 17 8 24 18 9 7 -12 -5 -53 -14
-47 -5 3 -11 1 -14 -4 -4 -5 1 -8 9 -7 17 2 48 52 37 59 -4 2 -2 3 4 1 6 -1
10 12 9 30 0 17 -5 30 -11 29 -5 -1 -16 8 -23 20 -11 18 -11 20 0 10 16 -16
39 -17 39 -3 0 6 -8 10 -17 8 -11 -2 -17 2 -15 10 1 8 -2 11 -10 6 -7 -4 -9
-3 -5 1 15 17 37 13 49 -8 6 -12 16 -26 22 -30 7 -6 4 -7 -6 -3 -22 7 -23 -7
-2 -28 8 -9 11 -16 6 -16 -5 0 -9 -7 -9 -15 0 -20 13 -19 21 1 4 9 2 22 -4 29
-7 9 -7 15 -1 19 5 4 9 15 8 26 -1 10 -5 17 -9 14 -4 -3 -14 9 -23 26 -8 16
-21 30 -28 30 -8 0 -7 -4 3 -10 13 -8 13 -10 -1 -10 -22 0 -44 26 -29 35 7 4
7 12 0 24 -5 10 -6 21 -3 25 3 3 1 6 -5 6 -7 0 -12 -7 -12 -15z m11 -38 c-8
-8 -6 -16 5 -28 11 -12 12 -19 4 -24 -14 -9 -32 14 -23 29 4 5 -1 7 -9 3 -26
-9 -29 4 -5 23 23 19 47 16 28 -3z m4 -76 c-3 -5 -1 -12 5 -16 6 -4 8 -11 5
-16 -4 -5 -1 -9 4 -9 6 0 11 -5 11 -11 0 -8 -4 -8 -13 0 -10 8 -14 7 -14 -3 0
-17 25 -14 38 5 8 11 9 10 7 -6 -4 -28 -17 -35 -45 -22 -21 9 -22 12 -8 33 13
20 12 23 -1 28 -16 6 -10 26 7 26 6 0 8 -4 4 -9z"/>
<path d="M7073 4005 c0 -8 4 -15 9 -15 4 0 8 4 8 9 0 6 -4 12 -8 15 -5 3 -9
-1 -9 -9z"/>
<path d="M3220 4000 c0 -5 5 -10 10 -10 6 0 10 5 10 10 0 6 -4 10 -10 10 -5 0
-10 -4 -10 -10z"/>
<path d="M3196 3981 c-3 -5 2 -15 12 -22 15 -12 16 -12 5 2 -7 9 -10 19 -6 22
3 4 4 7 0 7 -3 0 -8 -4 -11 -9z"/>
<path d="M3240 3980 c-13 -8 -12 -10 3 -10 9 0 17 5 17 10 0 12 -1 12 -20 0z"/>
<path d="M3236 3937 c3 -10 9 -15 12 -12 3 3 0 11 -7 18 -10 9 -11 8 -5 -6z"/>
<path d="M7050 3940 c0 -5 5 -10 11 -10 5 0 7 5 4 10 -3 6 -8 10 -11 10 -2 0
-4 -4 -4 -10z"/>
<path d="M3213 3925 c0 -8 4 -12 9 -9 5 3 6 10 3 15 -9 13 -12 11 -12 -6z"/>
<path d="M6986 3925 c-11 -8 -16 -15 -10 -15 5 0 18 7 28 15 11 8 16 15 10 15
-5 0 -18 -7 -28 -15z"/>
<path d="M6951 3910 c14 -31 19 -36 19 -24 0 6 -7 19 -16 30 -14 18 -14 18 -3
-6z"/>
<path d="M3170 3899 c0 -5 5 -7 10 -4 6 3 10 8 10 11 0 2 -4 4 -10 4 -5 0 -10
-5 -10 -11z"/>
<path d="M7026 3898 c3 -5 10 -6 15 -3 13 9 11 12 -6 12 -8 0 -12 -4 -9 -9z"/>
<path d="M3276 3867 c3 -10 9 -15 12 -12 3 3 0 11 -7 18 -10 9 -11 8 -5 -6z"/>
<path d="M3233 3854 c0 -9 4 -11 12 -4 7 5 14 9 16 7 2 -1 3 0 1 2 -7 11 -29
7 -29 -5z"/>
<path d="M6993 3850 c1 -21 10 -18 13 5 1 8 -2 15 -6 15 -5 0 -8 -9 -7 -20z"/>
<path d="M6951 3852 c-1 -7 -5 -10 -11 -7 -24 15 -7 -4 18 -21 17 -11 23 -12
16 -3 -6 8 -14 21 -17 29 -4 10 -6 11 -6 2z"/>
<path d="M3255 3830 c-3 -6 1 -7 9 -4 18 7 21 14 7 14 -6 0 -13 -4 -16 -10z"/>
<path d="M3215 3800 c-3 -5 -1 -10 4 -10 6 0 11 5 11 10 0 6 -2 10 -4 10 -3 0
-8 -4 -11 -10z"/>
<path d="M3270 3786 c0 -2 9 -6 20 -9 11 -3 18 -1 14 4 -5 9 -34 13 -34 5z"/>
<path d="M3372 3773 c-15 -27 0 -39 22 -17 15 14 16 14 16 -5 0 -12 -6 -21
-14 -21 -9 0 -13 -10 -12 -29 2 -45 12 -47 48 -10 18 18 27 29 19 24 -10 -5
-12 -4 -7 3 11 18 26 14 26 -5 0 -13 3 -14 12 -5 14 14 -8 46 -28 38 -7 -2
-20 4 -29 14 -10 11 -21 17 -25 15 -5 -3 -10 1 -12 7 -3 8 -9 5 -16 -9z m61
-40 c-7 -3 -10 -10 -8 -16 6 -16 -23 -53 -32 -42 -5 4 -2 10 5 12 10 4 10 8 0
21 -8 10 -9 13 -1 9 7 -4 14 1 18 13 4 12 11 17 18 13 8 -5 8 -8 0 -10z"/>
<path d="M3276 3761 c-3 -5 2 -15 12 -22 15 -12 16 -12 5 2 -7 9 -10 19 -6 22
3 4 4 7 0 7 -3 0 -8 -4 -11 -9z"/>
<path d="M6947 3739 c7 -7 15 -10 18 -7 3 3 -2 9 -12 12 -14 6 -15 5 -6 -5z"/>
<path d="M3345 3721 c-3 -5 -1 -12 4 -16 5 -3 8 -14 6 -25 -2 -11 0 -20 4 -20
5 0 9 11 9 25 0 14 -6 25 -12 25 -6 0 -4 5 4 10 9 6 10 10 3 10 -6 0 -14 -4
-18 -9z"/>
<path d="M3295 3680 c3 -5 8 -10 11 -10 2 0 4 5 4 10 0 6 -5 10 -11 10 -5 0
-7 -4 -4 -10z"/>
<path d="M6755 3680 c-3 -5 -2 -10 4 -10 5 0 13 5 16 10 3 6 2 10 -4 10 -5 0
-13 -4 -16 -10z"/>
<path d="M3474 3646 c10 -9 24 -12 30 -9 6 4 5 0 -2 -9 -10 -13 -10 -17 3 -21
8 -4 14 -3 13 1 -1 4 3 17 10 30 13 23 7 28 -17 13 -9 -6 -23 -6 -35 0 -20 10
-20 10 -2 -5z"/>
<path d="M3370 3640 c0 -5 5 -10 10 -10 6 0 10 5 10 10 0 6 -4 10 -10 10 -5 0
-10 -4 -10 -10z"/>
<path d="M3275 3611 c-3 -5 -2 -12 3 -15 5 -3 9 1 9 9 0 17 -3 19 -12 6z"/>
<path d="M3393 3606 c0 -8 5 -14 11 -13 6 1 10 -6 8 -15 -1 -9 2 -19 8 -23 6
-4 7 1 3 12 -5 15 -3 16 8 6 7 -7 17 -13 21 -13 4 0 -6 14 -24 30 -36 35 -35
34 -35 16z"/>
<path d="M6866 3599 c2 -4 13 -7 24 -6 23 2 17 10 -10 12 -10 1 -17 -2 -14 -6z"/>
<path d="M3360 3580 c8 -5 20 -10 25 -10 6 0 3 5 -5 10 -8 5 -19 10 -25 10 -5
0 -3 -5 5 -10z"/>
<path d="M6815 3559 c-4 -6 -4 -13 -1 -16 3 -4 6 -1 6 6 0 7 5 9 12 5 7 -4 8
-3 4 4 -9 15 -13 15 -21 1z"/>
<path d="M3393 3547 c0 -8 6 -14 14 -14 9 0 10 4 2 14 -6 7 -12 13 -14 13 -1
0 -2 -6 -2 -13z"/>
<path d="M6790 3541 c0 -6 4 -13 10 -16 6 -3 7 1 4 9 -7 18 -14 21 -14 7z"/>
<path d="M6840 3540 c-9 -6 -10 -10 -3 -10 6 0 15 5 18 10 8 12 4 12 -15 0z"/>
<path d="M3430 3520 c0 -5 5 -10 10 -10 6 0 10 5 10 10 0 6 -4 10 -10 10 -5 0
-10 -4 -10 -10z"/>
<path d="M6830 3499 c0 -5 5 -7 10 -4 6 3 10 8 10 11 0 2 -4 4 -10 4 -5 0 -10
-5 -10 -11z"/>
<path d="M3470 3485 c0 -8 4 -15 10 -15 5 0 7 7 4 15 -4 8 -8 15 -10 15 -2 0
-4 -7 -4 -15z"/>
<path d="M6752 3485 c4 -4 1 -13 -7 -19 -11 -8 -12 -15 -4 -26 9 -13 10 -13 6
0 -2 8 3 20 11 26 13 9 13 12 1 19 -8 5 -11 5 -7 0z"/>
<path d="M6785 3480 c-3 -6 1 -7 9 -4 18 7 21 14 7 14 -6 0 -13 -4 -16 -10z"/>
<path d="M3415 3460 c3 -5 8 -10 11 -10 2 0 4 5 4 10 0 6 -5 10 -11 10 -5 0
-7 -4 -4 -10z"/>
<path d="M3499 3468 c-1 -2 -3 -16 -5 -33 -2 -20 0 -25 5 -16 5 8 7 21 3 29
-4 11 -1 13 8 7 9 -5 11 -4 6 3 -7 11 -14 15 -17 10z"/>
<path d="M6726 3411 c-19 -7 -19 -8 0 -13 13 -3 21 0 21 8 0 8 -1 14 -1 13 -1
0 -10 -4 -20 -8z"/>
<path d="M4710 2805 c-10 -12 -10 -15 4 -15 9 0 16 5 16 11 0 5 5 7 12 3 7 -4
8 -3 4 4 -10 16 -21 15 -36 -3z"/>
<path d="M5573 2798 c1 -9 -10 -12 -33 -11 -28 2 -31 0 -17 -8 23 -14 22 -25
-8 -55 -20 -20 -23 -29 -14 -42 10 -16 10 -16 5 0 -6 20 10 34 17 16 4 -10 6
-10 6 0 1 6 0 14 -1 17 -4 5 34 34 46 35 5 0 3 -6 -3 -14 -18 -21 6 -32 28
-12 22 20 38 21 21 1 -7 -8 -10 -15 -7 -15 9 0 57 46 57 54 0 4 -7 0 -16 -8
-15 -16 -34 -13 -34 4 0 5 8 7 18 3 10 -3 6 2 -8 13 -14 10 -28 18 -32 16 -5
-1 -8 3 -8 8 0 6 -4 10 -10 10 -5 0 -9 -6 -7 -12z m39 -34 c-5 -24 -21 -44
-35 -44 -8 0 -8 3 0 11 6 6 9 18 6 26 -5 12 -8 12 -22 -1 -15 -14 -17 -13 -17
3 0 10 6 17 12 14 7 -2 15 0 18 5 11 18 41 6 38 -14z"/>
<path d="M5587 2763 c3 -7 6 -13 8 -13 2 0 5 6 8 13 3 8 -1 14 -8 14 -7 0 -11
-6 -8 -14z"/>
<path d="M4824 2791 c6 -10 -23 -26 -39 -22 -5 1 -4 -3 3 -11 11 -11 14 -10
22 2 8 12 10 13 10 1 0 -8 3 -11 7 -8 3 4 13 1 21 -6 13 -10 14 -9 7 3 -10 15
-11 20 -14 40 0 6 -6 10 -12 10 -5 0 -8 -4 -5 -9z"/>
<path d="M4880 2790 c0 -5 9 -14 20 -20 11 -6 20 -7 20 -3 0 5 -9 14 -20 21
-11 7 -20 8 -20 2z"/>
<path d="M4540 2755 c-10 -12 -9 -16 4 -21 8 -3 21 -4 28 -1 7 3 2 6 -11 6
-20 1 -21 3 -11 16 7 8 10 15 7 15 -2 0 -10 -7 -17 -15z"/>
<path d="M5263 2745 c0 -8 4 -12 9 -9 5 3 6 10 3 15 -9 13 -12 11 -12 -6z"/>
<path d="M4508 2733 c6 -2 10 -8 8 -12 -3 -4 1 -8 9 -8 11 0 12 4 4 14 -6 7
-17 13 -23 12 -7 0 -6 -2 2 -6z"/>
<path d="M5670 2725 c0 -8 4 -15 10 -15 5 0 7 7 4 15 -4 8 -8 15 -10 15 -2 0
-4 -7 -4 -15z"/>
<path d="M4588 2703 c6 -2 9 -10 6 -15 -4 -7 -2 -8 5 -4 13 9 5 26 -12 25 -9
0 -8 -2 1 -6z"/>
<path d="M4809 2693 c6 -12 20 -24 30 -28 12 -4 18 -12 14 -21 -3 -7 -1 -14 5
-14 17 0 7 32 -14 43 -10 6 -25 18 -32 26 -11 14 -12 13 -3 -6z"/>
<path d="M5555 2700 c3 -6 2 -10 -3 -10 -6 0 -13 -8 -16 -17 -6 -14 -4 -14 16
2 13 11 24 20 26 21 2 1 -4 4 -13 8 -9 3 -13 2 -10 -4z"/>
<path d="M5636 2702 c-3 -4 4 -9 15 -9 23 -2 25 3 4 10 -8 4 -16 3 -19 -1z"/>
<path d="M4493 2685 c0 -8 4 -12 9 -9 5 3 6 10 3 15 -9 13 -12 11 -12 -6z"/>
<path d="M4690 2686 c0 -8 4 -17 9 -20 5 -4 7 3 4 14 -6 23 -13 26 -13 6z"/>
<path d="M5598 2693 c7 -3 16 -2 19 1 4 3 -2 6 -13 5 -11 0 -14 -3 -6 -6z"/>
<path d="M4573 2671 c0 -11 5 -18 9 -15 4 3 5 11 1 19 -7 21 -12 19 -10 -4z"/>
<path d="M4660 2680 c-9 -6 -10 -10 -3 -10 6 0 15 5 18 10 8 12 4 12 -15 0z"/>
<path d="M4750 2680 c0 -6 7 -10 15 -10 8 0 15 2 15 4 0 2 -7 6 -15 10 -8 3
-15 1 -15 -4z"/>
<path d="M5430 2680 c0 -5 5 -10 10 -10 6 0 10 5 10 10 0 6 -4 10 -10 10 -5 0
-10 -4 -10 -10z"/>
<path d="M5755 2680 c3 -5 8 -10 11 -10 2 0 4 5 4 10 0 6 -5 10 -11 10 -5 0
-7 -4 -4 -10z"/>
<path d="M4870 2676 c0 -2 6 -9 14 -15 11 -9 16 -9 22 0 4 8 3 9 -4 5 -7 -4
-12 -2 -12 3 0 6 -4 11 -10 11 -5 0 -10 -2 -10 -4z"/>
<path d="M4535 2660 c3 -5 8 -10 11 -10 2 0 4 5 4 10 0 6 -5 10 -11 10 -5 0
-7 -4 -4 -10z"/>
<path d="M4717 2652 c-15 -16 -15 -19 -2 -19 8 0 13 3 10 5 -3 3 0 11 6 19 17
20 5 16 -14 -5z"/>
<path d="M4997 2655 c-4 -8 -3 -16 1 -19 4 -3 9 4 9 15 2 23 -3 25 -10 4z"/>
<path d="M5453 2657 c-3 -6 -1 -7 5 -3 5 3 12 1 14 -6 3 -8 6 -7 10 3 7 17
-19 22 -29 6z"/>
<path d="M5561 2656 c-9 -11 -9 -16 1 -22 7 -4 10 -4 6 1 -4 4 -3 14 3 22 6 7
9 13 6 13 -2 0 -10 -6 -16 -14z"/>
<path d="M5735 2661 c-3 -5 -2 -12 3 -15 5 -3 9 1 9 9 0 17 -3 19 -12 6z"/>
<path d="M5173 2652 c-7 -4 -9 -13 -4 -21 6 -9 10 -7 14 8 3 12 4 21 4 21 -1
0 -7 -4 -14 -8z"/>
<path d="M5211 2644 c0 -11 3 -14 6 -6 3 7 2 16 -1 19 -3 4 -6 -2 -5 -13z"/>
<path d="M5276 2643 c-4 -9 -4 -14 0 -10 4 4 14 1 23 -6 14 -11 15 -10 1 8 -8
11 -15 21 -16 23 -1 2 -5 -5 -8 -15z"/>
<path d="M4665 2640 c-3 -6 1 -7 9 -4 18 7 21 14 7 14 -6 0 -13 -4 -16 -10z"/>
<path d="M4785 2640 c-3 -6 1 -7 9 -4 18 7 21 14 7 14 -6 0 -13 -4 -16 -10z"/>
<path d="M4930 2642 c0 -4 10 -9 22 -9 18 -2 20 0 8 7 -18 12 -30 13 -30 2z"/>
<path d="M5020 2635 c0 -8 2 -15 4 -15 2 0 6 7 10 15 3 8 1 15 -4 15 -6 0 -10
-7 -10 -15z"/>
<path d="M5350 2639 c0 -5 5 -7 10 -4 6 3 10 8 10 11 0 2 -4 4 -10 4 -5 0 -10
-5 -10 -11z"/>
<path d="M5530 2619 c0 -5 5 -7 10 -4 6 3 10 8 10 11 0 2 -4 4 -10 4 -5 0 -10
-5 -10 -11z"/>
<path d="M4895 2611 c-3 -5 -2 -12 3 -15 5 -3 9 1 9 9 0 17 -3 19 -12 6z"/>
<path d="M4710 2606 c0 -2 7 -7 16 -10 8 -3 12 -2 9 4 -6 10 -25 14 -25 6z"/>
<path d="M4856 2598 c3 -5 10 -6 15 -3 13 9 11 12 -6 12 -8 0 -12 -4 -9 -9z"/>
<path d="M5076 2598 c3 -5 10 -6 15 -3 13 9 11 12 -6 12 -8 0 -12 -4 -9 -9z"/>
<path d="M5456 2602 c-3 -5 1 -9 9 -9 8 0 12 4 9 9 -3 4 -7 8 -9 8 -2 0 -6 -4
-9 -8z"/>
<path d="M5333 2585 c0 -8 4 -12 9 -9 5 3 6 10 3 15 -9 13 -12 11 -12 -6z"/>
<path d="M4935 2580 c3 -5 8 -10 11 -10 2 0 4 5 4 10 0 6 -5 10 -11 10 -5 0
-7 -4 -4 -10z"/>
<path d="M5235 2571 c-3 -5 -2 -12 3 -15 5 -3 9 1 9 9 0 17 -3 19 -12 6z"/>
<path d="M4949 2523 c-13 -16 -12 -17 4 -4 16 13 21 21 13 21 -2 0 -10 -8 -17
-17z"/>
</g>
</svg>
